<svg
   viewBox="0 0 840.45181 1946.7428"
   version="1.1"
   xmlns="http://www.w3.org/2000/svg"
   xmlns:svg="http://www.w3.org/2000/svg">
  <defs
     id="defs19" />
  <path
     id="base"
     d="m 722.342,1811.769 c 2.8416,10.2336 24.456,27.4704 27.7008,30.96 2.904,3.1728 6.288,6 9.192,9.1728 7.1712,7.7712 31.536,32.7792 36.9456,37.1712 6.2544,5.1792 13.1184,4.7568 20.2464,6.9504 6.7968,2.2032 12.9984,5.9088 17.4624,11.3232 1.8816,2.2224 5.088,4.728 6.0144,7.4832 1.2864,3.7296 0.3504,9.3408 -3.336,7.1856 -0.067,2.4624 0.792,3.5808 -0.768,5.6064 -0.7824,1.0128 -1.7808,0.5616 -2.568,1.4112 -0.9456,1.0224 -0.9216,1.6752 -1.6944,2.8512 -1.5408,2.52 -2.28,4.6848 -5.5536,4.8048 -1.632,0.062 -2.6784,-1.536 -4.6272,-1.1376 -1.464,0.2208 -1.4304,1.2048 -2.5488,1.9056 -4.8096,2.8032 -9.816,4.6368 -15.0384,5.16 -2.6112,0.264 -5.04,1.0128 -7.6608,0.9456 -2.6256,-0.067 -4.6608,-1.9584 -7.1328,-2.3568 l -2.6928,-1.8672 c -2.1216,0.2448 -3.7248,1.1232 -5.6736,1.5264 -10.2336,2.3568 -18.3312,0.3648 -25.5216,-7.9008 -5.4768,-6.192 -11.6544,-13.6704 -18.0672,-18.6816 -8.7792,-6.8928 -19.54562,-1.3968 -29.52482,-1.0224 -5.232,0.2016 -10.9392,0.9072 -16.0512,-0.048 -4.4544,-0.816 -10.4928,-0.2592 -14.3472,-2.5776 -9.216,-5.3952 -10.392,-14.8704 -12.3792,-24.1488 -2.0064,-9.7728 -1.4496,-21.12 -1.8384,-31.4448 -0.3936,-10.3248 -3.024,-19.248 -4.8576,-28.8624 -1.4256,-7.3344 -24.072,-69.336 -32.3232,-88.224 -10.4016,-23.8992 -63.67682,-155.3136 -69.27842,-199.5792 -1.1952,-9.9648 -2.7216,-20.0832 -4.248,-30.0384 -1.5552,-10.9344 -2.3424,-40.4448 -10.272,-63.9456 -1.6512,-4.6944 -10.7088,-23.3904 -13.0176,-28.0656 -4.416,-8.5296 -9.336,-17.3712 -11.976,-26.6256 -2.8272,-9.7392 -11.4144,-46.344 -12.5136,-49.4208 -3.1632,-10.056 -45.7968,-111.1824 -50.2704,-121.1904 -8.2416,-18.7248 -17.33184,-38.2416 -27.02016,-56.256 -10.92624,-20.4288 -18.80016,-42.456 -29.25408,-63.3936 -4.60512,-9.1824 -21.79104,-47.9232 -25.61568,-58.1184 -1.6512,-4.6944 -3.13296,-9.2352 -4.77168,-13.6032 -1.8336,-5.184 -4.97232,-5.8848 -8.7312,-10.0128 -2.73456,-3.0144 -5.6328,-6.024 -8.3736,-9.2016 -2.73408,-3.0144 -2.73408,-3.0144 -6.78672,-10.57442 -5.7432,-0.2736 -6.86352,0.4224 -9.97392,4.80962 -2.17872,3.0336 -4.03008,6.0576 -5.8752,9.2448 -3.55152,5.7168 -0.19344,16.584 -1.22976,23.8464 -1.16304,8.2464 -1.1808,16.4544 -2.84064,24.5568 -1.8048,8.6016 -3.75456,17.7024 -5.54688,26.6352 -4.58736,21.672 -8.44512,110.4384 -7.0824,133.5264 0.57168,10.8144 1.92624,55.4016 3.17664,66.84 1.24464,11.28 1.03392,44.7648 1.23792,50.1744 0.18576,4.9152 -0.40512,32.6736 -0.6024,36.1296 -0.28656,5.424 -3.39504,35.904 -4.63488,46.4544 -3.85872,32.3136 14.11344,100.5648 14.50416,128.2848 0.36864,22.8 -1.5648,45.3552 -4.32192,67.7808 -2.77632,21.9312 -15.24864,134.1648 -16.02576,139.608 -0.78384,5.2848 0.0806,10.8288 -0.70272,16.1136 -2.4336,17.9808 6.29328,53.9184 5.30016,62.328 -0.49968,4.1184 -1.9872,8.1168 -2.64384,12.408 -0.50592,3.9552 -0.35136,8.0544 -0.1968,12.1536 0.50064,13.272 6.27072,40.296 -11.18112,42.2688 -5.2152,0.6912 -8.31696,0.9696 -9.91824,6.2832 -1.30512,4.4784 -0.27072,10.1856 -0.9216,14.64 -1.1568,8.4144 -3.38448,18.84 -12.58368,22.4688 -9.8472,3.816 -17.9112,2.808 -26.32416,-3.1104 -1.68528,-1.248 -3.21936,-2.832 -5.18208,-2.76 -2.12592,0.082 -4.01472,2.1216 -6.47424,2.0496 -3.11376,-0.048 -9.15072,-3.7584 -9.45024,-7.3584 -2.12592,0.082 -3.02112,2.4144 -5.65632,2.0208 -2.30256,-0.24 -3.52176,-2.1648 -4.09248,-4.2768 -3.80208,3.4272 -6.43728,3.0336 -9.5424,-1.1184 -3.87888,5.7264 -8.53008,-0.3312 -9.21216,-5.3952 -0.67632,-4.896 1.06992,-10.7088 4.36896,-14.4432 2.98368,-3.3936 7.12512,-6.504 10.61856,-9.4272 4.13472,-3.2736 5.83488,-5.9616 8.44848,-10.4928 4.46544,-7.5552 8.94288,-14.7792 12.24432,-22.7808 3.60384,-8.6736 9.8928,-15.6384 13.50912,-23.9808 2.11056,-4.8384 2.50224,-7.4784 0.98976,-12.84 -1.14192,-4.224 -2.35248,-10.248 -2.4696,-13.3632 l -0.16704,-4.4256 c 4.536,-49.0752 -29.2632,-146.1072 -34.8048,-175.7664 -4.33152,-23.6352 -19.66272,-108.7248 -18.38256,-161.616 0.1416,-4.9296 3.1032,-69.7056 3.51264,-80.5536 0.42192,-10.5168 -0.3192,-21.4848 -0.72096,-32.136 -0.83472,-22.128 -1.98432,-43.9104 -5.0904,-65.4576 -1.7664,-12.0768 -2.73312,-24.6768 -5.31072,-36.5616 -2.39568,-11.3952 -40.06512,-202.32 -41.08704,-207.696 -1.01568,-5.2128 -4.6968,-42.0048 -4.62288,-48.7344 1.992,-64.40642 9.70176,-98.83682 9.96624,-109.18562 0.4224,-10.5168 1.52976,-20.2416 4.44192,-29.8704 3.20304,-10.6272 23.40096,-57.0144 24.98976,-62.6544 5.8008,-19.9104 16.43712,-37.5456 24.91008,-56.0832 8.91456,-19.8624 25.73904,-34.1184 36.84144,-52.4304 2.928,-4.8672 4.26432,-8.5296 4.04784,-14.2656 -0.21024,-5.5728 -2.53008,-36.6672 -5.03952,-46.7472 -2.66736,-9.912 -4.70496,-20.5008 -6.73008,-30.7632 -2.02512,-10.2624 -11.0784,-37.4928 -11.0784,-37.4928 -2.604,9.1248 -4.69872,18.72 -6.64848,27.8208 -1.10448,5.4576 -7.89888,25.08 -9.0216,30.048 -2.39088,10.4304 -5.93328,20.736 -7.34304,31.128 -1.40304,10.56 -3.01344,19.9728 -5.09616,29.8992 -2.09472,9.6 -4.23264,18.048 -9.4536,27.2736 -6.15312,10.5696 -12.8088,20.832 -18.45888,31.7136 -10.5312,20.4192 -22.20144,41.0448 -34.89648,60.5616 -12.08352,18.3456 -48.304317,74.1984 -52.651677,84.864 -2.09808,5.1696 -20.57184,40.824 -24.04944,48.504 l 2.9568,8.9136 c 0.35184,0.6432 0.54048,1.2912 0.72864,1.944 3.47856,9.7152 2.03184,19.1232 -1.04448,28.7568 -1.61328,4.9872 -4.22064,9.6816 -6.168,14.5104 -2.09808,5.1696 -2.98032,7.8288 -2.76384,13.56482 0.3768,9.9936 2.43312,21.0768 0.48336,30.1776 -0.97824,4.4688 -10.45728,22.3872 -16.5,18.5136 -1.56528,-11.1024 0.92736,-23.1792 -0.97152,-34.4304 -1.19712,3 -3.3384,7.0176 -4.03296,10.3296 -0.67536,3.7968 0.64272,8.3424 0.46416,12.288 -0.38256,7.2384 -2.33808,16.1712 -0.2544,23.6448 1.71312,6.336 6.23136,13.224 9.07104,19.0224 2.83344,5.64 5.9664,14.8752 1.76064,20.6112 -3.00624,-1.5264 -5.2992,-5.8704 -7.20384,-8.5872 -2.256,-3.3648 -4.52448,-7.0512 -12.77376,-12.9792 -1.68528,-1.248 -1.95024,9.1008 -3.24912,13.7472 -0.85152,3.48 -2.85408,6.8352 -6.05098,8.9232 -3.87043,-7.0704 -3.27245,-17.2704 -4.23585,-25.44 -1.21353997,-10.4592 -0.98601997,-21.792 -0.55775997,-32.1456 0.29557997,-9.528 -0.76172,-37.5552 -0.97196,-43.128 -0.20404,-5.40482 0.91887,-10.37282 1.21785997,-15.47042 0.58565,-10.5264 1.66819,-20.9088 2.24765,-31.5984 0.40973,-10.8432 0.17755,-21.3408 2.41118,-31.5984 2.23378,-10.2624 6.5749,-21.0912 11.29282,-30.624 4.72416,-9.3696 8.80032,-18.5472 12.68832,-28.3776 1.95312,-4.6704 32.27376,-90.9888 34.22688,-95.6592 1.80192,-4.3344 19.92288,-58.0272 22.68432,-67.3248 2.7432,-9.7872 7.15248,-18.816 13.05216,-27.408 5.440317,-7.752 10.383837,-15.6528 12.654237,-24.9312 4.68672,-19.0464 12.348,-37.392 15.87744,-56.7264 11.22912,-58.3536 14.59728,-129.7104 14.93664,-129.3936 l -0.33984,-9.0139 c -5.13648,-14.5767 -5.10048,-30.9898 -5.71872,-47.3779 -0.31536,-8.3583 1.36272,-15.9711 2.37456,-23.8868 0.87264,-7.2537 2.69616,-15.3643 5.38656,-22.1947 7.18944,-17.83199 17.77056,-36.94031 37.0056,-43.73855 10.18704,-3.50256 18.63024,-5.46192 29.53056,-3.08352 5.28336,1.1136 9.8568,0.77712 15.39936,0.0754 4.89456,-0.51264 10.42464,-1.54176 15.30048,-2.5464 17.39616,-3.4464 39.86544,-11.35152 49.89696,-27.64896 5.55456,-9.072 7.3344,-18.32976 8.90736,-28.72848 1.5672,-10.5624 -1.58448,-20.29056 -3.1248,-30.73584 -11.62896,-4.32096 -19.15968,-12.89904 -25.13472,-23.66928 -6.15168,-11.09184 -12.28416,-21.69216 -17.78736,-32.97264 -4.6176,-9.5088 -5.75712,-18 -6.9768,-28.62144 -1.21344,-10.45776 -0.98592,-21.79056 -3.33792,-32.04096 -2.17056,-9.765118 -4.49184,-19.196158 -4.08192,-30.043678 0.42192,-10.5192 -0.11904,-20.50992 3.93264,-30.3456 9.9168,-23.67876 30.35808,-37.57938 38.07312,-41.4810604 9.96768,-4.9713 19.22256,-7.12583996 29.85408,-7.52699996 43.01088,-1.78686004 68.74656,16.11546036 80.17872,32.58822036 6.24048,9.11904 7.87056,17.59152 10.87728,27.81744 1.12992,3.89616 6.64608,24.20256 6.80976,24.1968 -0.1512,0.3336 9.4368,-1.66896 9.8664,5.37168 0.0989,2.62224 1.62048,3.87744 2.20368,6.31728 1.21632,6.190558 0.0571,18.871198 -1.01664,25.148158 -1.77984,9.25776 -12.63264,21.15552 -12.63264,21.15552 0,0 -1.9584,21.90144 -1.7448,31.90464 0.45744,12.1272 -3.23088,44.59728 -1.38192,54.53856 1.86192,10.26912 4.3032,18.5472 8.75712,28.06176 7.6824,16.94256 25.45248,27.76032 42.39168,33.85008 4.3104,1.4784 23.568,3.86976 28.5024,4.50432 5.1024,0.62784 10.2576,-1.69968 15.3072,-2.38272 5.0592,-0.51936 9.8928,-2.6712 15.144,-2.37696 8.6928,0.3288 19.4304,2.71344 27.4656,7.33392 8.5392,4.9296 17.64,11.64288 23.184,19.63968 10.896,15.34416 18.912,23.73984 21.168,48.76463 2.2512,25.0248 -2.0352,58.9949 -0.5088,73.3795 0.7584,7.0282 4.5696,47.2584 6.456,53.916 1.6944,5.8416 21.32162,83.2224 23.13602,87.912 3.6384,9.5472 6.2832,18.9648 10.224,27.8448 4.128,9.528 9.048,18.3648 12.6816,27.912 7.2912,19.584 12.624,39.4032 15.0384,59.9904 1.2096,10.296 16.0896,100.8192 19.2864,120.3936 1.68,9.7824 2.7024,19.5888 4.3824,29.376 1.0128,5.0496 10.3056,69.0288 11.784,73.5696 1.4976,4.8672 10.2576,15.696 12.3936,20.2128 3.912,8.2224 21.24002,42.0336 26.15042,50.544 1.9296,3.3744 5.8656,16.52162 7.7616,19.07522 4.4928,6.2304 9.2304,10.152 11.952,17.2704 2.9088,7.6032 1.6656,17.9904 2.1504,26.5056 0.3216,4.2576 0.9696,8.3328 1.1328,12.7584 0.1248,3.2784 1.6992,10.2768 -0.336,12.816 -2.52,-1.7088 -4.5936,-4.5888 -6.3072,-6.6576 -0.2928,5.2656 0.2976,12.2976 -3.8208,16.0656 -7.992,-3.4752 -8.3904,-14.1264 -10.5744,-15.5184 -3.2448,5.208 -8.2992,14.424 -13.75202,17.5872 -6.3888,-8.7888 -1.9872,-17.9808 0.9552,-26.7888 2.64002,-8.1408 -1.9872,-17.976 -9.9696,-21.1248 -4.4976,-1.9632 -15.8592,-16.632 -16.8672,-21.6816 -2.0016,-9.6096 -2.9712,-17.9424 -10.6176,-25.20002 -6.624,-6.3168 -14.7984,-10.2768 -20.6352,-17.2752 -5.4864,-6.5232 -7.5072,-16.6224 -8.4768,-24.9552 -1.1808,-9.6384 -0.5904,-20.0016 -3.5472,-28.9152 -3.336,-10.3776 -20.0832,-80.808 -29.1456,-99.6672 -8.7216,-18.3792 -16.1376,-36.9744 -24.52322,-55.2048 -4.4592,-9.6768 -30.984,-74.4864 -34.4448,-83.712 -3.4656,-9.3888 -4.6656,-19.5168 -5.064,-30.0048 -0.8448,-22.4544 -20.8464,-83.736 -23.6832,-93.8016 -1.5072,-5.1936 -6.1344,-19.3008 -9.2928,-29.1936 0,0 -6.792,19.6224 -7.6416,23.2656 -1.1328,4.6416 -8.0976,32.8032 -10.5168,42.4128 -8.352,34.7808 -7.8816,82.0272 7.848,116.88 4.2912,9.5232 8.184,17.256 12.6288,26.4432 4.6224,9.672 5.7984,19.1472 7.992,29.5632 3.816,18.5664 6.3552,38.1648 8.5632,57.6144 2.3664,19.2768 9.8592,65.928 10.0944,67.8912 0.4416,2.9376 1.1952,5.5344 1.7904,8.2992 1.1712,5.0448 7.8384,34.1712 11.2992,43.3968 3.2832,8.8992 44.28002,153.41762 55.43042,323.02082 1.0608,15.0576 3.5808,29.736 7.728,44.184 2.0688,7.1424 4.7856,13.9344 7.5024,20.8896 1.0944,2.9136 6.5808,26.832 7.1712,29.4336 0.7536,2.5968 0.696,5.3904 1.2864,7.992 0.9936,4.7232 2.0256,10.2624 3.6672,14.7984 5.1744,15.5568 23.4288,69.5232 30.432,90.264 23.232,68.7072 15.8016,80.1504 32.2272,272.3664 2.5056,27.312 10.3488,48.5184 13.36802,59.0688 z"
  />
  <path
     id="skull"
     d="m 316.45268,0.01521164 c -1.31044,0.018 -2.63091,0.0564 -3.975,0.1125 -10.63152,0.4011 -19.89169,2.54741996 -29.85937,7.51871996 -7.71504,3.9016804 -28.15508,17.8056004 -38.07188,41.4844204 -0.99357,2.41188 -1.6983,4.83876 -2.22187,7.27494 0.67477,-0.1116 1.80763,0.49896 2.53125,-0.45 8.80165,-11.54232 11.22732,-2.2479 21.57178,-3.79812 19.88794,-2.9805 38.74539,-27.78984 75.17822,-11.7081 2.70609,0.42096 9.87543,7.11252 12.05194,8.86014 26.9406,51.546598 28.15264,111.812338 28.24958,159.049498 0,0 1.81894,9.01068 9.34768,10.91166 9.17361,2.3163 13.82122,4.29648 13.82122,4.29648 0,0 2.36524,-37.6419 1.93897,-48.94278 -0.2136,-10.0032 1.74375,-31.90314 1.74375,-31.90314 0,0 10.85766,-11.9016 12.6375,-21.15936 1.07376,-6.27696 2.22882,-18.95322 1.0125,-25.143778 -0.5832,-2.43984 -2.10425,-3.69648 -2.20313,-6.31872 -0.4296,-7.04064 -10.0137,-5.03826 -9.8625,-5.37186 -0.16368,0.006 -5.6857,-20.3007 -6.81562,-24.19692 -3.00672,-10.22586 -4.63452,-18.69654 -10.875,-27.81558 -11.07491,-15.95796 -35.57636,-33.25896036 -76.2,-32.70000036 z"
  />
  <path
     id="right-eye"
     d="m 248.27162,119.16219 c 0,0 -0.69394,-8.29536 -0.74815,-10.17558 -0.25061,-8.69334 17.70439,-8.78472 17.70439,-8.78472 l 11.14613,6.18546 0.97007,8.82678 c 0,0 -0.26938,4.17408 -7.13504,12.3876 -13.54697,9.19602 -20.4002,-3.19212 -21.9374,-8.43954 z"
  />
  <path
     id="left-eye"
     d="m 325.60528,119.20875 c -7.7834,2.38458 -15.95433,5.29962 -24.13418,1.93794 -9.9258,-4.07916 -12.80054,-15.81234 -12.80054,-15.81234 l 5.48473,-8.744878 c 0,0 6.54688,-5.20932 13.16603,-6.8607 22.68231,-3.79848 21.48604,1.3023 28.6852,9.74388 1.29271,11.355718 -1.94082,15.213898 -10.40124,19.736098 z"
  />
  <path
     id="face"
     d="m 317.28706,35.077712 c -21.60597,0.33318 -35.94343,14.84586 -50.85938,17.08122 -10.34446,1.55028 -12.77022,-7.74546 -21.57187,3.79692 -0.72362,0.9489 -2.4433,2.56704 -3.47629,6.67338 -1.61018,7.49814 -0.45211,8.9088 -0.77059,16.84848 -0.40992,10.84752 1.91694,20.28174 4.0875,30.046858 2.352,10.2504 2.12406,21.5766 3.3375,32.03436 1.21968,10.62144 2.3574,19.11312 6.975,28.62192 5.5032,11.28048 11.6327,21.88002 17.78438,32.97186 5.58987,10.07592 12.67702,18.09246 23.07187,22.64058 4.84381,1.25544 15.56552,2.97678 21.69033,0.55452 29.04285,-8.00184 35.43065,-11.6085 64.7919,-45.92784 -0.83295,-43.0761 -5.77104,-87.268078 -28.68535,-131.111038 -2.17652,-1.74756 -9.35016,-8.43834 -12.05625,-8.85936 -9.10821,-4.02042 -17.11675,-5.48292 -24.31875,-5.37186 z m 1.82812,53.38122 c 10.76547,-0.13362 11.26941,4.42068 16.89375,11.01564 1.29272,11.355718 -1.94583,15.212218 -10.40625,19.734358 -7.7834,2.38458 -15.95139,5.30232 -24.13125,1.94064 -9.92579,-4.07922 -12.79687,-15.81564 -12.79687,-15.81564 l 5.48437,-8.746858 c 0,0 6.54336,-5.21118 13.1625,-6.8625 4.96176,-0.83094 8.77942,-1.2282 11.79375,-1.26564 z m -53.8875,11.746918 11.14688,6.17808 0.96562,8.83128 c 0,0 -0.2687,4.17084 -7.13437,12.38436 -13.54697,9.19602 -20.4003,-3.19002 -21.9375,-8.4375 0,0 -0.68643,-8.29164 -0.74063,-10.17186 -0.25061,-8.6934 17.7,-8.78436 17.7,-8.78436 z"
  />
  <path
     d="m 418.43393,86.321432 c 0.009,0.007 0.0197,0.0114 0.0283,0.0186 -0.01,-0.008 -0.0182,-0.0108 -0.0283,-0.0186 z"
     id="path905"
  />
  <path
     id="neck"
     d="m 381.5678,181.29525 c -2.99337,1.06446 -9.54475,15.30516 -34.78564,34.16382 -4.56953,3.41412 -15.66098,7.49058 -31.40471,11.8557 -4.1473,1.1499 -13.4749,0.4641 -17.54937,-1.4961 1.54032,10.44528 4.79805,21.18414 3.23085,31.74652 -1.57296,10.39872 -3.35169,19.653 -8.90625,28.725 -1.79428,2.91503 -4.09102,5.47455 -6.58125,7.875 23.0615,10.49169 31.46061,17.717 55.1566,16.54721 27.63497,-1.36425 67.29355,-18.7522 83.1809,-31.47221 1.58063,-1.39318 3.08299,-2.87124 4.55625,-4.37812 -5.80421,-4.98917 -10.91515,-10.67262 -14.07187,-17.63438 -4.45392,-9.51454 -7.59533,-23.29 -9.45726,-33.55912 -1.86609,-2.47728 -18.05165,-3.21966 -19.42466,-8.65584 -6.00469,-4.7988 -2.89274,-16.269 -3.94359,-33.71748 z"
  />
  <path
     id="right-chest"
     d="m 285.09179,293.88861 c -16.54153,17.49442 -42.25878,20.2435 -58.43063,23.44735 -22.76208,48.52832 -0.63058,98.37272 -24.05707,142.54132 -29.10145,41.1826 -3.81909,72.5283 13.62205,99.2288 4.84014,8.503 4.34889,10.4876 7.91071,22.0091 8.61474,25.9387 9.22249,38.3445 15.34131,67.1893 7.22456,6.2935 5.07114,-20.7117 7.64398,-26.0626 15.08111,-35.2828 31.46798,-35.3861 65.47696,-36.1255 9.92033,-0.957 28.0796,0.4723 30.64709,-4.092 -9.42736,-86.4445 -17.07234,-209.6412 -7.35466,-270.96469 -22.1457,-2.12908 -38.21425,-9.35816 -50.79974,-17.17108 z"
  />
  <path
     id="left-chest"
     d="m 430.65893,276.87769 c 0,0 0.11232,-0.16526 -2.20471,-1.76899 -13.74288,12.61924 -27.26871,18.47008 -43.13361,24.76689 -14.78252,6.68527 -32.29006,11.08563 -49.59933,10.71534 0.33849,10.68767 -1.60404,10.16463 -1.80706,20.17872 -3.39019,72.06863 -2.85671,181.73013 10.17166,251.96693 85.29591,-4.8409 99.36379,27.9974 137.62656,67.6174 6.82564,7.8709 10.29201,7.837 16.681,9.8863 -1.29748,-21.2365 0.59852,-42.5771 4.92188,-60.5813 2.4192,-9.6096 9.38596,-37.7709 10.51876,-42.4125 0.62386,-2.6753 3.61613,-11.2701 5.60626,-17.0812 14.47526,-40.3974 16.35086,-61.0978 7.4724,-93.7664 -8.1948,-30.1529 -24.2411,-24.0097 -27.70205,-82.8387 -2.43533,-41.39635 1.37616,-70.36057 1.37616,-70.36057 -5.0496,0.68304 -10.1976,3.00909 -15.3,2.38125 -4.9344,-0.63456 -24.19896,-3.03097 -28.50936,-4.50937 -9.58569,-4.11125 -18.7587,-7.42679 -26.11856,-14.1938 z"
  />
  <path
     id="right-stomach"
     d="m 340.59331,583.57148 c -11.71055,1.3303 -20.05707,3.0034 -34.35938,2.8781 -43.19326,-1.4934 -55.04727,18.9122 -61.59375,49.05 0.47828,17.6888 -5.97211,11.6218 -5.41875,13.6781 2.50944,10.08 2.37726,25.0179 2.5875,30.5907 0.21648,5.736 -1.122,9.4015 -4.05,14.2687 -11.1024,18.312 -27.92919,32.5626 -36.84375,52.425 31.21823,28.4159 22.58052,49.1615 43.65,86.9906 34.61093,56.9758 38.22476,61.5645 90.96563,63.6375 3.05559,-58.5506 -1.25937,-118.2311 8.68103,-175.8468 4.8879,-43.2878 3.72726,-87.8832 -3.1031,-130.3032 -0.22742,-2.4546 -0.40838,-4.9109 -0.51563,-7.3687 z"
  />
  <path
     id="left-stomach"
     d="m 369.32768,581.99648 c -12.06505,0.024 -20.65413,0.6807 -27.9,1.4812 5.53157,47.9694 6.88709,98.9451 2.92998,138.2431 -1.00116,5.6867 -3.11238,14.123 -3.50377,19.8797 -3.10469,49.4933 -4.65409,96.4281 -4.2546,145.6179 0.14486,3.3112 -0.008,6.6064 -0.23439,9.9 3.68339,0.1416 6.92795,0.3043 11.11875,0.4406 90.67936,2.9491 114.28272,-89.0966 149.94375,-122.2875 15.54268,-14.4661 29.30467,-3.9789 33.20625,-8.3157 -1.60377,-8.2287 -3.07992,-16.0963 -6.84374,-23.9719 -4.4448,-9.1872 -8.33693,-16.9143 -12.62813,-26.4375 -13.4497,-29.801 -9.39965,-24.7987 -12.3469,-56.953 -27.75676,-0.4032 -40.65508,-72.8512 -129.48748,-77.5969 z"
  />
  <path
     id="right-shoulder"
     d="m 226.94956,316.48707 c -5.54256,0.70175 -10.11039,1.03865 -15.39375,-0.075 -10.90032,-2.37838 -19.34421,-0.41818 -29.53125,3.08438 -19.23504,6.79824 -29.82306,25.90237 -37.0125,43.73433 -2.6904,6.8304 -4.50861,14.9463 -5.38125,22.2 -1.01184,7.9157 -2.68724,15.5199 -2.37188,23.8781 0.61824,16.3882 0.58227,32.8047 5.71875,47.3813 l 0.01,0.3375 c 16.52042,10.4904 39.02096,10.1947 57.17813,5.7468 6.10377,-5.8343 13.27735,-27.5563 14.83125,-55.4531 -1.46849,-36.9517 1.701,-72.3589 11.9529,-90.83429 z"
  />
  <path
     id="left-shoulder"
     d="m 515.73704,290.81832 c -6.08395,0.37325 -9.70622,1.35886 -15.22209,2.53933 -2.64715,30.7739 -3.40421,74.18013 2.65718,101.48973 7.57848,30.5894 23.45933,31.1105 28.35216,74.4891 8.57621,3.3695 21.37853,5.8774 29.16567,5.5875 14.51606,-0.5698 21.49348,-4.5283 29.02526,-9.1213 -1.21176,-11.2223 -2.30986,-22.5109 -2.67187,-25.8656 -1.5264,-14.3847 2.75745,-48.3534 0.50625,-73.3782 -2.256,-25.02475 -10.27276,-33.42454 -21.16876,-48.7687 -5.544,-7.9968 -14.63578,-14.71103 -23.17498,-19.64063 -8.0352,-4.62048 -18.77597,-7.00245 -27.46877,-7.33125 z"
  />
  <path
     id="right-hipBone"
     d="m 200.95268,746.29338 c -0.0134,0.059 0.002,0.08 -0.0374,0.1689 -8.47296,18.5376 -19.10857,36.1803 -24.90937,56.0907 -1.5888,5.64 -21.79073,52.0258 -24.99375,62.653 -2.91218,9.6288 -4.01198,19.352 -4.43438,29.8688 -0.0413,1.6218 -0.3204,4.1049 -0.675,6.9938 0.52407,0.062 1.05233,0.1094 1.575,0.1781 19.84316,2.9649 44.17493,4.6394 64.85625,1.6221 25.39336,-4.9212 46.68826,-10.9815 68.34826,-20.1441 -17.39012,-16.3846 -29.85021,-39.8042 -40.89826,-58.9059 -7.95215,-13.749 -12.95918,-51.1506 -30.01875,-69.8157 -5.98071,-6.5436 -5.30604,-3.5119 -8.56875,-8.5406 -0.1465,-0.05 -0.18759,-0.1123 -0.24375,-0.169 z"
  />
  <path
     d="m 200.87768,746.04018 c -0.055,0.043 -0.0322,0.1459 0.075,0.253 0.0488,-0.2175 -0.009,-0.3058 -0.075,-0.253 z"
     id="path915"
  />
  <path
     id="left-hipBone"
     d="m 499.23383,773.44968 c -33.08549,33.7048 -54.45975,93.9695 -105.4573,116.1327 27.15145,4.895 53.91797,9.7128 79.61367,11.1266 26.5247,3.2401 51.51345,4.5961 73.81723,0.6984 0.85277,-0.4994 2.84088,-0.5203 3.70464,-0.9984 -0.16176,-0.7789 -0.34512,-1.5319 -0.46896,-2.3532 -0.2352,-1.9632 -7.73045,-48.6169 -10.09685,-67.8937 -2.208,-19.4496 -5.61758,-44.2945 -9.43358,-62.8609 -3.54912,3.0487 -17.00016,-4.7442 -31.67885,6.1485 z"
  />
  <path
     id="right-upperArm"
     d="m 143.04331,458.39648 0.27187,7.3125 c -0.33936,-0.3168 -3.70526,71.0401 -14.93438,129.3937 -1.82087,9.9748 -4.72635,19.6934 -7.77187,29.3719 8.16314,8.3397 11.89238,11.0484 28.84591,15.351 8.95963,2.2739 34.75639,8.0653 48.68534,3.624 1.64539,-6.9208 3.54917,-13.8424 5.14687,-20.8125 1.12272,-4.968 7.91427,-24.5893 9.01875,-30.0469 1.94976,-9.1008 4.05226,-18.7002 6.65626,-27.825 -2.17209,-8.2616 -26.34278,-37.8169 -28.67544,-56.268 -2.17419,-17.1975 1.86368,-32.0304 10.11671,-45.568 -9.9684,1.6663 -14.27593,4.2149 -34.0444,1.608 -7.96695,-1.0505 -15.50829,-4.243 -23.31563,-6.1406 z"
  />
  <path
     id="right-elbow"
     d="m 120.75805,624.42188 c -3.23459,7.7624 -6.07693,18.5339 -8.25849,27.3996 -1.51938,6.2092 -4.5585,12.8307 -7.82049,18.1762 13.89679,1.1976 27.13791,4.3237 38.55826,10.4795 14.35334,8.8798 27.75366,18.9065 38.14335,30.3672 4.90617,-8.924 7.43025,-17.8568 9.46575,-27.1854 2.08272,-9.9264 3.69696,-19.3369 5.1,-29.8969 0.56499,-4.1649 0.44324,-3.5853 2.24583,-10.8 -6.63335,4.5962 -34.91181,0.8357 -46.69852,-2.5965 -12.66624,-2.8105 -21.15002,-5.2597 -30.73569,-15.9437 z"
  />
  <path
     id="right-forearm"
     d="m 104.27768,670.09338 c -1.4128,2.2497 -2.89243,4.4684 -4.434367,6.6656 -5.89968,8.592 -10.3068,17.6159 -13.05,27.4031 -2.76144,9.2976 -20.88558,62.9969 -22.6875,67.3313 -1.95312,4.6704 -32.26563,90.9826 -34.21875,95.653 -3.888,9.8304 -7.96959,19.0086 -12.69375,28.3782 -2.97558,6.0123 -5.72866,12.5477 -7.96875,19.125 2.68099,0.6706 5.35524,1.3683 8.025,2.0531 2.0775,0.5919 4.15433,1.1984 6.23437,1.7812 7.34854,2.0592 12.49712,3.9929 19.125,7.6876 2.97636,1.9668 5.59058,4.4038 8.325,6.6749 0.53425,0.444 1.07425,0.8669 1.61251,1.2938 4.61938,-9.7521 20.84084,-41.1397 22.83749,-46.0593 4.34736,-10.6656 40.575857,-66.5263 52.659377,-84.8719 12.69504,-19.5168 24.36255,-40.1434 34.89375,-60.5626 5.58273,-10.7518 12.14296,-20.8948 18.23437,-31.3312 -1.85611,-2.3798 -4.02426,-4.5393 -6.3,-6.6375 -8.20006,-7.9926 -17.31377,-14.9248 -26.87812,-21.2156 -1.46193,-0.8791 -2.88177,-1.8153 -4.37813,-2.6344 -6.30568,-3.4519 -13.19556,-5.9012 -20.1,-7.8187 -6.3562,-1.3082 -12.75921,-2.4914 -19.2375,-2.9156 z"
  />
  <path
     id="right-hand"
     d="m 8.783933,915.94338 c -1.26455,3.3729 -2.14555,6.8437 -2.87812,10.2093 -2.23363,10.2576 -2.00902,20.7505 -2.41875,31.5937 -0.57946,10.6896 -1.65498,21.0768 -2.24063,31.6032 -0.29898997,5.0976 -1.42278997,10.064 -1.21873997,15.46882 0.21024,5.5728 1.26119997,33.597 0.96562,43.125 -0.42826,10.3536 -0.65104,21.6876 0.56249997,32.1468 0.96341,8.1696 0.36707,18.3733 4.2375,25.4437 3.19689,-2.088 5.19536,-5.4449 6.04688,-8.9249 1.29888,-4.6464 1.56784,-15.0012 3.25312,-13.7532 8.24928,5.928 10.51275,9.6196 12.76875,12.9844 1.90464,2.7168 4.20314,7.0611 7.20938,8.5875 4.20576,-5.736 1.07093,-14.9756 -1.76251,-20.6156 -2.83968,-5.7984 -7.36188,-12.6859 -9.075,-19.0219 -2.08368,-7.4736 -0.12946,-16.4054 0.2531,-23.6438 0.17856,-3.9456 -1.13476,-8.4938 -0.45936,-12.2906 0.69456,-3.312 2.83414,-7.3219 4.03126,-10.3219 1.89888,11.2512 -0.59028,23.3227 0.975,34.4251 6.04272,3.8736 15.52176,-14.0468 16.5,-18.5156 1.94976,-9.1008 -0.11069,-20.1846 -0.4875,-30.1782 -0.21648,-5.73602 0.66754,-8.38662 2.76563,-13.55622 1.94735,-4.8288 4.55546,-9.5254 6.16874,-14.5126 3.07632,-9.6336 4.51919,-19.0473 1.04063,-28.7625 -0.18816,-0.6528 -0.37003,-1.2973 -0.72188,-1.9405 l -2.9625,-8.9157 c 0.0821,-0.1814 1.0495,-2.2075 1.14793,-2.4192 -3.33749,-2.7045 -5.73694,-5.176 -9.88345,-7.9937 -13.14658,-7.3777 -27.93069,-9.9448 -33.36942,-11.4169 z"
  />
  <path
     id="left-upperArm"
     d="m 589.38704,466.19648 c -5.74968,3.1942 -8.22201,6.5515 -21.38438,7.8187 -21.8399,2.1027 -31.15733,-2.87 -36.32813,-4.35 0.87528,9.6205 0.42864,20.1915 -0.76872,28.8 -1.58573,15.755 -5.25077,23.9009 -10.19064,35.7563 -0.16512,0.9113 -0.21072,1.8327 -0.22512,2.7562 0.19776,-0.5733 0.98434,-2.9906 0.98434,-2.9906 3.15845,9.8928 7.78344,24.0001 9.29064,29.1937 1.72944,6.1365 10.0175,31.6719 16.27565,55.4752 7.28956,-3.7112 29.57131,-6.3938 37.77374,-7.5329 18.3963,-2.5548 25.63824,-5.5157 39.67248,-6.8247 0.93132,-0.029 -5.5794,-16.5449 -7.84692,-22.5372 -1.8144,-4.6896 -21.44316,-82.0678 -23.13756,-87.9094 -1.12627,-3.975 -2.67643,-13.9577 -4.11562,-27.6562 z"
  />
  <path
     id="left-elbow"
     d="m 607.23654,607.07338 c -11.27527,2.7281 -20.91938,4.1858 -33.94154,5.4995 -9.63927,1.5752 -18.03888,2.4418 -26.29234,6.2966 3.93677,15.0325 7.11821,29.4556 7.44379,38.1094 0.38208,10.0629 1.98461,20.2392 5.13571,29.3047 15.84994,2.4954 32.83584,1.8851 46.73962,0.2688 17.41434,-2.0245 30.69522,-3.3791 45.1806,-7.7329 -2.84664,-13.7648 -6.97932,-27.9188 -11.95908,-41.2943 -3.6336,-9.5472 -8.55636,-18.3907 -12.68436,-27.9187 -0.68562,-1.5449 -1.69308,-3.8357 -2.31198,-5.411 -5.64978,0.6936 -12.07224,1.8315 -17.31042,2.8778 z"
  />
  <path
     id="left-forearm"
     d="m 651.4683,678.76518 c -0.4032,0.1613 -0.80646,0.3408 -1.20936,0.4969 -15.53772,4.6023 -34.4844,5.8266 -40.6875,6.7688 -17.35144,2.6355 -32.14532,2.8726 -50.23124,0.4128 0.0643,0.1785 0.10272,0.3657 0.16848,0.5437 3.4608,9.2256 29.98454,74.0325 34.44374,83.7093 8.3856,18.2304 15.8034,36.8302 24.525,55.2094 9.0624,18.8592 25.81092,89.2881 29.14692,99.6657 1.5486,4.6687 2.2068,10.3562 2.5725,15.5071 3.04404,-2.2507 14.71338,-10.4819 17.59098,-11.8492 10.25844,-5.0206 15.78972,-6.2354 23.0628,-6.5069 -0.20736,-0.4627 -0.69336,-1.4841 -0.81384,-1.8761 -1.4784,-4.5408 -10.77156,-68.5161 -11.78436,-73.5657 -1.68,-9.7872 -2.7075,-19.5894 -4.3875,-29.3718 -3.1968,-19.5744 -18.07476,-110.0978 -19.28436,-120.3938 -0.74178,-6.3249 -1.84776,-12.5546 -3.1125,-18.75 z"
  />
  <path
     id="left-hand"
     d="m 690.83394,922.74958 c -9.80292,0.2073 -17.3334,3.6555 -23.03862,6.4737 -3.7653,1.8622 -14.43942,9.7477 -17.64888,11.9385 0.30096,4.456 0.48762,8.9607 1.02186,13.3219 0.9696,8.3328 2.99796,18.4331 8.48436,24.9563 5.8368,6.9984 14.01036,10.9613 20.63436,17.2781 7.6464,7.25762 8.61096,15.59042 10.61256,25.20002 1.008,5.0496 12.36798,19.7118 16.86558,21.675 7.9824,3.1488 12.61504,12.9904 9.97506,21.1312 -2.9424,8.808 -7.34508,17.9957 -0.95628,26.7845 5.45276,-3.1632 10.50826,-12.3795 13.75306,-17.5875 2.184,1.392 2.5831,12.0403 10.5751,15.5155 4.1184,-3.768 3.5228,-10.7937 3.8156,-16.0593 1.7136,2.0688 3.7893,4.9474 6.3093,6.6562 2.0352,-2.5392 0.4623,-9.5372 0.3375,-12.8156 -0.1632,-4.4256 -0.8127,-8.5017 -1.1343,-12.7593 -0.4848,-8.5152 0.7618,-18.9 -2.147,-26.5032 -2.7216,-7.1184 -7.4602,-11.0384 -11.953,-17.2688 -1.896,-2.5536 -5.8329,-15.70362 -7.7625,-19.07802 -4.9104,-8.5104 -22.23496,-42.3276 -26.14696,-50.55 -1.89186,-4.0006 -8.9607,-12.9336 -11.59686,-18.3095 z"
  />
  <path
     id="right-groin"
     d="m 280.31206,884.04958 c -16.22468,6.5945 -37.84767,13.5389 -54.79688,17.4562 -9.27835,43.028 -13.41967,68.0962 -1.96632,93.9833 13.80579,31.20422 26.62252,78.96062 26.62252,78.96062 0,0 42.74596,18.4149 66.77992,24.5237 2.37884,-27.0235 8.40048,-45.3225 9.81375,-59.8401 1.33162,-13.6787 -1.97076,-24.2678 0.95638,-27.1524 1.84512,-3.1872 3.69941,-6.2102 5.87813,-9.2438 3.22891,-4.71342 4.27591,-4.22042 6.04687,-4.62192 -2.29303,-6.5158 -3.01127,-30.6199 -4.47187,-43.9031 -1.60107,-14.5607 -1.53186,-36.4695 -0.20626,-56.9906 -12.1259,-0.8372 -35.16871,-3.0578 -39.59063,-4.7063 -4.52553,-2.0262 -13.0149,-6.9162 -15.06561,-8.4656 z"
  />
  <path
     id="right-hipJoint"
     d="m 224.92456,901.63708 c -4.52072,1.0322 -8.77214,1.8936 -12.39375,2.4093 -22.70536,3.2332 -51.07794,0.7248 -66.39375,-1.9593 -1.32981,10.329 -4.38064,29.0718 -6.5625,53.4093 -2.2558,27.2516 -4.79517,63.19712 0.13123,74.25942 10.76511,24.1733 56.91928,32.9158 56.91928,32.9158 l 54.56825,12.9914 c -15.08283,-48.2297 -23.72229,-63.4372 -31.32627,-91.36042 -6.99984,-25.7047 -2.09091,-50.0066 5.05749,-82.6655 z"
  />
  <path
     id="right-thigh"
     d="m 137.69956,1018.4684 c 1.1046,13.4836 2.80813,30.8007 3.53437,34.528 1.02192,5.376 38.68557,196.2986 41.08125,207.6938 2.5776,11.8848 3.54923,24.4857 5.31563,36.5625 3.10608,21.5472 4.2559,43.3283 5.09062,65.4563 0.40176,10.6512 1.1438,21.6206 0.72188,32.1374 -0.16028,5.5856 0.18806,1.0151 -0.6164,19.0552 19.88723,4.5765 17.77477,-16.2695 39.19987,-16.6328 21.61818,-0.3662 24.20412,34.5952 78.66553,16.846 1.43969,-13.1847 3.89473,-35.8044 4.1385,-40.4184 0.19728,-3.456 0.78576,-31.216 0.6,-36.1312 -0.204,-5.4096 0.007,-38.895 -1.2375,-50.175 -1.2504,-11.4384 -2.59707,-56.0294 -3.16875,-66.8438 -1.36272,-23.088 0.84968,-99.3027 5.43704,-120.9747 -32.51871,-11.3597 -53.57642,-22.129 -96.74954,-32.0065 -28.32901,-6.4813 -57.79198,-7.6656 -79.275,-33.6188 z"
  />
  <path
     id="right-knee"
     d="m 231.9486,1397.2908 c -23.51509,1.2939 -18.92798,21.0159 -39.18385,16.7262 -0.77377,17.3545 -2.76912,59.0139 -2.83707,61.3794 -0.28133,11.6243 -0.27677,15.666 0.75362,29.4065 15.73673,-2.4553 13.90987,23.3697 40.75464,23.0755 26.19759,-0.2871 31.15431,-45.0594 83.83196,-44.6841 -3.76283,-23.2293 -6.89022,-47.7877 -5.06834,-63.0445 0.15537,-1.3222 0.37651,-3.9621 0.58125,-5.8218 -53.25519,17.8276 -57.7386,-18.198 -78.83221,-17.0372 z"
  />
  <path
     id="right-shin"
     d="m 315.37456,1482.8683 c -54.72532,2.1169 -56.90876,43.4597 -83.37493,44.8356 -28.14721,1.4633 -24.88421,-25.2957 -41.4068,-22.8325 3.71694,48.5507 14.36178,113.8199 17.71923,132.14 5.5416,29.6592 39.336,126.6967 34.8,175.7719 l 0.16876,4.425 c 0.0573,1.5249 0.58112,4.6096 1.02746,6.9753 3.25085,3.4113 13.83321,9.624 27.11581,8.486 16.04991,-1.3751 27.47232,-3.2334 36.3315,-9.228 0.99312,-8.4096 -6.53338,-33.5244 -4.09978,-51.5052 0.78336,-5.2848 -0.0807,-10.8308 0.70312,-16.1156 0.77712,-5.4432 13.24556,-117.6813 16.02188,-139.6125 2.75712,-22.4256 4.69051,-44.9813 4.32187,-67.7813 -0.20371,-14.4518 -5.15217,-39.9121 -9.32812,-65.5594 z"
  />
  <path
     id="right-foot"
     d="m 244.64018,1824.0246 c -0.11241,0.059 -0.22526,0.1185 -0.33748,0.1781 0.43608,2.1927 0.94102,4.4713 1.45312,6.3656 1.51248,5.3616 1.1168,8.0053 -0.99375,12.8437 -3.61632,8.3424 -9.90553,15.3077 -13.50937,23.9813 -3.30144,8.0016 -7.77831,15.226 -12.24375,22.7812 -2.6136,4.5312 -4.31217,7.2171 -8.44688,10.4907 -3.49344,2.9232 -7.63819,6.0376 -10.62187,9.4312 -3.29904,3.7344 -5.04507,9.5415 -4.36875,14.4375 0.68208,5.064 5.33674,11.1264 9.21562,5.4 3.10512,4.152 5.74167,4.5429 9.54375,1.1156 0.57072,2.1121 1.78494,4.035 4.0875,4.275 2.6352,0.3936 3.52721,-1.934 5.65313,-2.0156 0.29952,3.6 6.34561,7.302 9.45937,7.35 2.45952,0.072 4.34283,-1.9621 6.46875,-2.0437 1.96272,-0.072 3.4991,1.5082 5.18438,2.7562 8.41296,5.9184 16.4778,6.9285 26.325,3.1125 9.1992,-3.6288 11.42445,-14.0575 12.58125,-22.4719 0.65088,-4.4544 -0.38636,-10.1559 0.91875,-14.6343 1.60128,-5.3136 4.70355,-5.5901 9.91875,-6.2813 17.45184,-1.9728 11.685,-28.9999 11.18437,-42.2719 -0.15456,-4.0992 -0.30912,-8.2041 0.1969,-12.1593 0.47266,-3.0888 3.39661,-8.5566 1.81844,-23.459 -10.89497,6.9791 -24.72058,9.2959 -37.49164,9.6626 -11.33226,0.3255 -22.78365,-4.9805 -25.99559,-8.8442 z"
  />
  <path
     id="left-groin"
     d="m 393.35581,889.74018 c -10.70991,4.2909 -26.04848,9.3018 -58.09688,7.4437 -2.11494,19.9668 -1.3464,28.3905 -0.0937,56.7751 1.78793,5.8924 2.03936,37.9418 4.13437,43.1156 0.10935,0.3369 0.24096,0.6501 0.37503,0.9656 1.03957,-0.1435 2.24932,-0.1905 3.89062,-0.1123 4.05264,7.56002 4.05342,7.56062 6.7875,10.57502 2.7408,3.1776 5.64669,6.1919 8.38125,9.2063 3.75888,4.128 6.89451,4.8285 8.72813,10.0125 1.6387,4.368 15.21717,39.8857 24.87164,59.3076 0.69224,1.8453 26.96099,-23.65 36.34924,-28.6923 3.23242,-14.8366 -0.11808,-41.8108 6.34149,-67.09412 8.56849,-33.5377 14.52116,-60.918 24.54702,-88.6775 0.3552,-0.9259 0.70233,-1.8584 1.05936,-2.7844 -23.45809,-2.6305 -47.36962,-6.2862 -67.275,-10.0406 z"
  />
  <path
     id="left-hipJoint"
     d="m 461.23079,899.84638 c -0.37488,0.9724 -0.73339,1.9527 -1.10621,2.9251 -9.20645,23.8975 -14.14728,46.679 -20.77603,71.5617 -7.04846,26.45802 -7.73733,39.16942 -10.73861,84.03612 13.90608,-7.0021 19.08499,-10.6637 19.60709,-9.4387 25.97789,-13.2844 16.49381,-4.1074 50.64504,-21.7529 24.61872,-12.7202 53.77752,-28.68042 70.35936,-57.01872 -2.35915,-8.6239 -5.13912,-18.9145 -5.69064,-20.4094 -3.4608,-9.2254 -10.12565,-38.3521 -11.29685,-43.3969 -0.3096,-1.4381 -0.88963,-4.3568 -1.21877,-5.775 -16.86038,4.919 -52.69747,3.4007 -89.78438,-0.7313 z"
  />
  <path
     id="left-thigh"
     d="m 569.15581,970.03708 c -17.3412,30.34032 -50.16869,47.06692 -79.63123,61.48132 -39.23822,15.4226 -66.11055,24.9342 -96.64427,56.0092 5.43703,12.426 5.76274,15.2888 10.04704,23.8316 10.45392,20.9376 13.25222,31.0459 24.17846,51.4747 9.68832,18.0144 18.77707,37.5347 27.01877,56.2595 4.4736,10.008 47.10552,111.1345 50.26872,121.1905 0.83064,2.3251 6.2593,24.3929 9.92558,38.9472 27.18634,-2.3279 30.44626,-0.2765 55.27901,-7.8119 30.98813,-9.403 14.58063,-42.1552 35.67041,-49.2506 24.2022,-8.1427 21.13308,14.9733 27.59916,14.3248 -7.31718,-17.5677 -12.86772,-48.901 -13.91166,-63.7188 -9.6894,-147.3812 -39.368,-265.7702 -49.79999,-302.73752 z"
  />
  <path
     id="left-knee"
     d="m 617.13582,1320.9504 c -12.75738,-1.1152 -23.1389,3.0455 -26.30993,27.1706 -4.05283,30.8343 -51.56429,28.6825 -76.61697,30.9005 1.0152,4.0031 2.08915,8.5738 2.7,10.6781 2.64,9.2544 7.55587,18.0954 11.97187,26.625 1.32077,2.6745 4.42104,10.3025 7.51017,16.9085 72.88582,-13.7961 80.1775,12.6562 102.8836,8.4131 18.54312,-3.4652 7.62702,-10.1671 16.99074,-23.2508 -4.68804,-13.9012 -7.88706,-22.1183 -9.95322,-28.3303 -1.6416,-4.536 -2.67204,-10.0706 -3.66564,-14.7938 -0.5904,-2.6016 -0.53076,-5.3907 -1.28436,-7.9875 -0.5904,-2.6016 -6.07746,-26.5239 -7.17186,-29.4375 -8.53128,-1.8471 -3.4803,-15.7094 -17.0544,-16.8959 z"
  />
  <path
     id="left-shin"
     d="m 655.84662,1417.6398 c -6.09558,11.9237 0.1272,21.143 -18.32364,24.616 -22.79358,4.2905 -26.84964,-24.543 -100.38278,-8.531 1.98979,4.2891 4.1352,8.8852 4.76246,10.6687 7.9296,23.5008 8.71046,53.0124 10.26566,63.9468 1.5264,9.9552 3.06096,20.0727 4.25626,30.0375 5.60146,44.2656 58.87026,175.6758 69.27186,199.575 6.63462,15.1875 22.84266,58.8453 29.57622,78.9499 16.88466,5.4715 28.28826,6.7366 43.17996,5.3132 12.94524,-1.2372 20.65272,-10.1485 24.37578,-9.5117 -3.05958,-10.6162 -11.36376,-32.8618 -13.85388,-60.0044 -16.42542,-192.2161 -8.99922,-203.6553 -32.23122,-272.3625 -12.39756,-36.7443 -18.12792,-55.8854 -20.89668,-62.6975 z"
  />
  <path
     id="left-foot"
     d="m 655.22766,1817.0589 c 1.42368,4.2915 2.53722,7.802 2.79378,9.122 1.8336,9.6144 4.46262,18.5314 4.85622,28.8562 0.3888,10.3248 -0.16896,21.6803 1.8375,31.4531 1.9872,9.2784 3.16842,18.7455 12.38442,24.1407 3.8544,2.3184 9.88932,1.762 14.34372,2.578 5.112,0.9552 10.818,0.2448 16.05,0.048 9.9792,-0.3744 20.7518,-5.8615 29.5313,1.0313 6.4128,5.0112 12.5888,12.483 18.0656,18.675 7.1904,8.2656 15.2851,10.26 25.5187,7.9032 1.9488,-0.4032 3.5503,-1.2834 5.6719,-1.5282 l 2.6906,1.8657 c 2.472,0.3984 4.5088,2.2953 7.1344,2.3625 2.6208,0.067 5.0482,-0.6829 7.6594,-0.9469 5.2224,-0.5232 10.2373,-2.3624 15.0469,-5.1656 1.1184,-0.7008 1.0766,-1.6823 2.5406,-1.9032 1.9488,-0.3984 2.9992,1.2062 4.6312,1.1438 3.2736,-0.12 4.0092,-2.2894 5.55,-4.8094 0.7728,-1.176 0.7513,-1.8276 1.6969,-2.85 0.7872,-0.8496 1.7864,-0.4027 2.5688,-1.4156 1.56,-2.0256 0.7015,-3.1439 0.7687,-5.6063 3.6864,2.1552 4.6239,-3.4516 3.3375,-7.1812 -0.9264,-2.7552 -4.1372,-5.2588 -6.0188,-7.4813 -4.464,-5.4143 -10.6594,-9.1218 -17.4562,-11.325 -7.128,-2.1936 -13.9956,-1.777 -20.25,-6.9562 -5.4096,-4.392 -29.7757,-29.3914 -36.9469,-37.1626 -2.904,-3.1728 -6.2835,-6.0052 -9.1875,-9.178 -3.138,-3.3748 -23.4051,-19.5857 -27.3094,-29.9063 -3.93496,-0.683 -15.69538,10.4392 -31.65544,10.1906 -15.50058,-0.2414 -22.2873,-2.0346 -35.8539,-5.9543 z"
  />
</svg>
