<svg
   version="1.1"
   viewBox="0 0 827 1891"
   xmlns="http://www.w3.org/2000/svg"
   xmlns:svg="http://www.w3.org/2000/svg">
  <defs id="defs1002" />
  <path
       id="base"
       d="m 353.67,45.689962 c 9.12,-3.08 18.9,-3.85 28.42,-2.51 11.81,0.4 22.75,5.43 33.26,10.38 14.36,7.96 28.1,19.15 34.33,34.79 5.43,12.799998 5.8,26.949998 5.87,40.649998 -0.11,10.42 -0.41,20.88 -1.98,31.2 3.86,1.04 7.64,3.11 9.3,6.95 2.11,5.4 2.74,11.41 1.73,17.12 -0.81,8.06 -1.95,16.21 -5.34,23.65 -0.31,0.35 -0.93,1.05 -1.24,1.41 -4.13,6.35 -8.55,13.14 -15.43,16.79 -0.56,8.96 0.37,17.91 0.71,26.85 0.08,10.73 1.35,21.39 1.87,32.1 -0.18,5.15 3.24,9.56 6.76,12.94 18.13,11.07 36.96,20.98 54.96,32.27 7.31,4.73 15.2,8.42 23.21,11.78 4.51,2.11 9.51,3.41 13.36,6.7 4.96,3.96 9.48,8.44 13.68,13.2 7.07,7.92 16.75,12.69 25.56,18.35 5.9,2.84 9.74,8.25 14.12,12.88 2.82,3.21 6.2,6.08 7.86,10.13 3.26,7.3 7.32,14.25 10.2,21.7 2.99,13.25 6.06,26.5 8.04,39.94 0.7,4.75 1.58,9.48 3.11,14.05 3.83,11.91 6.04,24.5 4.86,37.03 0.08,4.8 -1.35,10.15 1.53,14.43 6.39,11.02 12.51,22.2 18.93,33.21 4.07,6.82 6.97,14.25 10.65,21.29 4.31,8.08 5.2,17.79 11.05,25.06 8.15,10.96 14.92,22.84 22.64,34.09 3.44,5.89 7.76,11.26 10.49,17.56 3.05,5.64 4.9,11.79 7.41,17.67 2.14,5.1 3.0699,10.59 5.02,15.75 2.8,8.72 7.14,16.87 9.31,25.8 2.63,7.86 3.94,16.05 6.05,24.05 2.44,8.91 3.38,18.14 5.47,27.13 6,25.01 10.55,50.35 16.47,75.38 2.71,10.88 5.4301,21.88 10.62,31.9 2.9399,5.52 5.4,11.35 6.47,17.54 1.45,7.8 5.09,15.01 6.22,22.89 3.47,22.98 12.14,44.69 20.78,66.13 2.06,4.95 2.74,10.36 4.84,15.32004 2.53,6.3 1.39,13.18 1.56,19.79 -0.09,5.02 0.29,10.03 0.65,15.04 0.14,5.0801 -2.65,9.53 -5.27,13.67 0.28,5.8101 -3.45,10.48 -5.84,15.44 -3.27,6 -4.86,12.77 -8.37,18.65 -2.14,3.78 -6.34,5.52 -9.86,7.75 -1.92,3.87 -3.58,7.99 -6.54,11.23 -2.75,-1.28 -5.19,-3.1101 -7.77,-4.66 -2.06,-1.24 -2.2401,-4.03 -1.71,-6.12 1.29,-5.3301 4.79,-9.8 6.14,-15.11 0.81,-4.9801 1.52,-9.9801 1.65,-15.03 0.06,-4.76 2.5,-9.49 0.75,-14.19 -1.88,-6.2999 -1.28,-12.99 -2.73,-19.34 -2.76,-5.99 -5.37,-12.12 -6.35,-18.7 -1.97,-2.4 -3.91,-4.83 -5.81,-7.2599 -3.36,-0.22 -6.77,-0.42 -10.09,0.28 -1.56,2.02 -0.35,4.79 -0.12,7.1 2.25,9.59 2.11,19.78 -0.97,29.18 -0.7599,4.3101 -5.41,6.16 -9.1299,7.26 -2.19,0.73 -4.32,-0.71 -5.19,-2.6599 -4.86,-11.57 -6.89,-24.15 -7.13,-36.64 -0.32,-11.53004 -4.83,-22.43004 -5.04,-33.95004 -0.49,-11.74 3.34,-23.09 7.53,-33.88 4.55,-9.23 4.14,-19.94 2.6,-29.84 -2.72,-15.25 -8.69,-29.64 -13.85,-44.16 -8.76,-21.06 -20.21,-40.85 -31.25,-60.76 -8.34,-15 -16.7,-29.99 -24.93,-45.05 -6.05,-11.41 -12.72,-22.53 -17.27,-34.66 -4.23,-10.18 -7.35,-20.79 -9.86,-31.51 -5.95,-20.99 -20.6,-37.64 -32.06,-55.72 -3.4,-5.6 -7.87,-10.57 -10.29,-16.71 -2.47,-6.2 -6.33,-11.69 -9.24,-17.66 -8.71,-20.34 -16.91,-40.9 -24.45,-61.71 -1.2,-2.8 -1.65,-6.22 -4.38,-8.02 -0.56,4.61 -0.8,9.25 -1.64,13.83 -0.89,4.96 2.74,10.04 0.15,14.77 -2.14,4.8 -4.09,9.69 -6.48,14.37 -6.31,10.25 -12.01,21.22 -14.04,33.21 -2.27,13.33 -5.64,26.43 -8.9901,39.52 -1.17,6.19 -3.99,11.89 -5.4399,18.02 -1.79,7.21 -4.19,14.45 -3.98,21.97 0.96,11.09 2.72,22.09 5.11,32.96 2.4901,11.3 5.72,22.49 6.9301,34.04 0.77,6.02 -0.86,12.08 0.3,18.08 3,17.72 10.69,34.25 13.9,51.92 1.7401,8.59 0.76,17.37 1.13,26.06 -0.23,17.32 0.85,34.61 1.78,51.9 0.36,6.07 0,12.22 1.07,18.24 1.65,7.09 4.1,13.98 5.62,21.11 1.49,9.17 3.22,18.36 2.9,27.71 -0.05,26.74 -0.87,53.51004 -3.41,80.14004 -1.03,13.31 -2.12,26.61 -3.36,39.91 -1.09,9.99 -2.76,19.92 -3.24,29.97 -1.67,24.4 -4.13,48.74 -7.63,72.94 -2.25,15.96 -4.05,31.99 -5.28,48.06 -0.21,11.02 -1.38,22 -1.86,33.02 0.15,13.65 0.18,27.32 -0.41,40.97 -0.7,12.02 -3.14,24.14 -0.93,36.14 1.32,8.63 5.03,16.61 7.59,24.91 6.13,20.54 10.98,41.58 12.37,63.04 1.14,17.73 2.05,36.01 -3.16,53.23 -6.08,12.02 -7.12,25.66 -10.59,38.52 -7.32,35.29 -15.96,70.28 -25.12,105.13 -3.07,12.82 -7.26,25.73 -6.28,39.08 -0.05,6.0499 4.22,10.78 6.66,16.01 4.17,8.76 8.89,17.24 12.99,26.03 2.36,5.7101 4.98,11.6 4.49,17.94 0.5,9.98 -5.07,18.81 -10.75,26.53 -4.16,5.9601 -9.2,11.82 -10.3,19.27 -1.63,9.14 -6.72,17.09 -9.87,25.72 -2.17,6.3799 -7.5,10.8 -11.69,15.83 -1.23,0.4399 -2.46,0.9399 -3.68,1.4299 -2.68,4.6001 -5.72,9.3401 -10.49,12.01 -2.75,1.63 -6.02,0.3201 -8.8,-0.5199 -0.2,-0.76 -0.62,-2.27 -0.82,-3.03 -3.13,2.73 -4.1,7.64 -8.59,8.72 l 0.11,0.8199 c -3.64,-0.2999 -7.49,-1.2599 -8.89,-5.0399 -2.17,4.12 -5.38,8.7999 -10.59,8.78 -3.2,0.48 -5.43,-2.1001 -7.94,-3.53 -2.2,1.9 -4.24,4.3199 -7.24,4.9099 -5.41,1.13 -12.92,-0.49 -14.07,-6.84 -3.82,2.27 -8.26,4.1901 -12.78,3.12 -4.73,-1.33 -8.62,-4.95 -10.88,-9.24 -1.72,-4.6799 -1.1,-10.08 1.52,-14.3 2.08,-4.3401 5.76,-7.6101 8.11,-11.75 1.41,-6.12 1.04,-12.72 3.8,-18.48 3.85,-7.46 10.94,-12.46 15.35,-19.54 5.34,-7.5601 9.28,-16 11.97,-24.84 3.97,-11.36 8.91,-22.37 13.92,-33.3 5.59,-11.51 3.12,-24.79 6.07,-36.91 2.82,-7.3199 4.91,-14.98 5.44,-22.83 2.41,-37.92 4.64,-76.2 -0.83,-113.96 -1.83,-12.3 -3.45,-24.63 -5.04,-36.95 -0.74,-6.52 -4.2,-12.49 -4.11,-19.12 -0.16,-10.99 -0.72,-21.97 -0.41,-32.96 0.13,-6.7101 1.89,-13.28 1.74,-20.01 -0.01,-11.37 0.52,-23.2 -3.78,-33.96 -5.79,-14.95 -10.59,-30.33 -13.63,-46.07 -1.37,-5.34 -0.83,-11.31 -3.98,-16.06 -6.12,-9.23 -9.04,-20.12 -11.15,-30.87 -3.71,-18.8 -5.26,-37.99 -5.36,-57.14 -0.24,-17.96 -0.68,-35.94 0.11,-53.9 0.44,-10.85 0.08,-21.73 1.04,-32.56 1.11,-14.8 0.96,-29.66 2.07,-44.46 0.14,-5.71 1.03,-11.39 0.76,-17.09 -1.98,-12.14 -2.04,-24.5 -3.85,-36.66 -0.89,-8.03 -1.31,-16.1 -2.46,-24.1 -1.32,-16.34 -1.86,-32.73 -1.73,-49.12004 0.28,-7.02 1.8,-13.95 1.83,-20.98 -0.42,-0.86 -1.26,-2.59 -1.68,-3.45 -2.86,6.07 -3.02,12.9 -4.62,19.34 -3.65,14.5 -4.87,29.46004 -7.8,44.11004 -5.4,27.14 -12.76,53.84 -19.6,80.65 -5.6,21.52 -10.93,43.13 -17.47,64.39 -2.03,7.1801 -4.05,14.37 -6.8,21.32 -4.85,13.02 -5.93,26.95 -7.65,40.62 -2.51,21.48 -4.9,43.15 -11.14,63.94 -3.31,10.74 -1.45,22.32 -4.74,33.07 -0.96,4.58 -3.37,9.0499 -2.56,13.85 1.98,17.35 9.98,33.16 14.75,49.8 4.81,15.57 7.27,31.73 9.47,47.84 1.06,10.1 2.28,20.39 0.35,30.48 -1.94,10.39 -8.12,19.53 -9.68,30 0.21,40.11 -2.3,80.56 4.1,120.36 0.99,7.26 3.65,14.11 5.95,21.04 2.25,6.59 3.44,13.52 6.28,19.92 1.05,2.1 0.44,4.4701 0.11,6.7001 -1.07,5.62 -2.88,11.08 -4.19,16.66 -0.8,2.76 0.35,5.52 0.8,8.25 2.31,10.89 -1.54,22.04 -7.05,31.36 -2.61,4.0499 -6.29,7.36 -8.22,11.86 -4.43,9.2799 -10.71,17.52 -15.23,26.76 -2.8,5.47 -3.2,11.76 -5.64,17.37 -2.07,4.62 -6.11,7.8999 -9.74,11.29 -4.25,3.9701 -10.34,4.41 -15.63,6.1901 -0.42,3.36 -0.88,7.11 -3.65,9.45 -5.45,4.96 -12.83,7.9 -20.2,8.1 -5.14,0.06 -9.86,-2.86 -12.32,-7.33 -2.67,1.38 -5.5,3 -8.63,2.54 -4.61,-0.2101 -8.42,-3.4301 -10.24,-7.51 -2,-0.8301 -4.33,-1.3 -5.83,-2.9601 -1.36,-1.88 -1.92,-4.1899 -2.71,-6.3099 -1.58,-0.91 -3.27,-1.6801 -4.57,-2.96 -1.48,-2.6901 -0.11,-7.24 -4.01,-7.91 -3.39,-6.67 -1.44,-14.4 1.37,-20.88 1.17,-4.22 5.82,-5.46 8.7,-8.2 3.54,-2.8201 4.37,-7.5701 7.17,-10.92 3.46,-3.23 7.71,-5.5 11.02,-8.9 4.12,-4.23 7.78,-8.89 12.15,-12.87 5.91,-5.5 12.07,-10.99 16.01,-18.15 3.52,-6.2999 7.54,-12.28 11.36,-18.39 3.75,-5.7799 3.85,-12.94 3.83,-19.58 -0.29,-5.63 3.33,-10.48 3.75,-16.01 0.53,-9.45 -2.33,-18.58 -5.37,-27.39 -6.93,-19.48 -14.8,-38.59 -22.48,-57.77 -8.89,-22.09 -17.04,-44.47 -24.72,-67 -3.47,-9.1799 -5.26,-18.86 -7.83,-28.3 -2.51,-9.38 -4.64,-18.86 -6.27,-28.44 -5.03,-24.29 -6.54,-49.46 -2.88,-74.06 1.64,-14.77 4.41,-29.37 6.47,-44.07 0.99,-6.9099 1.34,-13.91 0.79,-20.87 -0.95,-16.96 -1.51,-33.96 0.09,-50.91 1.04,-7.91 -0.35,-15.82 -1.13,-23.68 -4.03,-26.53 -8.35,-53.03 -10.94,-79.74 -2.93,-31.3 -3.96,-62.83 -1.84,-94.21 2.08,-36.74 6.18,-73.43004 13.81,-109.46004 2.87,-16.6 5.83,-33.25 6.61,-50.1 0.34,-18.5 1.22,-37.26 6.39,-55.13 2.7,-8.13 5.87,-16.1 8.53,-24.25 1.87,-6.76 2.5,-13.77 3.28,-20.72 0.75,-6.28 3.65,-12.04 4.98,-18.18 -0.37,-3.43 -2.36,-6.45 -3.03,-9.82 -1.7,-10.25 -1.14,-20.71 0.41,-30.93 1.84,-10.64 4.51,-21.15 5.62,-31.91 1.05,-8.31 1.84,-16.66 2.56,-25 0.26,-3.04 0.19,-6.13 -0.45,-9.11 -3.99,-15.03 -7.53,-30.2 -10.39,-45.49 -0.82,-3.54 -1.32,-7.19 -2.58,-10.61 -2.01,0.23 -2.82,2.3799 -4.04,3.73 -2.89,4.18 -6.81,7.8 -8.38,12.77 -3.26,9.24 -5.53,18.8 -9.16,27.92 -2.14,7.65 -4.4,15.28 -6.76,22.87 -6.25,17.23 -14.14,33.88 -23.64,49.55 -10.73,17.43 -22.24,34.37 -33.71,51.32 -11.09,16.36 -22.67,32.45 -32.2,49.8 -4.33,7.93 -9.25,15.58 -13.02,23.8 -2.21,4.3 0.42,8.92 0.28,13.41 0.02,9.02 -3.67,17.51 -7.8,25.35 -1.92,3.65 -2.17,7.86 -3.44,11.74 -2.84,8.9301 -7.69,17.12 -13.56,24.39 -4.09,4.88 -6.65,10.83 -8.86,16.75 -0.75,1.18 0.29,2.33 0.78,3.39 1.42,2.32 2.66,4.75 4.14,7.05 2.25,3.01 5.56,5.02 7.87,7.99 2.25,2.77 3.25,6.26 4.35,9.59 -1,1.55 -2.06,3.07 -3.14,4.58 -7.45,-4.59 -13.82,-10.74 -19.8,-17.08 -1.67,0.71 -2.75,2.16 -3.83,3.55 2.73,5.13 5.48,10.31 7.05,15.95 4.24,2.99 9.44,5 12.36,9.51 1.64,2.49 3.19,5.26 3.33,8.31004 -0.36,1.88 -1.8,3.31 -2.81,4.88 -5.95,-0.31 -9.97,-5.05 -14.42,-8.35004 -3.66,-2.83 -8.15,-5.06 -10.24,-9.41 -2.5,-4.79 -5.57,-9.24 -8.24,-13.92 -1.71,-0.1201 -3.42,-0.25 -5.13,-0.34 4.72,6.94 7.1,15.12 8.02,23.4 6.24,5.05004 13.19,10.43004 15.27,18.62004 0.91,2.6 -0.96,4.96 -1.93,7.2599 -5.54,-0.9 -9.49,-5.1 -13.76,-8.33 -3.85,-3.07 -8.21,-5.88 -10.55,-10.38 -2.35,-3.96 -3.15,-8.59004 -5.39,-12.58004 -0.61,-0.39 -1.84,-1.16 -2.45,-1.55 -2.13,6.73 2.82,12.92004 1.85,19.68004 -0.25,4.83 -1.59,11.97 -7.78,11.87 -1.75,-3.85 -3.55,-7.72 -4.49,-11.85 -1,-4.71 -3.34,-9.14 -3.31,-14.03004 0.05,-3.35 0.44,-6.69 0.33,-10.03 0.02,-4.71 -1.08,-9.5 0.29,-14.12 3.31,-11.74 5.11,-23.84 6.19,-35.97 0.28,-2.81 1.62,-5.34 2.87,-7.81 5.23,-9.96 10,-20.15 15.34,-30.05 8.1,-14.63 12.91,-30.72 18.81,-46.29 4.49,-10.78 8.84,-21.61 13.42,-32.35 6.35,-15.01 11.62,-30.47 15.9,-46.19 6.58,-21.56 9.28,-44.07 15.51,-65.72 1.71,-9.56 3.13,-19.19 5.47,-28.63 3.83,-11.04 7.27,-22.29 12.97,-32.57 7.24,-16.11 17.96,-30.29 26.92,-45.44 0.13,-3.83 0.73,-7.6 1.56,-11.32 1.58,-9.22 2.81,-18.56 5.68,-27.49 3.96,-13.46 9.17,-26.51 14.04,-39.66 0.97,-2.99 2.55,-6.0699 1.79,-9.28 -1.9,-10.02 -5.21,-19.8 -5.78,-30.04 -0.75,-9.4 1.17,-18.71 1.15,-28.11 0.09,-10.7 1.25,-21.35 2.06,-32 0.54,-6.97 3.31,-13.45 5.26,-20.08 1.57,-4.6 2.33,-9.65 5.49,-13.52 3.45,-4.48 6.33,-9.43 10.12,-13.63 6.94,-5.54 14.07,-11.19 22.59,-14.06 6.86,-1.82 14.52,-3.55 19.31,-9.21 2.96,-3.17 6.73,-5.38 10.36,-7.69 4.81,-2.92 9.4,-6.38 14.86,-8.05 6.44,-2.48 13.46,-3.83 19.18,-7.88 4.99,-3.29 9.9,-6.71 14.89,-10 8.97,-5.51 18.37,-10.31 27.01,-16.36 -0.46,-2.24 -0.89,-4.48 -1.33,-6.71 -2.88,-1.35 -5.83,-2.79 -7.97,-5.22 -5.38,-5.95 -7.8,-13.75 -11.06,-20.91 -3.82,-6.45 -7.52,-13.15 -9.11,-20.56 -2.38,-9.93 -2.94,-20.15 -4.44,-30.21 -1.05,-7.36 -4.28,-14.28 -4.51,-21.77 -0.6,-10.72 1.19,-21.43 0.43,-32.15 -0.73,-8.78 2.88,-17.25 1.9,-26.03 -0.33,-14.61 -1.31,-30.26 5.97,-43.519998 9.1,-16.7 22.43,-31.39 39.13,-40.7 6.7197,-3.5597 13.4,-7.4197 20.91,-9.0297 z"
    />
  <path
       id="skull"
       d="m 367.73047,42.777344 c -4.775,0.41 -9.50055,1.372109 -14.06055,2.912109 v 0.002 c -7.51,1.61 -14.19045,5.469597 -20.91015,9.029297 -16.7,9.31 -30.02891,23.999219 -39.12891,40.699219 -6.49101,11.822921 -6.26795,19.501681 -5.94141,32.693361 15.6043,2.40376 31.25185,11.80004 45.83789,12.3457 29.30077,-0.53003 61.09461,-4.66338 85.33985,-10.66406 2.93597,-0.59719 5.51794,-1.39213 8.14453,-1.81836 10.4196,17.50455 5.3557,46.5839 3.82226,62.90235 0.0987,14.14958 -1.13686,30.23437 5.42774,42.0957 3.57072,3.58241 4.26463,9.16822 6.64258,12.33008 -0.36242,-6.39026 -0.71448,-12.78509 -0.31446,-19.18555 6.88,-3.65 11.29969,-10.43906 15.42969,-16.78906 0.31,-0.36 0.93024,-1.06016 1.24024,-1.41016 3.39,-7.44 4.52984,-15.59039 5.33984,-23.65039 1.01,-5.71 0.37953,-11.71914 -1.73047,-17.11914 -1.66,-3.84 -5.43883,-5.91117 -9.29883,-6.95117 1.57,-10.32 1.87047,-20.77922 1.98047,-31.19922 -0.07,-13.7 -0.44109,-27.85039 -5.87109,-40.650394 -6.23,-15.64 -19.97008,-26.829062 -34.33008,-34.789062 -10.51,-4.95 -21.44977,-9.98086 -33.25977,-10.380859 -4.76,-0.670001 -9.58437,-0.812344 -14.35937,-0.402344 z"
    />
  <path
       id="right-eye"
       d="m 292.97686,166.16167 c -6.4756,2.75478 -5.18881,12.58323 -2.77896,22.22061 3.02531,12.09868 16.68661,17.38765 28.42522,11.45189 7.7997,-3.94401 4.14073,-6.47368 9.40554,-21.25137 1.99243,-5.59253 -7.0681,-9.86959 -13.55089,-10.20915 -8.58326,-0.44959 -15.15519,-4.9115 -21.50091,-2.21198 z"
    />
  <path
       id="left-eye"
       d="m 386.36969,170.37401 c 7.80611,0.8501 7.1138,13.44315 4.20801,23.18797 -4.41399,14.80274 -22.85561,15.26541 -35.83125,11.37971 -9.29464,-2.78338 -4.97711,-7.75651 -10.94241,-22.76123 -2.25752,-5.67846 8.36082,-11.82336 15.69976,-11.36215 10.086,0.63385 19.67586,-1.2273 26.86589,-0.4443 z"
    />
  <path
       id="face"
       d="m 287.68945,128.11328 c 0.0343,1.35474 -0.0596,3.48628 -0.0293,4.82617 0.98,8.78 -2.63039,23.25125 -1.90039,32.03125 0.76,10.72 -1.02969,21.43039 -0.42969,32.15039 0.23,7.49 3.45976,14.40954 4.50976,21.76953 1.5,10.06003 2.05946,20.27899 4.43946,30.20899 1.59,7.41 5.29135,14.11055 9.11132,20.56055 3.26,7.16 5.68055,14.96015 11.06055,20.91015 3.69355,3.49513 3.99575,3.20272 7.96875,5.22071 8.0034,5.67543 14.68997,7.13449 24.19727,7.13476 10.58565,1.1016 21.22823,-5.40398 29.6875,-9.79883 15.38589,-7.17489 28.98145,-12.25118 37.31836,-20.65039 11.14928,-15.30632 16.22749,-31.8261 19.49023,-48.35547 -2.67404,-10.48676 -2.15681,-22.13193 -2.06445,-33.34765 0.98696,-11.94678 6.32612,-49.39492 -4.29297,-62.61914 -28.6241,8.1834 -75.01419,11.75054 -93.27539,12.28906 -15.78489,-0.81849 -31.3728,-9.7391 -45.79102,-12.33008 z m 10.11719,37.19141 c 4.9278,0.13712 10.23443,2.73116 16.67188,3.06836 6.48279,0.33956 15.54321,4.61645 13.55078,10.20898 -5.26481,14.77769 -1.60655,17.30794 -9.40625,21.25195 -11.73861,5.93576 -25.40047,0.64751 -28.42578,-11.45117 -2.40985,-9.63738 -3.69631,-19.46592 2.77929,-22.2207 1.58643,-0.67488 3.18748,-0.90313 4.83008,-0.85742 z m 84.27734,4.87304 c 1.50432,-0.005 2.93703,0.0485 4.28516,0.19532 7.80611,0.8501 7.11478,13.44463 4.20898,23.18945 -4.41399,14.80274 -22.85639,15.26461 -35.83203,11.37891 -9.29464,-2.78338 -4.9761,-7.757 -10.9414,-22.76172 -2.25752,-5.67846 8.36028,-11.82254 15.69922,-11.36133 8.19487,0.515 16.06135,-0.61797 22.58007,-0.64063 z" />
  <path
       id="neck"
       d="m 433.31641,224.68164 c 0.002,0.0788 6.4e-4,0.15771 0.004,0.23633 0.16721,1.58498 -1.11431,2.92372 -1.44204,4.32574 -2.28371,14.0558 -10.14515,33.31602 -18.47089,43.36737 -9.02515,8.8889 -20.35058,11.98592 -28.79417,16.84493 -13.07494,4.93787 -27.16256,17.1638 -46.76251,12.81281 -6.90767,-1.36706 -8.25651,-2.39354 -15.08503,-6.19918 0.30186,1.54131 0.66708,4.88545 0.98433,6.43034 -0.55866,0.39119 -1.16577,0.70272 -1.73047,1.08398 h 0.084 c -1.20469,18.85773 7.40446,33.22748 17.12109,40.11524 18.81456,17.00119 42.80111,17.26489 65.08398,8.57422 25.06376,-11.49963 41.19724,-25.26248 49.67579,-49.61133 0.33985,-0.95778 0.54825,-1.96324 0.96289,-2.89258 -0.99763,-0.60017 -2.02391,-1.15304 -3.01758,-1.75976 -3.52,-3.38 -6.93977,-7.78946 -6.75977,-12.93946 -0.52,-10.71 -1.78914,-21.36961 -1.86914,-32.09961 -0.0812,-2.13413 -0.41113,-5.6909 -0.53125,-7.82617 -2.08476,-4.06826 -4.07285,-8.62164 -6.43359,-12.07617 -1.36296,-2.66099 -2.24756,-5.50424 -3.01953,-8.38672 z"
    />
  <path
       id="right-chest"
       d="m 322.24905,303.18688 c -7.48517,6.11665 -17.27859,10.61687 -25.50882,15.6725 -4.99,3.29 -9.90062,6.70996 -14.89062,10 -5.72,4.05 -12.73969,5.40085 -19.17969,7.88085 -5.46,1.67 -10.04937,5.13079 -14.85937,8.05079 -2.69036,1.71204 -6.38815,4.07227 -8.84539,6.10584 -5.96498,14.59809 -10.83423,39.03254 -14.61468,57.00104 -11.70652,30.29398 -13.91763,69.93351 -13.93435,103.63165 -0.27111,4.06122 0.34461,7.66819 0.94116,11.66235 4.88345,18.43138 10.65992,34.69187 16.89228,50.73168 5.79202,18.23745 7.50714,37.62691 10.98678,51.34986 0.0135,0.0593 0.0292,0.11846 0.043,0.17773 2.41428,12.90712 5.70858,26.99449 8.95378,39.71817 17.89681,-18.70325 46.90462,-79.36618 72.48885,-80.29467 21.00853,-0.76243 12.91446,-0.15716 21.61362,-2.17138 3.20948,-58.92789 8.33044,-86.55414 19.36606,-136.05514 9.61699,-29.20596 11.28137,-56.12378 12.14656,-88.88756 -1.47737,-0.0548 -6.52787,-0.30155 -9.12706,-0.846 -10.73126,-3.19988 -15.93519,-4.65126 -25.45778,-13.31328 -14.76689,-14.01699 -18.00209,-21.57665 -17.01433,-40.41443 z"
    />
  <path
       id="left-chest"
       d="m 454.9117,299.97327 c -9.79136,36.26152 -51.15308,59.2012 -80.93926,57.89672 -1.71772,29.96898 -2.17161,57.41135 -12.25955,89.30184 -10.6368,42.88916 -18.16403,98.97022 -18.85742,131.39257 0.002,1.61926 -0.25211,3.13507 -0.6875,4.59961 1.47999,0.36549 2.96571,0.72059 4.3418,1.39453 34.15746,6.59504 39.58679,38.44135 62.16796,66.50586 22.63599,20.13112 57.14717,50.00482 81.15235,48.32422 7.05453,0.17842 14.13769,0.0827 21.18945,-0.39453 -0.43164,-3.33477 -0.92854,-6.66121 -1.21875,-10.01367 -0.21,-7.52 2.18852,-14.7607 3.97852,-21.9707 1.4499,-6.13 4.2714,-11.82954 5.4414,-18.01954 3.3501,-13.09 6.72024,-26.18953 8.99024,-39.51953 2.03,-11.99 7.72906,-22.96093 14.03906,-33.21093 2.39,-4.68 4.34047,-9.56915 6.48047,-14.36915 2.59,-4.73 -1.04039,-9.80953 -0.15039,-14.76953 0.76159,-4.15249 1.23603,-9.6262 1.69696,-13.81027 -1.21726,-4.77115 -1.16532,-4.95527 -1.8454,-6.11123 -15.54163,-26.59 -12.02907,-66.44398 -7.81867,-93.58775 5.00649,-21.25561 12.67437,-43.59236 28.33055,-61.79029 -3.99129,-2.69089 -8.57,-6.24102 -11.80288,-9.86257 -4.19997,-4.76 -8.71968,-9.23921 -13.67968,-13.19921 -3.85,-3.29 -8.85133,-4.58922 -13.36133,-6.69922 -8.01,-3.36 -15.89897,-7.05125 -23.20899,-11.78125 -17.20731,-10.45853 -50.34813,-28.9993 -51.97894,-30.30598 z"
    />
  <path
       id="right-stomach"
       d="m 320.37069,585.01364 c -25.54151,0.96275 -53.95494,60.83864 -71.85866,79.64694 0.50046,1.94841 0.82774,3.93905 1.34375,5.88281 0.64,2.98 0.71117,6.07133 0.45117,9.11133 -0.72,8.34 -1.51054,16.69 -2.56054,25 -1.11,10.76 -3.7811,21.27016 -5.6211,31.91016 l 3.20739,-4.58747 c 0,0 14.5824,-9.97184 25.1819,33.15009 10.5995,43.12193 40.08718,52.39471 44.82278,54.43351 10.61596,4.57044 35.45221,4.94932 35.45221,4.94932 -0.77942,-8.09207 -2.23544,-16.30304 -5.86554,-23.28883 -8.306,-15.98416 -2.79923,-218.30573 -2.79923,-218.30573 -8.24552,1.95893 -1.61132,1.33862 -21.75413,2.09787 z"
    />
  <path
       id="left-stomach"
       d="m 514.99859,721.56341 c -1.66752,-7.58404 -2.89421,-15.24828 -3.89063,-22.94531 -7.05176,0.47723 -14.13492,0.57295 -21.18945,0.39453 -24.00518,1.6806 -58.51636,-28.1931 -81.15235,-48.32422 -22.58117,-28.06451 -28.0105,-59.91082 -62.16796,-66.50586 -1.37609,-0.67394 -2.86181,-1.02904 -4.3418,-1.39453 0.043,-0.14474 0.0602,-0.29757 0.0996,-0.44336 0,0 -6.04585,200.19001 2.47061,218.89686 3.26197,7.16509 5.08612,15.19676 5.86554,23.28883 0,0 21.49431,3.13245 35.10999,-2.4891 14.37674,-5.93577 57.39416,-31.19627 58.77917,-39.17437 1.38501,-7.9781 11.05307,-38.07879 21.01845,-41.38679 9.96538,-3.308 54.33801,1.03048 54.33801,1.03048 z"
    />
  <path
       id="right-shoulder"
       d="m 238.96484,351.19902 c -0.48952,0.44552 -1.05891,0.79423 -1.51367,1.28125 -4.79,5.66 -12.45053,7.38898 -19.31055,9.20898 -8.51999,2.87 -15.64984,8.52055 -22.58984,14.06055 -3.79,4.2 -6.67109,9.15086 -10.12109,13.63086 -3.16,3.87 -3.92024,8.91953 -5.49024,13.51953 -1.95,6.63 -4.71976,13.11008 -5.25976,20.08008 -0.81,10.65 -1.9686,21.3 -2.0586,32 0.02,9.4 -1.90039,18.70937 -1.15039,28.10937 0.57,10.24 3.8793,20.02102 5.7793,30.04102 0.2578,1.02384 0.15201,2.40603 8.92632,5.64206 7.08631,2.61348 12.60257,1.55157 20.12449,0.98385 0.98109,-0.0721 3.33548,-0.30726 4.31733,-0.27636 -0.77043,-22.39304 0.60701,-51.42867 4.12792,-73.33781 0.23324,-1.59404 0.78937,-5.55582 1.12696,-7.30078 0.75433,-3.39374 1.07952,-6.33259 1.90357,-9.39851 1.87323,-6.8352 3.50082,-13.59931 6.23119,-20.44524 1.29684,-6.00778 2.65122,-12.00231 3.76953,-18.04688 0.988,-4.86852 1.86418,-9.77472 3.25782,-14.54687 1.39216,-7.19212 4.3311,-15.08341 7.92971,-25.2051 z"
    />
  <path
       id="left-shoulder"
       d="m 599.19716,536.28102 c 12.53461,-0.9629 23.49243,-0.40596 33.52539,-5.2793 -0.10208,-0.17635 -0.20052,-0.35497 -0.30274,-0.53125 -2.88,-4.28 -1.44928,-9.63164 -1.5293,-14.43164 1.18,-12.53 -1.03132,-25.11929 -4.86132,-37.02929 -1.53,-4.57 -2.40938,-9.30079 -3.10938,-14.05079 -1.98,-13.44 -5.04906,-26.68945 -8.03906,-39.93945 -2.88,-7.45 -6.94117,-14.39922 -10.20117,-21.69922 -1.66,-4.05 -5.03938,-6.92086 -7.85938,-10.13086 -4.38,-4.63 -8.22109,-10.0389 -14.12109,-12.8789 -4.48832,-2.88353 -9.19441,-5.54582 -13.67383,-8.50196 l 1.1e-4,-2e-5 c -15.85446,18.07352 -23.38006,40.60762 -28.38281,61.81641 -4.36132,26.92357 -8.19291,66.00499 7.72446,93.51953 1.2945,2.15121 1.15265,3.78722 1.87794,6.15752 1.11721,0.76823 2.46541,2.16654 3.72363,6.24009 12.4919,0.23005 31.47023,-1.97771 45.22855,-3.26087 z"
    />
  <path
       id="right-hipBone"
       d="m 242.00167,736.71837 c -1.55,10.22 -2.11015,20.67968 -0.41015,30.92968 0.67,3.37001 2.66125,6.39032 3.03125,9.82032 -1.33,6.14 -4.23047,11.89969 -4.98047,18.17968 -0.78,6.95001 -1.4093,13.95876 -3.2793,20.71876 -2.66,8.14999 -5.60947,16.19704 -8.53125,24.25 -1.97659,5.44784 -3.08769,13.58903 -3.08769,13.58903 l 12.85188,13.11258 c 0,0 11.05612,-13.48225 41.58756,-24.42096 17.32237,-11.16644 19.34573,-10.38619 21.60706,-30.87356 -3.93228,-4.04472 -22.01966,-13.51322 -30.3996,-46.74291 -10.63029,-42.63103 -25.22584,-32.86908 -25.22584,-32.86908 z"
    />
  <path
       id="left-hipBone"
       d="m 401.98299,814.0595 c 17.60143,17.59683 53.73655,18.96136 81.93564,21.55979 27.20311,11.7085 32.51348,29.36264 32.51348,29.36264 l 21.4954,-23.02665 c -1.06744,-21.62323 -12.31148,-50.3092 -15.31148,-68.0292 -1.15999,-6 0.46922,-12.06008 -0.30078,-18.08008 l -1.35407,-13.46213 c 0,0 -45.00905,-3.97021 -54.97443,-0.66221 -9.96538,3.308 -18.56285,32.71961 -23.18295,44.81387 -2.57132,6.73108 -40.82081,27.52397 -40.82081,27.52397 z"
    />
  <path
       id="right-upperArm"
       d="m 210.50248,519.64026 c -15.11229,1.40777 -22.53492,1.37402 -32.78966,-4.98599 -3.57058,12.76588 -12.78527,35.49328 -16.2929,47.41567 -2.87,8.93 -4.09969,18.27024 -5.67969,27.49024 -0.83,3.72 -1.43054,7.49031 -1.56054,11.32031 -0.2388,0.40377 -0.93759,2.03082 -1.17879,2.43326 6.56185,12.09905 7.34662,9.79827 29.78564,15.62762 15.46021,4.01636 30.0018,6.92209 43.81015,7.66381 1.71856,-2.4426 4.37381,-5.59138 6.06347,-8.03524 1.21902,-1.34902 2.03061,-3.49564 4.03711,-3.72851 -0.28941,-2.04228 -0.59031,-4.08001 -0.72657,-6.14258 -2.3516,-13.80048 -4.84414,-25.32781 -8.89648,-39.11719 -6.22225,-14.50227 -8.40031,-23.43073 -11.45734,-31.95009 -1.40341,-2.9493 -4.32322,-14.16669 -5.1144,-17.99131 z"
    />
  <path
       id="right-elbow"
       d="m 152.81836,603.07377 c -4.99179,8.24471 -10.78246,17.2102 -15.80588,25.43961 15.98963,3.06004 28.52896,10.39281 41.43086,17.66441 11.49641,4.90897 22.94196,18.96113 32.43195,27.3812 1.3208,-4.42716 3.00257,-9.85541 4.2458,-14.29967 3.63,-9.12 5.89821,-18.67993 9.15821,-27.91993 0.52251,-1.65408 1.35284,-3.13128 2.27148,-4.55664 -0.39821,3.8e-4 -0.79673,-0.008 -1.19531,-0.0391 -14.9566,-1.6382 -29.3693,-4.71707 -43.26953,-8.15625 -13.73029,-3.76602 -23.61346,-1.98812 -29.26758,-15.51367 z"
    />
  <path
       id="right-forearm"
       d="m 136.84766,628.55614 c -3.48529,5.76055 -6.82001,11.60474 -9.58789,17.76367 -5.7,10.28 -9.13875,21.53037 -12.96875,32.57031 -2.34,9.44003 -3.76071,19.06891 -5.47071,28.62891 -6.23,21.65 -8.929763,44.1607 -15.509763,65.7207 -4.28,15.72 -9.550391,31.17946 -15.900391,46.18946 -3.716481,8.71507 -7.66667,18.39252 -11.277936,27.15121 7.031906,5.63718 12.206821,6.37193 21.642339,11.40273 5.947797,3.25822 12.671581,2.17184 17.132771,1.50933 0.14069,-0.59396 0.5839,-2.31005 0.88369,-2.89335 3.77,-8.22 8.68953,-15.86883 13.01953,-23.79883 9.53,-17.35 21.10922,-33.44078 32.19922,-49.80078 11.47,-16.95 22.98093,-33.89031 33.71093,-51.32031 9.5,-15.67 17.38864,-32.31883 23.63868,-49.54883 0.87226,-2.80533 1.65576,-5.63769 2.5,-8.45313 -9.54761,-9.19542 -17.55178,-19.53869 -28.76368,-25.5664 -15.19336,-8.16821 -27.14498,-16.36133 -45.24804,-19.55469 z"
    />
  <path
       id="right-hand"
       d="m 66.121094,846.64007 c -0.7076,1.71423 -1.417675,3.4264 -2.13086,5.13868 -5.9,15.57 -10.710546,31.66101 -18.810546,46.29101 -5.340002,9.9 -10.109844,20.09078 -15.339844,30.05078 -1.25,2.47 -2.589141,4.9986 -2.869141,7.8086 -1.08,12.13 -2.881406,24.2307 -6.191406,35.9707 -1.37,4.62 -0.269063,9.40914 -0.289063,14.11914 0.11,3.34 -0.280078,6.68125 -0.330078,10.03125 -0.03,4.89087 2.310547,9.31987 3.310547,14.02987 0.94,4.13 2.740233,7.9996 4.490235,11.8496 6.189999,0.1 7.529296,-7.0392 7.779296,-11.8692 0.97,-6.76 -3.979609,-12.95019 -1.849609,-19.68019 0.61,0.39 1.839219,1.15883 2.449219,1.54883 2.24,3.99 3.040625,8.62066 5.390625,12.58066 2.34,4.5 6.698828,7.3108 10.548828,10.3808 4.27,3.23 8.221719,7.4301 13.761719,8.3301 0.97,-2.2999 2.839687,-4.6598 1.929687,-7.2598 -2.08,-8.19 -9.029531,-13.5707 -15.269531,-18.62161 -0.92,-8.28 -3.301491,-16.46039 -8.021484,-23.40039 1.71,0.09 3.420859,0.21975 5.130859,0.33985 2.67,4.68 5.740234,9.13187 8.240234,13.92187 2.09,4.35 6.580235,6.57818 10.240235,9.40821 4.45,3.30067 8.469921,8.04207 14.419922,8.35207 1.009996,-1.57 2.448593,-3.0008 2.808593,-4.8808 -0.14,-3.05092 -1.690078,-5.82112 -3.330078,-8.31112 -2.92,-4.51 -8.119375,-6.51976 -12.359375,-9.50976 -1.57,-5.64 -4.320781,-10.81922 -7.050781,-15.94922 1.08,-1.39 2.160078,-2.84078 3.830078,-3.55078 5.98,6.34 12.350781,12.49007 19.800781,17.08007 1.08,-1.51 2.140625,-3.03007 3.140625,-4.58007 -1.1,-3.33 -2.099609,-6.81985 -4.349609,-9.58985 -2.31,-2.97 -5.621094,-4.98023 -7.871094,-7.99023 -1.48,-2.3 -2.720625,-4.72883 -4.140625,-7.04883 -0.49,-1.06 -1.529297,-2.21063 -0.779297,-3.39063 2.21,-5.92 4.769375,-11.87 8.859375,-16.75 5.87,-7.27 10.720547,-15.46052 13.560547,-24.39062 1.27,-3.88 1.519453,-8.09025 3.439453,-11.74023 4.129999,-7.84002 7.820779,-16.32961 7.800779,-25.34961 0.10906,-3.4977 -1.43464,-7.07284 -1.08984,-10.51563 -5.81052,0.97674 -11.780907,1.45057 -17.306642,-1.49609 -8.452908,-4.50762 -15.119757,-6.13099 -21.552734,-11.35743 z"
    />
  <path
       id="left-upperArm"
       d="m 579.05072,603.01895 c 2.91,5.97 6.77024,11.46016 9.24024,17.66016 2.42,6.14 6.88906,11.11101 10.28906,16.71093 3.34984,5.28492 7.46716,11.31954 11.06523,16.50403 7.67879,-4.43561 26.67108,-15.64225 32.48974,-21.14163 13.32862,-12.59726 17.69217,-16.39293 26.20563,-31.04305 -1.95762,-5.17671 -3.73498,-11.85434 -6.34068,-16.73927 -3.68,-7.04 -6.69167,-14.52175 -10.76167,-21.34175 -6.14247,-10.53406 -12.4336,-21.97697 -18.52603,-32.53316 -10.57675,4.75538 -22.98622,4.50013 -33.397,5.2579 -14.85582,1.47536 -34.85821,3.38727 -45.37326,3.18078 7.53075,20.8112 16.39874,43.14506 25.10874,63.48506 z"
       />
  <path
       id="left-elbow"
       d="m 668.47852,601.68685 c -9.26983,14.97192 -18.17687,23.87601 -26.33663,31.17551 -7.83508,7.00904 -24.38564,15.94436 -32.43291,21.03543 5.01166,7.23247 9.93201,14.52672 13.99024,22.25976 13.62995,-11.21212 28.20361,-21.354 42.98237,-27.71393 9.81996,-3.65825 16.83022,-6.27762 26.33599,-8.4345 -6.62431,-10.01591 -12.79286,-20.33306 -19.9668,-29.98047 -2.03478,-2.5287 -3.38487,-5.3942 -4.57226,-8.3418 z"
    />
  <path
       id="left-forearm"
       d="m 692.9671,640.2268 c -9.37279,2.03114 -19.14406,5.35544 -26.33624,8.09477 -15.52969,7.41331 -31.19377,17.05943 -42.53406,28.14513 2.61185,5.09521 4.95389,11.03301 6.54382,16.64198 2.51,10.71999 5.62938,21.33171 9.85938,31.51171 4.55,12.13 11.21953,23.24821 17.26953,34.65821 8.23,15.06 16.58969,30.05078 24.92969,45.05078 11.04,19.91 22.49,39.69976 31.25,60.75976 4.24539,11.94633 9.37018,24.59367 12.4514,36.9154 4.71361,-3.84188 9.5384,-7.01157 14.95973,-9.36261 9.35255,-2.6409 18.8416,-4.43584 28.42105,-6.02402 -0.91939,-2.15919 -2.15004,-5.19 -3.2521,-7.25923 -5.1899,-10.02001 -7.90914,-21.0204 -10.61914,-31.9004 -5.92,-25.03 -10.47071,-50.3689 -16.47071,-75.3789 -2.09,-8.99 -3.02875,-18.22086 -5.46875,-27.13086 -2.11,-8 -3.42078,-16.18883 -6.05078,-24.04883 -2.17,-8.93 -6.51058,-17.08078 -9.31054,-25.80078 -1.95011,-5.16 -2.87954,-10.65 -5.01954,-15.75 -2.51,-5.88 -4.36015,-12.02992 -7.41015,-17.66992 -2.73,-6.3 -7.05024,-11.67055 -10.49024,-17.56055 -0.71549,-1.04265 -2.02134,-2.8394 -2.72235,-3.89164 z"
    />
  <path
       id="left-hand"
       d="m 769.9668,886.70042 c -9.57889,1.58648 -19.14799,3.29803 -28.50586,5.91602 -5.56839,2.03766 -10.71995,6.27255 -15.14063,9.70898 0.55261,2.29241 1.06507,4.59483 1.48047,6.92383 1.54,9.9 1.94844,20.60984 -2.60156,29.83984 -4.19,10.79 -8.0193,22.14086 -7.5293,33.88086 0.21,11.52 4.72102,22.41923 5.04102,33.94995 0.24,12.49 2.2689,25.0706 7.1289,36.6406 0.87,1.9499 2.99946,3.3902 5.18946,2.6602 3.7199,-1.1 8.37096,-2.9497 9.13086,-7.2598 3.08,-9.4 3.2207,-19.5916 0.9707,-29.1816 -0.23,-2.31 -1.44086,-5.0796 0.11914,-7.0996 3.32,-0.7 6.72984,-0.4993 10.08984,-0.2793 1.9,2.4299 3.84055,4.8598 5.81055,7.2598 0.98,6.58 3.58961,12.7092 6.34961,18.6992 1.45,6.35 0.85047,13.0399 2.73047,19.3398 1.75,4.7 -0.69,9.4314 -0.75,14.1914 -0.13,5.0499 -0.84039,10.0492 -1.65039,15.0293 -1.35,5.31 -4.85063,9.7793 -6.14063,15.1094 -0.5301,2.09 -0.34906,4.8811 1.71094,6.1211 2.58,1.5499 5.01953,3.3801 7.76953,4.6601 2.96,-3.24 4.62102,-7.3604 6.54102,-11.2304 3.52,-2.23 7.71937,-3.97 9.85937,-7.75 3.51,-5.88 5.09914,-12.6504 8.36914,-18.6504 2.39,-4.96 6.11985,-9.6294 5.83985,-15.4395 2.62,-4.14 5.41148,-8.5898 5.27148,-13.6699 -0.36,-5.01 -0.74039,-10.021 -0.65039,-15.041 -0.17,-6.61 0.96945,-13.4891 -1.56055,-19.7891 -2.1,-4.96061 -2.77984,-10.37103 -4.83984,-15.32103 -8.64,-21.44 -17.3093,-43.15086 -20.7793,-66.13086 -1.13,-7.88 -4.7707,-15.08867 -6.2207,-22.88867 -0.60791,-3.51679 -1.69463,-6.90538 -3.0332,-10.19922 z"
    />
  <path
       id="right-groin"
       d="m 385.07865,984.35951 c -1.01636,4.09198 -9.00743,54.79099 -12.94902,62.54489 l -9.14371,42.9252 c 0,0 -13.50471,-4.6316 -20.38255,-13.3506 -21.75436,-27.5778 -37.61003,-57.1705 -37.15672,-99.68549 0.42556,-39.91239 -67.54943,-109.5335 -67.54943,-109.5335 0,0 11.03231,-13.86729 41.56375,-24.806 16.78519,-9.09317 19.78492,-12.67592 21.71576,-30.2866 9.16689,10.98994 49.88832,12.85155 49.88832,12.85155 0,0 0.71579,21.54166 2.67501,28.69799 3.48024,12.71206 2.14652,39.11273 3.48597,43.95271 1.33945,4.83998 0.11691,41.3602 8.94413,51.80269 8.82723,10.44248 23.3157,14.85979 23.3157,14.85979 -2.97947,6.18489 -2.80721,13.58737 -4.40721,20.02737 z"
    />
  <path
       id="right-hipJoint"
       d="m 305.67105,977.31558 c 2.15345,-42.4628 -81.06838,-123.61048 -81.06838,-123.61048 0,0 -4.61125,70.90474 -11.73729,104.68855 -0.59036,2.79882 -0.34961,5.88477 -0.34961,5.88477 0,0 8.893,-1.80473 12.45738,-1.70378 15.44564,0.43743 54.98234,14.16934 80.34408,24.24728 z"
    />
  <path
       id="right-thigh"
       d="m 211.4641,965.82674 c -7.63,36.02996 -8.42316,52.98406 -10.50316,89.72406 -2.12,31.38 -1.09016,62.909 1.83984,94.209 2.59,26.71 6.90945,53.2102 10.93945,79.7402 2.02245,8.9005 1.80117,30.3341 0.40892,46.615 4.66231,0.9483 8.14897,-7.559 13.7314,-17.7525 6.58212,-12.019 29.7115,-16.3412 40.17488,6.434 12.27344,29.0981 22.06095,47.0667 43.17737,60.9686 1.3191,-8.8197 0.85702,-19.1845 3.50743,-27.7843 6.24,-20.79 8.63063,-42.4595 11.14063,-63.9395 1.72,-13.67 2.79844,-27.6011 7.64844,-40.6211 2.75,-6.95 4.77078,-14.1402 6.80078,-21.3203 6.54,-21.26 11.8707,-42.8687 17.4707,-64.3887 6.84,-26.81 -0.44996,8.4254 4.95004,-18.7146 -39.34127,-12.0378 -60.59731,-89.37222 -56.22639,-101.43008 -12.89774,-7.99415 -86.11924,-33.87755 -95.06033,-21.73978 z"
    />
  <path
       id="right-knee"
       d="m 227.93174,1258.5345 c -8.65297,18.7034 -14.0818,17.5493 -14.12861,18.3537 0.68379,13.4763 -0.11393,13.1201 0.97616,27.2012 0.55,6.96 0.20093,13.9612 -0.78907,20.8711 -2.06,14.7 -4.8307,29.3008 -6.4707,44.0703 -0.3431,2.3062 -0.20858,0.6973 -0.46216,3.0122 17.88755,-0.135 9.40402,26.7673 30.57935,26.7125 4.30608,0.063 8.62835,0.066 12.91211,-0.4317 21.25275,2.3974 17.06484,-31.0765 50.62765,-36.7698 2.64908,-1.1802 6.14486,-2.5261 8.78641,-3.7165 -1.12545,-4.2401 -2.02135,-8.5379 -2.52344,-12.9375 -0.81,-4.8001 1.60055,-9.2696 2.56055,-13.8496 0.54012,-1.7648 0.78556,-3.5767 1.09375,-5.3789 -25.09488,-16.1248 -29.01409,-32.0436 -42.59614,-61.0512 -15.04956,-26.133 -36.41589,-15.056 -40.56586,-6.0858 z"
    />
  <path
       id="right-shin"
       d="m 309.92471,1357.9461 c -2.60823,1.1676 -6.19755,2.41 -8.80943,3.575 -33.30054,8.755 -35.48105,38.5994 -50.4851,36.9763 -4.33816,0.5074 -8.88409,0.4326 -13.24519,0.3686 -21.35021,-0.6555 -11.48132,-26.2897 -30.37366,-26.6877 -2.24912,21.9615 -1.08164,49.3224 3.38906,70.9115 1.63,9.58 3.75953,19.0624 6.26953,28.4414 2.57,9.4403 4.36008,19.119 7.83008,28.2989 7.68,22.53 15.8307,44.91 24.7207,67 7.68,19.18 15.55047,38.2895 22.48047,57.7695 2.46926,7.156 4.78752,14.5271 5.29883,22.1055 4.65549,2.4125 9.86873,2.6504 15.44531,4.6054 11.17568,4.0669 33.73334,3.5661 40.81641,-3.8632 -0.30053,-1.0069 -0.54134,-2.033 -0.88086,-3.0274 -2.3,-6.93 -4.96117,-13.779 -5.95117,-21.039 -6.4,-39.8 -3.88961,-80.2514 -4.09961,-120.3614 1.56,-10.47 7.73969,-19.61 9.67969,-30 1.93,-10.09 0.71039,-20.3785 -0.34961,-30.4785 -2.2,-16.11 -4.66071,-32.2718 -9.47071,-47.8418 -3.46467,-12.0864 -8.93656,-24.6347 -12.26474,-36.7531 z"
    />
  <path
       id="right-foot"
       d="m 277.08008,1647.9121 c 0.0498,1.3534 0.0669,2.7115 -0.01,4.0781 -0.42,5.53 -4.04,10.3798 -3.75,16.0098 0.02,6.64 -0.0801,13.8002 -3.83008,19.5801 -3.82,6.11 -7.83937,12.0907 -11.35937,18.3906 -3.94,7.16 -10.09977,12.6504 -16.00977,18.1504 -4.37,3.98 -8.03039,8.6391 -12.15039,12.8691 -3.31,3.4 -7.55953,5.6704 -11.01953,8.9004 -2.8,3.3499 -3.63187,8.0998 -7.17187,10.9199 -2.88,2.74 -7.52922,3.9793 -8.69922,8.1993 -2.81,6.48 -4.75914,14.2108 -1.36914,20.8808 3.9,0.67 2.52976,5.2201 4.00976,7.9102 1.3,1.2799 2.99032,2.049 4.57032,2.959 0.79,2.12 1.34898,4.4305 2.70898,6.3105 1.5,1.6601 3.83008,2.1312 5.83008,2.9609 1.82,4.0799 5.63023,7.2997 10.24023,7.5098 3.13,0.46 5.96086,-1.161 8.63086,-2.541 2.46,4.47 7.17836,7.3901 12.31836,7.3301 7.37,-0.2 14.75117,-3.1396 20.20117,-8.0996 2.77,-2.34 3.23039,-6.0886 3.65039,-9.4493 5.29,-1.7798 11.37891,-2.2213 15.62891,-6.1914 3.63,-3.3901 7.67023,-6.669 9.74023,-11.289 2.44,-5.61 2.84063,-11.9011 5.64063,-17.3711 4.52,-9.24 10.79842,-17.4799 15.22852,-26.7598 1.93,-4.5 5.6107,-7.8095 8.2207,-11.8594 5.51,-9.32 9.36078,-20.4693 7.05078,-31.3593 -0.45,-2.73 -1.60078,-5.49 -0.80078,-8.25 1.31,-5.58 3.11945,-11.0402 4.18945,-16.6602 0.33,-2.23 0.94063,-4.6012 -0.10937,-6.7012 -2.24006,-5.048 -3.87671,-11.581 -5.39337,-16.8615 -7.04887,7.4436 -29.61365,7.8857 -40.98604,3.6764 -5.33045,-1.7865 -10.62778,-2.0895 -15.24612,-4.4844 z"
    />
  <path
       id="left-groin"
       d="m 350.60067,825.09246 c 1.00398,10.42337 0.94633,20.67377 2.90555,27.8301 3.48024,12.71206 2.09919,39.30534 3.43864,44.14532 1.33945,4.83998 0.24904,42.17381 9.07626,52.6163 0,0 12.84882,12.86507 23.07418,14.62583 1.26085,0.21712 1.97266,1.93072 2.39266,2.79072 -0.55623,12.59671 -1.59391,16.43885 -1.59091,22.06741 l 6.28964,97.11966 20.33337,-23.2801 c 0,0 33.99077,-40.0856 33.10757,-87.71523 -0.73194,-39.47283 67.01055,-110.57756 67.01055,-110.57756 0,0 -6.54735,-17.31691 -33.75047,-29.02543 -30.35979,-2.07391 -63.51159,-5.19757 -81.63853,-21.29929 -24.08279,16.39195 -50.64851,10.70227 -50.64851,10.70227 z"
    />
  <path
       id="left-hipJoint"
       d="m 537.1291,842.84666 c 0,0 -72.24126,72.58072 -84.57536,117.52929 6.55617,-2.01813 12.23052,-3.42371 17.74808,-4.71403 16.62183,-3.88714 31.82033,-6.73198 47.53711,-7.01563 9.42827,-0.17014 19.0429,0.58205 29.26172,2.58399 -0.4171,-2.66985 -0.80362,-5.34477 -1.23633,-8.00781 -1.51999,-7.13001 -3.97109,-14.02134 -5.62109,-21.11134 -1.07,-6.02 -0.70836,-12.17024 -1.06836,-18.24024 -0.93,-17.29 -2.01125,-34.57843 -1.78125,-51.89843 z"
    />
  <path
       id="left-thigh"
       d="m 396.00437,1084.9367 c 1.81,12.16 -0.27345,0.8432 1.70655,12.9832 0.27,5.7 -0.61977,11.3799 -0.75977,17.0899 -1.11,14.8 -0.96031,29.6609 -2.07031,44.4609 -0.96,10.83 -0.60102,21.7086 -1.04102,32.5586 -0.79,17.96 -0.34937,35.9404 -0.10937,53.9004 0.1,19.15 1.64937,38.3406 5.35937,57.1406 1.87062,9.5304 4.68759,19.4364 9.49687,27.9324 15.06642,-0.5139 13.59193,-43.4358 28.62266,-49.4606 6.6121,-2.1845 18.75427,-2.4576 24.05664,-0.1524 15.67261,11.1333 39.00815,49.4221 60.83165,49.1511 0.42855,-4.849 0.97062,-9.7004 1.25195,-14.5312 0.59,-13.65 0.56016,-27.3188 0.41016,-40.9688 0.48,-11.02 1.65132,-22.0015 1.86132,-33.0215 1.23,-16.07 3.0293,-32.0986 5.2793,-48.0586 3.5,-24.2 5.95891,-48.5414 7.62891,-72.9414 0.48,-10.05 2.15023,-19.9787 3.24023,-29.9687 1.24,-13.3 2.33133,-26.6002 3.36133,-39.9102 2.54,-26.63 3.36016,-53.40178 3.41016,-80.14178 0.2175,-6.35522 -0.70036,-13.44815 -1.65805,-19.69919 -27.25607,-5.34079 -50.21083,-1.78778 -76.80574,4.43164 -5.51757,1.29032 -11.19183,2.69542 -17.09368,4.15967 -6.85207,69.49676 -26.37455,93.52896 -56.97916,125.04596 z"
    />
  <path
       id="left-knee"
       d="m 437.22898,1281.5064 c -14.28669,5.8034 -14.03543,48.7274 -28.62546,49.5053 0.55818,0.97 1.01499,1.9901 1.63671,2.9278 3.15,4.75 2.61047,10.7205 3.98047,16.0605 3.04,15.74 7.83891,31.1203 13.62891,46.0703 1.78929,4.4774 2.57783,6.1463 3.08164,10.8838 14.29719,-10.9677 15.74227,16.0584 24.54336,15.2314 50.92432,-2.2914 25.58331,-35.548 48.72013,-34.3956 5.99331,-0.9159 13.58277,-6.5346 26.71932,-7.4851 -0.31345,-1.0775 -0.58352,-2.1693 -0.90429,-3.2442 -2.56,-8.3 -6.26985,-16.2801 -7.58985,-24.9101 -1.25829,-6.8324 -0.89624,-14.6351 -0.31922,-21.5048 -21.80509,0.209 -45.1559,-38.1172 -60.75542,-49.2924 -5.42825,-2.0907 -17.06694,-2.4303 -24.1163,0.1531 z"
    />
  <path
       id="left-shin"
       d="m 504.22852,1387.666 c -24.70226,0.7124 -0.37132,34.9514 -48.60323,34.5023 -9.68355,0.8783 -10.39328,-26.8816 -24.84035,-15.1749 0.58497,6.3136 0.84039,16.7445 0.84592,23.0359 0.15,6.73 -1.6102,13.3016 -1.74024,20.0117 -0.31,10.99 0.25016,21.969 0.41016,32.959 -0.09,6.63 3.36938,12.5991 4.10938,19.1191 1.59,12.32 3.21101,24.6512 5.04101,36.9512 5.47,37.76 3.23813,76.039 0.82813,113.959 -0.42842,6.3454 -2.25932,13.6382 -4.28783,19.6561 3.66565,4.8392 8.71672,7.4133 13.95775,9.3869 7.5834,2.1273 16.15193,1.8924 22.85351,-0.336 8.96229,-2.1881 16.62426,-5.8349 24.31056,-9.4036 0.19538,-11.5746 3.71356,-24.1486 6.39648,-35.3522 9.16,-34.85 17.80109,-69.8409 25.12109,-105.1309 3.47,-12.86 4.50984,-26.4995 10.58984,-38.5195 5.21,-17.22 4.30016,-35.5005 3.16016,-53.2305 -1.29369,-19.9731 -5.8695,-40.5992 -11.4001,-59.7801 -14.76206,1.5644 -12.88702,3.6141 -26.75224,7.3465 z"
    />
  <path
       id="left-foot"
       d="m 497.12305,1672.1602 c -8.07346,4.0653 -16.25795,7.4456 -24.39351,9.6675 -7.72418,2.098 -16.07389,2.3188 -22.69929,0.2553 -6.00643,-2.0966 -10.36687,-4.879 -14.08689,-9.3389 -0.36464,1.0401 -0.70782,2.0882 -1.10352,3.1153 -2.95,12.12 -0.48031,25.4001 -6.07031,36.9101 -5.01,10.93 -9.94992,21.9408 -13.91992,33.3008 -2.69,8.84 -6.62875,17.2798 -11.96875,24.8399 -4.41,7.08 -11.50156,12.079 -15.35156,19.539 -2.76,5.76 -2.38883,12.3605 -3.79883,18.4805 -2.35,4.1399 -6.02938,7.4099 -8.10938,11.75 -2.62,4.22 -3.24148,9.6209 -1.52148,14.3008 2.26,4.29 6.15086,7.9102 10.88086,9.2402 4.52,1.0701 8.9593,-0.8511 12.7793,-3.1211 1.15,6.35 8.66031,7.9699 14.07031,6.8399 3,-0.59 5.04023,-3.0102 7.24023,-4.9102 2.51,1.4299 4.73946,4.0112 7.93946,3.5312 5.21,0.02 8.41984,-4.6612 10.58984,-8.7812 1.4,3.78 5.25062,4.7411 8.89062,5.041 L 446.38086,1842 c 4.49,-1.08 5.45984,-5.9907 8.58984,-8.7207 0.2,0.76 0.62032,2.2712 0.82032,3.0312 2.78,0.84 6.04882,2.1496 8.79882,0.5196 4.77,-2.6699 7.81024,-7.4097 10.49024,-12.0098 1.22,-0.49 2.44969,-0.9898 3.67969,-1.4297 4.19,-5.03 9.5214,-9.4502 11.6914,-15.8301 3.15,-8.63 8.23914,-16.5807 9.86914,-25.7207 1.1,-7.45 6.14078,-13.3094 10.30078,-19.2695 5.68,-7.72 11.25,-16.5493 10.75,-26.5293 0.49,-6.34 -2.13023,-12.2313 -4.49023,-17.9414 -4.1,-8.79 -8.82015,-17.2693 -12.99024,-26.0293 -2.43999,-5.23 -6.71015,-9.9599 -6.66015,-16.0098 -0.0958,-1.3053 -0.10456,-2.6031 -0.10742,-3.9003 z"
    />
</svg>
