<?xml version="1.0" encoding="UTF-8" standalone="no"?>
<svg
   width="184"
   height="416"
   viewBox="0 0 184 416"
   fill="none"
   version="1.1"
   id="svg15"
   sodipodi:docname="female_silhouette.svg"
   inkscape:version="1.1.2 (0a00cf5339, 2022-02-04)"
   xmlns:inkscape="http://www.inkscape.org/namespaces/inkscape"
   xmlns:sodipodi="http://sodipodi.sourceforge.net/DTD/sodipodi-0.dtd"
   xmlns="http://www.w3.org/2000/svg"
   xmlns:svg="http://www.w3.org/2000/svg">
  <defs
     id="defs19">
    <inkscape:path-effect
       effect="bspline"
       id="path-effect7000"
       is_visible="true"
       lpeversion="1"
       weight="33.333333"
       steps="2"
       helper_size="0"
       apply_no_weight="true"
       apply_with_weight="true"
       only_selected="false" />
    <mask
       id="path-1-inside-1-3"
       fill="#ffffff">
      <path
         d="m 158.988,381.978 c 0.592,2.132 5.095,5.723 5.771,6.45 0.605,0.661 1.31,1.25 1.915,1.911 1.494,1.619 6.57,6.829 7.697,7.744 1.303,1.079 2.733,0.991 4.218,1.448 1.416,0.459 2.708,1.231 3.638,2.359 0.392,0.463 1.06,0.985 1.253,1.559 0.268,0.777 0.073,1.946 -0.695,1.497 -0.014,0.513 0.165,0.746 -0.16,1.168 -0.163,0.211 -0.371,0.117 -0.535,0.294 -0.197,0.213 -0.192,0.349 -0.353,0.594 -0.321,0.525 -0.475,0.976 -1.157,1.001 -0.34,0.013 -0.558,-0.32 -0.964,-0.237 -0.305,0.046 -0.298,0.251 -0.531,0.397 -1.002,0.584 -2.045,0.966 -3.133,1.075 -0.544,0.055 -1.05,0.211 -1.596,0.197 -0.547,-0.014 -0.971,-0.408 -1.486,-0.491 l -0.561,-0.389 c -0.442,0.051 -0.776,0.234 -1.182,0.318 -2.132,0.491 -3.819,0.076 -5.317,-1.646 -1.141,-1.29 -2.428,-2.848 -3.764,-3.892 -1.829,-1.436 -4.072,-0.291 -6.151,-0.213 -1.09,0.042 -2.279,0.189 -3.344,-0.01 -0.928,-0.17 -2.186,-0.054 -2.989,-0.537 -1.92,-1.124 -2.165,-3.098 -2.579,-5.031 -0.418,-2.036 -0.302,-4.4 -0.383,-6.551 -0.082,-2.151 -0.63,-4.01 -1.012,-6.013 -0.297,-1.528 -5.015,-14.445 -6.734,-18.38 -2.167,-4.979 -13.266,-32.357 -14.433,-41.579 -0.249,-2.076 -0.567,-4.184 -0.885,-6.258 -0.324,-2.278 -0.488,-8.426 -2.14,-13.322 -0.344,-0.978 -2.231,-4.873 -2.712,-5.847 -0.92,-1.777 -1.945,-3.619 -2.495,-5.547 -0.589,-2.029 -2.378,-9.655 -2.607,-10.296 -0.659,-2.095 -9.541,-23.163 -10.473,-25.248 -1.717,-3.901 -3.6108,-7.967 -5.6292,-11.72 -2.2763,-4.256 -3.9167,-8.845 -6.0946,-13.207 -0.9594,-1.913 -4.5398,-9.984 -5.3366,-12.108 -0.344,-0.978 -0.6527,-1.924 -0.9941,-2.834 -0.382,-1.08 -1.0359,-1.226 -1.819,-2.086 -0.5697,-0.628 -1.1735,-1.255 -1.7445,-1.917 -0.5696,-0.628 -0.5696,-0.628 -1.4139,-2.203 -1.1965,-0.057 -1.4299,0.088 -2.0779,1.002 -0.4539,0.632 -0.8396,1.262 -1.224,1.926 -0.7399,1.191 -0.0403,3.455 -0.2562,4.968 -0.2423,1.718 -0.246,3.428 -0.5918,5.116 -0.376,1.792 -0.7822,3.688 -1.1556,5.549 -0.9557,4.515 -1.7594,23.008 -1.4755,27.818 0.1191,2.253 0.4013,11.542 0.6618,13.925 0.2593,2.35 0.2154,9.326 0.2579,10.453 0.0387,1.024 -0.0844,6.807 -0.1255,7.527 -0.0597,1.13 -0.7073,7.48 -0.9656,9.678 -0.8039,6.732 2.9403,20.951 3.0217,26.726 0.0768,4.75 -0.326,9.449 -0.9004,14.121 -0.5784,4.569 -3.1768,27.951 -3.3387,29.085 -0.1633,1.101 0.0168,2.256 -0.1464,3.357 -0.507,3.746 1.3111,11.233 1.1042,12.985 -0.1041,0.858 -0.414,1.691 -0.5508,2.585 -0.1054,0.824 -0.0732,1.678 -0.041,2.532 0.1043,2.765 1.3064,8.395 -2.3294,8.806 -1.0865,0.144 -1.7327,0.202 -2.0663,1.309 -0.2719,0.933 -0.0564,2.122 -0.192,3.05 -0.241,1.753 -0.7051,3.925 -2.6216,4.681 -2.0515,0.795 -3.7315,0.585 -5.4842,-0.648 -0.3511,-0.26 -0.6707,-0.59 -1.0796,-0.575 -0.4429,0.017 -0.8364,0.442 -1.3488,0.427 -0.6487,-0.01 -1.9064,-0.783 -1.9688,-1.533 -0.4429,0.017 -0.6294,0.503 -1.1784,0.421 -0.4797,-0.05 -0.7337,-0.451 -0.8526,-0.891 -0.7921,0.714 -1.3411,0.632 -1.988,-0.233 -0.8081,1.193 -1.7771,-0.069 -1.9192,-1.124 -0.1409,-1.02 0.2229,-2.231 0.9102,-3.009 0.6216,-0.707 1.4844,-1.355 2.2122,-1.964 0.8614,-0.682 1.2156,-1.242 1.7601,-2.186 0.9303,-1.574 1.8631,-3.079 2.5509,-4.746 0.7508,-1.807 2.061,-3.258 2.8144,-4.996 0.4397,-1.008 0.5213,-1.558 0.2062,-2.675 -0.2379,-0.88 -0.4901,-2.135 -0.5145,-2.784 l -0.0348,-0.922 c 0.945,-10.224 -6.0965,-30.439 -7.251,-36.618 -0.9024,-4.924 -4.0964,-22.651 -3.8297,-33.67 0.0295,-1.027 0.6465,-14.522 0.7318,-16.782 0.0879,-2.191 -0.0665,-4.476 -0.1502,-6.695 -0.1739,-4.61 -0.4134,-9.148 -1.0605,-13.637 -0.368,-2.516 -0.5694,-5.141 -1.1064,-7.617 -0.4991,-2.374 -8.3469,-42.15 -8.5598,-43.27 -0.2116,-1.086 -0.9785,-8.751 -0.9631,-10.153 0.415,-13.418 2.0212,-20.591 2.0763,-22.747 0.088,-2.191 0.3187,-4.217 0.9254,-6.223 0.6673,-2.214 4.8752,-11.878 5.2062,-13.053 1.2085,-4.148 3.4244,-7.822 5.1896,-11.684 1.8572,-4.138 5.3623,-7.108 7.6753,-10.923 0.61,-1.014 0.8884,-1.777 0.8433,-2.972 -0.0438,-1.161 -0.5271,-7.639 -1.0499,-9.739 -0.5557,-2.065 -0.9802,-4.271 -1.4021,-6.409 -0.4219,-2.138 -2.308,-7.811 -2.308,-7.811 -0.5425,1.901 -0.9789,3.9 -1.3851,5.796 -0.2301,1.137 -1.6456,5.225 -1.8795,6.26 -0.4981,2.173 -1.2361,4.32 -1.5298,6.485 -0.2923,2.2 -0.6278,4.161 -1.0617,6.229 -0.4364,2 -0.8818,3.76 -1.9695,5.682 -1.2819,2.202 -2.6685,4.34 -3.8456,6.607 -2.194,4.254 -4.6253,8.551 -7.2701,12.617 -2.5174,3.822 -10.0634,15.458 -10.9691,17.68 -0.4371,1.077 -4.2858,8.505 -5.0103,10.105 l 0.616,1.857 c 0.0733,0.134 0.1126,0.269 0.1518,0.405 0.7247,2.024 0.4233,3.984 -0.2176,5.991 -0.3361,1.039 -0.8793,2.017 -1.285,3.023 -0.4371,1.077 -0.6209,1.631 -0.5758,2.826 0.0785,2.082 0.5069,4.391 0.1007,6.287 -0.2038,0.931 -2.1786,4.664 -3.4375,3.857 -0.3261,-2.313 0.1932,-4.829 -0.2024,-7.173 -0.2494,0.625 -0.6955,1.462 -0.8402,2.152 -0.1407,0.791 0.1339,1.738 0.0967,2.56 -0.0797,1.508 -0.4871,3.369 -0.053,4.926 0.3569,1.32 1.2982,2.755 1.8898,3.963 0.5903,1.175 1.243,3.099 0.3668,4.294 -0.6263,-0.318 -1.104,-1.223 -1.5008,-1.789 -0.47,-0.701 -0.9426,-1.469 -2.6612,-2.704 -0.3511,-0.26 -0.4063,1.896 -0.6769,2.864 -0.1774,0.725 -0.5946,1.424 -1.26062,1.859 -0.80634,-1.473 -0.68176,-3.598 -0.88247,-5.3 -0.25282,-2.179 -0.20542,-4.54 -0.1162,-6.697 0.06158,-1.985 -0.15869,-7.824 -0.20249,-8.985 -0.04251,-1.126 0.19143,-2.161 0.25372,-3.223 0.12201,-2.193 0.34754,-4.356 0.46826,-6.583 0.08536,-2.259 0.03699,-4.446 0.50233,-6.583 0.46537,-2.138 1.36977,-4.394 2.35267,-6.38 0.9842,-1.952 1.8334,-3.864 2.6434,-5.912 0.4069,-0.973 6.7237,-18.956 7.1306,-19.929 0.3754,-0.903 4.1506,-12.089 4.7259,-14.026 0.5715,-2.039 1.4901,-3.92 2.7192,-5.71 1.1334,-1.615 2.1633,-3.261 2.6363,-5.194 0.9764,-3.968 2.5725,-7.79 3.3078,-11.818 2.3394,-12.157 3.0411,-27.023 3.1118,-26.957 l -0.0708,-1.8779 c -1.0701,-3.0368 -1.0626,-6.4562 -1.1914,-9.8704 -0.0657,-1.7413 0.2839,-3.3273 0.4947,-4.9764 0.1818,-1.5112 0.5617,-3.2009 1.1222,-4.6239 1.4978,-3.715 3.7022,-7.6959 7.7095,-9.1122 2.1223,-0.7297 3.8813,-1.1379 6.1522,-0.6424 1.1007,0.232 2.0535,0.1619 3.2082,0.0157 1.0197,-0.1068 2.1718,-0.3212 3.1876,-0.5305 3.6242,-0.718 8.3053,-2.3649 10.3952,-5.7602 1.1572,-1.89 1.528,-3.8187 1.8557,-5.9851 0.3265,-2.2005 -0.3301,-4.2272 -0.651,-6.4033 -2.4227,-0.9002 -3.9916,-2.6873 -5.2364,-4.9311 -1.2816,-2.3108 -2.5592,-4.5192 -3.7057,-6.8693 -0.962,-1.981 -1.1994,-3.75 -1.4535,-5.9628 -0.2528,-2.1787 -0.2054,-4.5397 -0.6954,-6.6752 -0.4522,-2.0344 -0.9358,-3.9992 -0.8504,-6.2591 0.0879,-2.1915 -0.0248,-4.2729 0.8193,-6.322 2.066,-4.93308 6.3246,-7.82904 7.9319,-8.64189 2.0766,-1.03569 4.0047,-1.48455 6.2196,-1.56812 8.9606,-0.37227 14.3222,3.35739 16.7039,6.78921 1.3001,1.8998 1.6397,3.6649 2.2661,5.7953 0.2354,0.8117 1.3846,5.0422 1.4187,5.041 -0.0315,0.0695 1.966,-0.3477 2.0555,1.1191 0.0206,0.5463 0.3376,0.8078 0.4591,1.3161 0.2534,1.2897 0.0119,3.9315 -0.2118,5.2392 -0.3708,1.9287 -2.6318,4.4074 -2.6318,4.4074 0,0 -0.408,4.5628 -0.3635,6.6468 0.0953,2.5265 -0.6731,9.2911 -0.2879,11.3622 0.3879,2.1394 0.8965,3.864 1.8244,5.8462 1.6005,3.5297 5.3026,5.7834 8.8316,7.0521 0.898,0.308 4.91,0.8062 5.938,0.9384 1.063,0.1308 2.137,-0.3541 3.189,-0.4964 1.054,-0.1082 2.061,-0.5565 3.155,-0.4952 1.811,0.0685 4.048,0.5653 5.722,1.5279 1.779,1.027 3.675,2.4256 4.83,4.0916 2.27,3.1967 3.94,4.9458 4.41,10.1593 0.469,5.2135 -0.424,12.2906 -0.106,15.2874 0.158,1.4642 0.952,9.8455 1.345,11.2325 0.353,1.217 4.442,17.338 4.82,18.315 0.758,1.989 1.309,3.951 2.13,5.801 0.86,1.985 1.885,3.826 2.642,5.815 1.519,4.08 2.63,8.209 3.133,12.498 0.252,2.145 3.352,21.004 4.018,25.082 0.35,2.038 0.563,4.081 0.913,6.12 0.211,1.052 2.147,14.381 2.455,15.327 0.312,1.014 2.137,3.27 2.582,4.211 0.815,1.713 4.425,8.757 5.448,10.53 0.402,0.703 1.222,3.442 1.617,3.974 0.936,1.298 1.923,2.115 2.49,3.598 0.606,1.584 0.347,3.748 0.448,5.522 0.067,0.887 0.202,1.736 0.236,2.658 0.026,0.683 0.354,2.141 -0.07,2.67 -0.525,-0.356 -0.957,-0.956 -1.314,-1.387 -0.061,1.097 0.062,2.562 -0.796,3.347 -1.665,-0.724 -1.748,-2.943 -2.203,-3.233 -0.676,1.085 -1.729,3.005 -2.865,3.664 -1.331,-1.831 -0.414,-3.746 0.199,-5.581 0.55,-1.696 -0.414,-3.745 -2.077,-4.401 -0.937,-0.409 -3.304,-3.465 -3.514,-4.517 -0.417,-2.002 -0.619,-3.738 -2.212,-5.25 -1.38,-1.316 -3.083,-2.141 -4.299,-3.599 -1.143,-1.359 -1.564,-3.463 -1.766,-5.199 -0.246,-2.008 -0.123,-4.167 -0.739,-6.024 -0.695,-2.162 -4.184,-16.835 -6.072,-20.764 -1.817,-3.829 -3.362,-7.703 -5.109,-11.501 -0.929,-2.016 -6.455,-15.518 -7.176,-17.44 -0.722,-1.956 -0.972,-4.066 -1.055,-6.251 -0.176,-4.678 -4.343,-17.445 -4.934,-19.542 -0.314,-1.082 -1.278,-4.021 -1.936,-6.082 0,0 -1.415,4.088 -1.592,4.847 -0.236,0.967 -1.687,6.834 -2.191,8.836 -1.74,7.246 -1.642,17.089 1.635,24.35 0.894,1.984 1.705,3.595 2.631,5.509 0.963,2.015 1.208,3.989 1.665,6.159 0.795,3.868 1.324,7.951 1.784,12.003 0.493,4.016 2.054,13.735 2.103,14.144 0.092,0.612 0.249,1.153 0.373,1.729 0.244,1.051 1.633,7.119 2.354,9.041 0.684,1.854 9.225,31.962 11.548,67.296 0.221,3.137 0.746,6.195 1.61,9.205 0.431,1.488 0.997,2.903 1.563,4.352 0.228,0.607 1.371,5.59 1.494,6.132 0.157,0.541 0.145,1.123 0.268,1.665 0.207,0.984 0.422,2.138 0.764,3.083 1.078,3.241 4.881,14.484 6.34,18.805 4.84,14.314 3.292,16.698 6.714,56.743 0.522,5.69 2.156,10.108 2.785,12.306 z"
         id="path2-6" />
    </mask>
  </defs>
  <sodipodi:namedview
     id="namedview17"
     pagecolor="#ffffff"
     bordercolor="#666666"
     borderopacity="1.0"
     inkscape:pageshadow="2"
     inkscape:pageopacity="0.0"
     inkscape:pagecheckerboard="0"
     showgrid="false"
     inkscape:snap-global="false"
     showguides="true"
     inkscape:zoom="1.4142136"
     inkscape:cx="94.398755"
     inkscape:cy="219.55665"
     inkscape:current-layer="g3041" />
  <mask
     id="path-1-inside-1"
     fill="white">
    <path
       d="M158.988 381.978C159.58 384.11 164.083 387.701 164.759 388.428C165.364 389.089 166.069 389.678 166.674 390.339C168.168 391.958 173.244 397.168 174.371 398.083C175.674 399.162 177.104 399.074 178.589 399.531C180.005 399.99 181.297 400.762 182.227 401.89C182.619 402.353 183.287 402.875 183.48 403.449C183.748 404.226 183.553 405.395 182.785 404.946C182.771 405.459 182.95 405.692 182.625 406.114C182.462 406.325 182.254 406.231 182.09 406.408C181.893 406.621 181.898 406.757 181.737 407.002C181.416 407.527 181.262 407.978 180.58 408.003C180.24 408.016 180.022 407.683 179.616 407.766C179.311 407.812 179.318 408.017 179.085 408.163C178.083 408.747 177.04 409.129 175.952 409.238C175.408 409.293 174.902 409.449 174.356 409.435C173.809 409.421 173.385 409.027 172.87 408.944L172.309 408.555C171.867 408.606 171.533 408.789 171.127 408.873C168.995 409.364 167.308 408.949 165.81 407.227C164.669 405.937 163.382 404.379 162.046 403.335C160.217 401.899 157.974 403.044 155.895 403.122C154.805 403.164 153.616 403.311 152.551 403.112C151.623 402.942 150.365 403.058 149.562 402.575C147.642 401.451 147.397 399.477 146.983 397.544C146.565 395.508 146.681 393.144 146.6 390.993C146.518 388.842 145.97 386.983 145.588 384.98C145.291 383.452 140.573 370.535 138.854 366.6C136.687 361.621 125.588 334.243 124.421 325.021C124.172 322.945 123.854 320.837 123.536 318.763C123.212 316.485 123.048 310.337 121.396 305.441C121.052 304.463 119.165 300.568 118.684 299.594C117.764 297.817 116.739 295.975 116.189 294.047C115.6 292.018 113.811 284.392 113.582 283.751C112.923 281.656 104.041 260.588 103.109 258.503C101.392 254.602 99.4982 250.536 97.4798 246.783C95.2035 242.527 93.5631 237.938 91.3852 233.576C90.4258 231.663 86.8454 223.592 86.0486 221.468C85.7046 220.49 85.3959 219.544 85.0545 218.634C84.6725 217.554 84.0186 217.408 83.2355 216.548C82.6658 215.92 82.062 215.293 81.491 214.631C80.9214 214.003 80.9214 214.003 80.0771 212.428C78.8806 212.371 78.6472 212.516 77.9992 213.43C77.5453 214.062 77.1596 214.692 76.7752 215.356C76.0353 216.547 76.7349 218.811 76.519 220.324C76.2767 222.042 76.273 223.752 75.9272 225.44C75.5512 227.232 75.145 229.128 74.7716 230.989C73.8159 235.504 73.0122 253.997 73.2961 258.807C73.4152 261.06 73.6974 270.349 73.9579 272.732C74.2172 275.082 74.1733 282.058 74.2158 283.185C74.2545 284.209 74.1314 289.992 74.0903 290.712C74.0306 291.842 73.383 298.192 73.1247 300.39C72.3208 307.122 76.065 321.341 76.1464 327.116C76.2232 331.866 75.8204 336.565 75.246 341.237C74.6676 345.806 72.0692 369.188 71.9073 370.322C71.744 371.423 71.9241 372.578 71.7609 373.679C71.2539 377.425 73.072 384.912 72.8651 386.664C72.761 387.522 72.4511 388.355 72.3143 389.249C72.2089 390.073 72.2411 390.927 72.2733 391.781C72.3776 394.546 73.5797 400.176 69.9439 400.587C68.8574 400.731 68.2112 400.789 67.8776 401.896C67.6057 402.829 67.8212 404.018 67.6856 404.946C67.4446 406.699 66.9805 408.871 65.064 409.627C63.0125 410.422 61.3325 410.212 59.5798 408.979C59.2287 408.719 58.9091 408.389 58.5002 408.404C58.0573 408.421 57.6638 408.846 57.1514 408.831C56.5027 408.821 55.245 408.048 55.1826 407.298C54.7397 407.315 54.5532 407.801 54.0042 407.719C53.5245 407.669 53.2705 407.268 53.1516 406.828C52.3595 407.542 51.8105 407.46 51.1636 406.595C50.3555 407.788 49.3865 406.526 49.2444 405.471C49.1035 404.451 49.4673 403.24 50.1546 402.462C50.7762 401.755 51.639 401.107 52.3668 400.498C53.2282 399.816 53.5824 399.256 54.1269 398.312C55.0572 396.738 55.99 395.233 56.6778 393.566C57.4286 391.759 58.7388 390.308 59.4922 388.57C59.9319 387.562 60.0135 387.012 59.6984 385.895C59.4605 385.015 59.2083 383.76 59.1839 383.111L59.1491 382.189C60.0941 371.965 53.0526 351.75 51.8981 345.571C50.9957 340.647 47.8017 322.92 48.0684 311.901C48.0979 310.874 48.7149 297.379 48.8002 295.119C48.8881 292.928 48.7337 290.643 48.65 288.424C48.4761 283.814 48.2366 279.276 47.5895 274.787C47.2215 272.271 47.0201 269.646 46.4831 267.17C45.984 264.796 38.1362 225.02 37.9233 223.9C37.7117 222.814 36.9448 215.149 36.9602 213.747C37.3752 200.329 38.9814 193.156 39.0365 191C39.1245 188.809 39.3552 186.783 39.9619 184.777C40.6292 182.563 44.8371 172.899 45.1681 171.724C46.3766 167.576 48.5925 163.902 50.3577 160.04C52.2149 155.902 55.72 152.932 58.033 149.117C58.643 148.103 58.9214 147.34 58.8763 146.145C58.8325 144.984 58.3492 138.506 57.8264 136.406C57.2707 134.341 56.8462 132.135 56.4243 129.997C56.0024 127.859 54.1163 122.186 54.1163 122.186C53.5738 124.087 53.1374 126.086 52.7312 127.982C52.5011 129.119 51.0856 133.207 50.8517 134.242C50.3536 136.415 49.6156 138.562 49.3219 140.727C49.0296 142.927 48.6941 144.888 48.2602 146.956C47.8238 148.956 47.3784 150.716 46.2907 152.638C45.0088 154.84 43.6222 156.978 42.4451 159.245C40.2511 163.499 37.8198 167.796 35.175 171.862C32.6576 175.684 25.1116 187.32 24.2059 189.542C23.7688 190.619 19.9201 198.047 19.1956 199.647L19.8116 201.504C19.8849 201.638 19.9242 201.773 19.9634 201.909C20.6881 203.933 20.3867 205.893 19.7458 207.9C19.4097 208.939 18.8665 209.917 18.4608 210.923C18.0237 212 17.8399 212.554 17.885 213.749C17.9635 215.831 18.3919 218.14 17.9857 220.036C17.7819 220.967 15.8071 224.7 14.5482 223.893C14.2221 221.58 14.7414 219.064 14.3458 216.72C14.0964 217.345 13.6503 218.182 13.5056 218.872C13.3649 219.663 13.6395 220.61 13.6023 221.432C13.5226 222.94 13.1152 224.801 13.5493 226.358C13.9062 227.678 14.8475 229.113 15.4391 230.321C16.0294 231.496 16.6821 233.42 15.8059 234.615C15.1796 234.297 14.7019 233.392 14.3051 232.826C13.8351 232.125 13.3625 231.357 11.6439 230.122C11.2928 229.862 11.2376 232.018 10.967 232.986C10.7896 233.711 10.3724 234.41 9.70638 234.845C8.90004 233.372 9.02462 231.247 8.82391 229.545C8.57109 227.366 8.61849 225.005 8.70771 222.848C8.76929 220.863 8.54902 215.024 8.50522 213.863C8.46271 212.737 8.69665 211.702 8.75894 210.64C8.88095 208.447 9.10648 206.284 9.2272 204.057C9.31256 201.798 9.26419 199.611 9.72953 197.474C10.1949 195.336 11.0993 193.08 12.0822 191.094C13.0664 189.142 13.9156 187.23 14.7256 185.182C15.1325 184.209 21.4493 166.226 21.8562 165.253C22.2316 164.35 26.0068 153.164 26.5821 151.227C27.1536 149.188 28.0722 147.307 29.3013 145.517C30.4347 143.902 31.4646 142.256 31.9376 140.323C32.914 136.355 34.5101 132.533 35.2454 128.505C37.5848 116.348 38.2865 101.482 38.3572 101.548L38.2864 99.6701C37.2163 96.6333 37.2238 93.2139 37.095 89.7997C37.0293 88.0584 37.3789 86.4724 37.5897 84.8233C37.7715 83.3121 38.1514 81.6224 38.7119 80.1994C40.2097 76.4844 42.4141 72.5035 46.4214 71.0872C48.5437 70.3575 50.3027 69.9493 52.5736 70.4448C53.6743 70.6768 54.6271 70.6067 55.7818 70.4605C56.8015 70.3537 57.9536 70.1393 58.9694 69.93C62.5936 69.212 67.2747 67.5651 69.3646 64.1698C70.5218 62.2798 70.8926 60.3511 71.2203 58.1847C71.5468 55.9842 70.8902 53.9575 70.5693 51.7814C68.1466 50.8812 66.5777 49.0941 65.3329 46.8503C64.0513 44.5395 62.7737 42.3311 61.6272 39.981C60.6652 38 60.4278 36.231 60.1737 34.0182C59.9209 31.8395 59.9683 29.4785 59.4783 27.343C59.0261 25.3086 58.5425 23.3438 58.6279 21.0839C58.7158 18.8924 58.6031 16.811 59.4472 14.7619C61.5132 9.82882 65.7718 6.93286 67.3791 6.12001C69.4557 5.08432 71.3838 4.63546 73.5987 4.55189C82.5593 4.17962 87.9209 7.90928 90.3026 11.3411C91.6027 13.2409 91.9423 15.006 92.5687 17.1364C92.8041 17.9481 93.9533 22.1786 93.9874 22.1774C93.9559 22.2469 95.9534 21.8297 96.0429 23.2965C96.0635 23.8428 96.3805 24.1043 96.502 24.6126C96.7554 25.9023 96.5139 28.5441 96.2902 29.8518C95.9194 31.7805 93.6584 34.2592 93.6584 34.2592C93.6584 34.2592 93.2504 38.822 93.2949 40.906C93.3902 43.4325 92.6218 50.1971 93.007 52.2682C93.3949 54.4076 93.9035 56.1322 94.8314 58.1144C96.4319 61.6441 100.134 63.8978 103.663 65.1665C104.561 65.4745 108.573 65.9727 109.601 66.1049C110.664 66.2357 111.738 65.7508 112.79 65.6085C113.844 65.5003 114.851 65.052 115.945 65.1133C117.756 65.1818 119.993 65.6786 121.667 66.6412C123.446 67.6682 125.342 69.0668 126.497 70.7328C128.767 73.9295 130.437 75.6786 130.907 80.8921C131.376 86.1056 130.483 93.1827 130.801 96.1795C130.959 97.6437 131.753 106.025 132.146 107.412C132.499 108.629 136.588 124.75 136.966 125.727C137.724 127.716 138.275 129.678 139.096 131.528C139.956 133.513 140.981 135.354 141.738 137.343C143.257 141.423 144.368 145.552 144.871 149.841C145.123 151.986 148.223 170.845 148.889 174.923C149.239 176.961 149.452 179.004 149.802 181.043C150.013 182.095 151.949 195.424 152.257 196.37C152.569 197.384 154.394 199.64 154.839 200.581C155.654 202.294 159.264 209.338 160.287 211.111C160.689 211.814 161.509 214.553 161.904 215.085C162.84 216.383 163.827 217.2 164.394 218.683C165 220.267 164.741 222.431 164.842 224.205C164.909 225.092 165.044 225.941 165.078 226.863C165.104 227.546 165.432 229.004 165.008 229.533C164.483 229.177 164.051 228.577 163.694 228.146C163.633 229.243 163.756 230.708 162.898 231.493C161.233 230.769 161.15 228.55 160.695 228.26C160.019 229.345 158.966 231.265 157.83 231.924C156.499 230.093 157.416 228.178 158.029 226.343C158.579 224.647 157.615 222.598 155.952 221.942C155.015 221.533 152.648 218.477 152.438 217.425C152.021 215.423 151.819 213.687 150.226 212.175C148.846 210.859 147.143 210.034 145.927 208.576C144.784 207.217 144.363 205.113 144.161 203.377C143.915 201.369 144.038 199.21 143.422 197.353C142.727 195.191 139.238 180.518 137.35 176.589C135.533 172.76 133.988 168.886 132.241 165.088C131.312 163.072 125.786 149.57 125.065 147.648C124.343 145.692 124.093 143.582 124.01 141.397C123.834 136.719 119.667 123.952 119.076 121.855C118.762 120.773 117.798 117.834 117.14 115.773C117.14 115.773 115.725 119.861 115.548 120.62C115.312 121.587 113.861 127.454 113.357 129.456C111.617 136.702 111.715 146.545 114.992 153.806C115.886 155.79 116.697 157.401 117.623 159.315C118.586 161.33 118.831 163.304 119.288 165.474C120.083 169.342 120.612 173.425 121.072 177.477C121.565 181.493 123.126 191.212 123.175 191.621C123.267 192.233 123.424 192.774 123.548 193.35C123.792 194.401 125.181 200.469 125.902 202.391C126.586 204.245 135.127 234.353 137.45 269.687C137.671 272.824 138.196 275.882 139.06 278.892C139.491 280.38 140.057 281.795 140.623 283.244C140.851 283.851 141.994 288.834 142.117 289.376C142.274 289.917 142.262 290.499 142.385 291.041C142.592 292.025 142.807 293.179 143.149 294.124C144.227 297.365 148.03 308.608 149.489 312.929C154.329 327.243 152.781 329.627 156.203 369.672C156.725 375.362 158.359 379.78 158.988 381.978Z"
       id="path2" />
  </mask>
  <g
     inkscape:groupmode="layer"
     id="layer1"
     inkscape:label="base"
     style="display:inline;opacity:1"
     sodipodi:insensitive="true">
    <path
       d="m 158.988,381.978 c 0.592,2.132 5.095,5.723 5.771,6.45 0.605,0.661 1.31,1.25 1.915,1.911 1.494,1.619 6.57,6.829 7.697,7.744 1.303,1.079 2.733,0.991 4.218,1.448 1.416,0.459 2.708,1.231 3.638,2.359 0.392,0.463 1.06,0.985 1.253,1.559 0.268,0.777 0.073,1.946 -0.695,1.497 -0.014,0.513 0.165,0.746 -0.16,1.168 -0.163,0.211 -0.371,0.117 -0.535,0.294 -0.197,0.213 -0.192,0.349 -0.353,0.594 -0.321,0.525 -0.475,0.976 -1.157,1.001 -0.34,0.013 -0.558,-0.32 -0.964,-0.237 -0.305,0.046 -0.298,0.251 -0.531,0.397 -1.002,0.584 -2.045,0.966 -3.133,1.075 -0.544,0.055 -1.05,0.211 -1.596,0.197 -0.547,-0.014 -0.971,-0.408 -1.486,-0.491 l -0.561,-0.389 c -0.442,0.051 -0.776,0.234 -1.182,0.318 -2.132,0.491 -3.819,0.076 -5.317,-1.646 -1.141,-1.29 -2.428,-2.848 -3.764,-3.892 -1.829,-1.436 -4.072,-0.291 -6.151,-0.213 -1.09,0.042 -2.279,0.189 -3.344,-0.01 -0.928,-0.17 -2.186,-0.054 -2.989,-0.537 -1.92,-1.124 -2.165,-3.098 -2.579,-5.031 -0.418,-2.036 -0.302,-4.4 -0.383,-6.551 -0.082,-2.151 -0.63,-4.01 -1.012,-6.013 -0.297,-1.528 -5.015,-14.445 -6.734,-18.38 -2.167,-4.979 -13.266,-32.357 -14.433,-41.579 -0.249,-2.076 -0.567,-4.184 -0.885,-6.258 -0.324,-2.278 -0.488,-8.426 -2.14,-13.322 -0.344,-0.978 -2.231,-4.873 -2.712,-5.847 -0.92,-1.777 -1.945,-3.619 -2.495,-5.547 -0.589,-2.029 -2.378,-9.655 -2.607,-10.296 -0.659,-2.095 -9.541,-23.163 -10.473,-25.248 -1.717,-3.901 -3.6108,-7.967 -5.6292,-11.72 -2.2763,-4.256 -3.9167,-8.845 -6.0946,-13.207 -0.9594,-1.913 -4.5398,-9.984 -5.3366,-12.108 -0.344,-0.978 -0.6527,-1.924 -0.9941,-2.834 -0.382,-1.08 -1.0359,-1.226 -1.819,-2.086 -0.5697,-0.628 -1.1735,-1.255 -1.7445,-1.917 -0.5696,-0.628 -0.5696,-0.628 -1.4139,-2.203 -1.1965,-0.057 -1.4299,0.088 -2.0779,1.002 -0.4539,0.632 -0.8396,1.262 -1.224,1.926 -0.7399,1.191 -0.0403,3.455 -0.2562,4.968 -0.2423,1.718 -0.246,3.428 -0.5918,5.116 -0.376,1.792 -0.7822,3.688 -1.1556,5.549 -0.9557,4.515 -1.7594,23.008 -1.4755,27.818 0.1191,2.253 0.4013,11.542 0.6618,13.925 0.2593,2.35 0.2154,9.326 0.2579,10.453 0.0387,1.024 -0.0844,6.807 -0.1255,7.527 -0.0597,1.13 -0.7073,7.48 -0.9656,9.678 -0.8039,6.732 2.9403,20.951 3.0217,26.726 0.0768,4.75 -0.326,9.449 -0.9004,14.121 -0.5784,4.569 -3.1768,27.951 -3.3387,29.085 -0.1633,1.101 0.0168,2.256 -0.1464,3.357 -0.507,3.746 1.3111,11.233 1.1042,12.985 -0.1041,0.858 -0.414,1.691 -0.5508,2.585 -0.1054,0.824 -0.0732,1.678 -0.041,2.532 0.1043,2.765 1.3064,8.395 -2.3294,8.806 -1.0865,0.144 -1.7327,0.202 -2.0663,1.309 -0.2719,0.933 -0.0564,2.122 -0.192,3.05 -0.241,1.753 -0.7051,3.925 -2.6216,4.681 -2.0515,0.795 -3.7315,0.585 -5.4842,-0.648 -0.3511,-0.26 -0.6707,-0.59 -1.0796,-0.575 -0.4429,0.017 -0.8364,0.442 -1.3488,0.427 -0.6487,-0.01 -1.9064,-0.783 -1.9688,-1.533 -0.4429,0.017 -0.6294,0.503 -1.1784,0.421 -0.4797,-0.05 -0.7337,-0.451 -0.8526,-0.891 -0.7921,0.714 -1.3411,0.632 -1.988,-0.233 -0.8081,1.193 -1.7771,-0.069 -1.9192,-1.124 -0.1409,-1.02 0.2229,-2.231 0.9102,-3.009 0.6216,-0.707 1.4844,-1.355 2.2122,-1.964 0.8614,-0.682 1.2156,-1.242 1.7601,-2.186 0.9303,-1.574 1.8631,-3.079 2.5509,-4.746 0.7508,-1.807 2.061,-3.258 2.8144,-4.996 0.4397,-1.008 0.5213,-1.558 0.2062,-2.675 -0.2379,-0.88 -0.4901,-2.135 -0.5145,-2.784 l -0.0348,-0.922 c 0.945,-10.224 -6.0965,-30.439 -7.251,-36.618 -0.9024,-4.924 -4.0964,-22.651 -3.8297,-33.67 0.0295,-1.027 0.6465,-14.522 0.7318,-16.782 0.0879,-2.191 -0.0665,-4.476 -0.1502,-6.695 -0.1739,-4.61 -0.4134,-9.148 -1.0605,-13.637 -0.368,-2.516 -0.5694,-5.141 -1.1064,-7.617 -0.4991,-2.374 -8.3469,-42.15 -8.5598,-43.27 -0.2116,-1.086 -0.9785,-8.751 -0.9631,-10.153 0.415,-13.418 2.0212,-20.591 2.0763,-22.747 0.088,-2.191 0.3187,-4.217 0.9254,-6.223 0.6673,-2.214 4.8752,-11.878 5.2062,-13.053 1.2085,-4.148 3.4244,-7.822 5.1896,-11.684 1.8572,-4.138 5.3623,-7.108 7.6753,-10.923 0.61,-1.014 0.8884,-1.777 0.8433,-2.972 -0.0438,-1.161 -0.5271,-7.639 -1.0499,-9.739 -0.5557,-2.065 -0.9802,-4.271 -1.4021,-6.409 -0.4219,-2.138 -2.308,-7.811 -2.308,-7.811 -0.5425,1.901 -0.9789,3.9 -1.3851,5.796 -0.2301,1.137 -1.6456,5.225 -1.8795,6.26 -0.4981,2.173 -1.2361,4.32 -1.5298,6.485 -0.2923,2.2 -0.6278,4.161 -1.0617,6.229 -0.4364,2 -0.8818,3.76 -1.9695,5.682 -1.2819,2.202 -2.6685,4.34 -3.8456,6.607 -2.194,4.254 -4.6253,8.551 -7.2701,12.617 -2.5174,3.822 -10.0634,15.458 -10.9691,17.68 -0.4371,1.077 -4.2858,8.505 -5.0103,10.105 l 0.616,1.857 c 0.0733,0.134 0.1126,0.269 0.1518,0.405 0.7247,2.024 0.4233,3.984 -0.2176,5.991 -0.3361,1.039 -0.8793,2.017 -1.285,3.023 -0.4371,1.077 -0.6209,1.631 -0.5758,2.826 0.0785,2.082 0.5069,4.391 0.1007,6.287 -0.2038,0.931 -2.1786,4.664 -3.4375,3.857 -0.3261,-2.313 0.1932,-4.829 -0.2024,-7.173 -0.2494,0.625 -0.6955,1.462 -0.8402,2.152 -0.1407,0.791 0.1339,1.738 0.0967,2.56 -0.0797,1.508 -0.4871,3.369 -0.053,4.926 0.3569,1.32 1.2982,2.755 1.8898,3.963 0.5903,1.175 1.243,3.099 0.3668,4.294 -0.6263,-0.318 -1.104,-1.223 -1.5008,-1.789 -0.47,-0.701 -0.9426,-1.469 -2.6612,-2.704 -0.3511,-0.26 -0.4063,1.896 -0.6769,2.864 -0.1774,0.725 -0.5946,1.424 -1.26062,1.859 -0.80634,-1.473 -0.68176,-3.598 -0.88247,-5.3 -0.25282,-2.179 -0.20542,-4.54 -0.1162,-6.697 0.06158,-1.985 -0.15869,-7.824 -0.20249,-8.985 -0.04251,-1.126 0.19143,-2.161 0.25372,-3.223 0.12201,-2.193 0.34754,-4.356 0.46826,-6.583 0.08536,-2.259 0.03699,-4.446 0.50233,-6.583 0.46537,-2.138 1.36977,-4.394 2.35267,-6.38 0.9842,-1.952 1.8334,-3.864 2.6434,-5.912 0.4069,-0.973 6.7237,-18.956 7.1306,-19.929 0.3754,-0.903 4.1506,-12.089 4.7259,-14.026 0.5715,-2.039 1.4901,-3.92 2.7192,-5.71 1.1334,-1.615 2.1633,-3.261 2.6363,-5.194 0.9764,-3.968 2.5725,-7.79 3.3078,-11.818 2.3394,-12.157 3.0411,-27.023 3.1118,-26.957 l -0.0708,-1.8779 c -1.0701,-3.0368 -1.0626,-6.4562 -1.1914,-9.8704 -0.0657,-1.7413 0.2839,-3.3273 0.4947,-4.9764 0.1818,-1.5112 0.5617,-3.2009 1.1222,-4.6239 1.4978,-3.715 3.7022,-7.6959 7.7095,-9.1122 2.1223,-0.7297 3.8813,-1.1379 6.1522,-0.6424 1.1007,0.232 2.0535,0.1619 3.2082,0.0157 1.0197,-0.1068 2.1718,-0.3212 3.1876,-0.5305 3.6242,-0.718 8.3053,-2.3649 10.3952,-5.7602 1.1572,-1.89 1.528,-3.8187 1.8557,-5.9851 0.3265,-2.2005 -0.3301,-4.2272 -0.651,-6.4033 -2.4227,-0.9002 -3.9916,-2.6873 -5.2364,-4.9311 -1.2816,-2.3108 -2.5592,-4.5192 -3.7057,-6.8693 -0.962,-1.981 -1.1994,-3.75 -1.4535,-5.9628 -0.2528,-2.1787 -0.2054,-4.5397 -0.6954,-6.6752 -0.4522,-2.0344 -0.9358,-3.9992 -0.8504,-6.2591 0.0879,-2.1915 -0.0248,-4.2729 0.8193,-6.322 2.066,-4.93308 6.3246,-7.82904 7.9319,-8.64189 2.0766,-1.03569 4.0047,-1.48455 6.2196,-1.56812 8.9606,-0.37227 14.3222,3.35739 16.7039,6.78921 1.3001,1.8998 1.6397,3.6649 2.2661,5.7953 0.2354,0.8117 1.3846,5.0422 1.4187,5.041 -0.0315,0.0695 1.966,-0.3477 2.0555,1.1191 0.0206,0.5463 0.3376,0.8078 0.4591,1.3161 0.2534,1.2897 0.0119,3.9315 -0.2118,5.2392 -0.3708,1.9287 -2.6318,4.4074 -2.6318,4.4074 0,0 -0.408,4.5628 -0.3635,6.6468 0.0953,2.5265 -0.6731,9.2911 -0.2879,11.3622 0.3879,2.1394 0.8965,3.864 1.8244,5.8462 1.6005,3.5297 5.3026,5.7834 8.8316,7.0521 0.898,0.308 4.91,0.8062 5.938,0.9384 1.063,0.1308 2.137,-0.3541 3.189,-0.4964 1.054,-0.1082 2.061,-0.5565 3.155,-0.4952 1.811,0.0685 4.048,0.5653 5.722,1.5279 1.779,1.027 3.675,2.4256 4.83,4.0916 2.27,3.1967 3.94,4.9458 4.41,10.1593 0.469,5.2135 -0.424,12.2906 -0.106,15.2874 0.158,1.4642 0.952,9.8455 1.345,11.2325 0.353,1.217 4.442,17.338 4.82,18.315 0.758,1.989 1.309,3.951 2.13,5.801 0.86,1.985 1.885,3.826 2.642,5.815 1.519,4.08 2.63,8.209 3.133,12.498 0.252,2.145 3.352,21.004 4.018,25.082 0.35,2.038 0.563,4.081 0.913,6.12 0.211,1.052 2.147,14.381 2.455,15.327 0.312,1.014 2.137,3.27 2.582,4.211 0.815,1.713 4.425,8.757 5.448,10.53 0.402,0.703 1.222,3.442 1.617,3.974 0.936,1.298 1.923,2.115 2.49,3.598 0.606,1.584 0.347,3.748 0.448,5.522 0.067,0.887 0.202,1.736 0.236,2.658 0.026,0.683 0.354,2.141 -0.07,2.67 -0.525,-0.356 -0.957,-0.956 -1.314,-1.387 -0.061,1.097 0.062,2.562 -0.796,3.347 -1.665,-0.724 -1.748,-2.943 -2.203,-3.233 -0.676,1.085 -1.729,3.005 -2.865,3.664 -1.331,-1.831 -0.414,-3.746 0.199,-5.581 0.55,-1.696 -0.414,-3.745 -2.077,-4.401 -0.937,-0.409 -3.304,-3.465 -3.514,-4.517 -0.417,-2.002 -0.619,-3.738 -2.212,-5.25 -1.38,-1.316 -3.083,-2.141 -4.299,-3.599 -1.143,-1.359 -1.564,-3.463 -1.766,-5.199 -0.246,-2.008 -0.123,-4.167 -0.739,-6.024 -0.695,-2.162 -4.184,-16.835 -6.072,-20.764 -1.817,-3.829 -3.362,-7.703 -5.109,-11.501 -0.929,-2.016 -6.455,-15.518 -7.176,-17.44 -0.722,-1.956 -0.972,-4.066 -1.055,-6.251 -0.176,-4.678 -4.343,-17.445 -4.934,-19.542 -0.314,-1.082 -1.278,-4.021 -1.936,-6.082 0,0 -1.415,4.088 -1.592,4.847 -0.236,0.967 -1.687,6.834 -2.191,8.836 -1.74,7.246 -1.642,17.089 1.635,24.35 0.894,1.984 1.705,3.595 2.631,5.509 0.963,2.015 1.208,3.989 1.665,6.159 0.795,3.868 1.324,7.951 1.784,12.003 0.493,4.016 2.054,13.735 2.103,14.144 0.092,0.612 0.249,1.153 0.373,1.729 0.244,1.051 1.633,7.119 2.354,9.041 0.684,1.854 9.225,31.962 11.548,67.296 0.221,3.137 0.746,6.195 1.61,9.205 0.431,1.488 0.997,2.903 1.563,4.352 0.228,0.607 1.371,5.59 1.494,6.132 0.157,0.541 0.145,1.123 0.268,1.665 0.207,0.984 0.422,2.138 0.764,3.083 1.078,3.241 4.881,14.484 6.34,18.805 4.84,14.314 3.292,16.698 6.714,56.743 0.522,5.69 2.156,10.108 2.785,12.306 z"
       fill="#484848"
       fill-opacity="0.18"
       id="path5"
       style="fill:#000000;fill-opacity:1;stroke:none" />
  </g>
  <g
     inkscape:groupmode="layer"
     id="g2953"
     inkscape:label="skull"
     style="display:inline"
     sodipodi:insensitive="true">
    <path
       style="display:inline;fill:#000000;fill-opacity:0.99995;stroke:none"
       d="m 74.427734,4.5292969 c -0.273008,0.00376 -0.548106,0.011804 -0.828125,0.023437 -2.2149,0.08357 -4.144103,0.5307162 -6.220703,1.5664062 -1.6073,0.81285 -5.86564,3.7094963 -7.93164,8.6425789 -0.206993,0.502486 -0.353812,1.008083 -0.462891,1.515624 0.140577,-0.02325 0.376591,0.103946 0.527344,-0.09375 1.833678,-2.404655 2.339025,-0.468312 4.494122,-0.791285 4.14332,-0.620937 8.071956,-5.7895399 15.662128,-2.439187 0.563769,0.08771 2.05738,1.481784 2.510821,1.845866 5.612625,10.738876 5.865133,23.294234 5.88533,33.135308 0,0 0.378945,1.877228 1.947433,2.273266 1.911168,0.482562 2.87942,0.895096 2.87942,0.895096 0,0 0.492758,-7.84206 0.403952,-10.196407 -0.0445,-2.084001 0.363281,-6.646485 0.363281,-6.646485 0,0 2.262013,-2.479502 2.632813,-4.408203 0.2237,-1.307697 0.464337,-3.948581 0.210937,-5.238281 -0.1215,-0.5083 -0.438384,-0.770106 -0.458984,-1.316406 -0.0895,-1.4668 -2.086188,-1.049642 -2.054688,-1.119141 -0.0341,0.0012 -1.184522,-4.229315 -1.419922,-5.041016 -0.6264,-2.130399 -0.965525,-3.895121 -2.265625,-5.794921 -2.307272,-3.3245769 -7.411741,-6.928941 -15.875,-6.8125006 z"
       id="path3477"
       sodipodi:nodetypes="sccccsscccscccccccccss" />
  </g>
  <g
     inkscape:groupmode="layer"
     id="g2957"
     inkscape:label="right.eye"
     style="display:inline;opacity:1"
     sodipodi:insensitive="true">
    <path
       style="fill:#000000;fill-opacity:1;stroke:none;stroke-width:0.1;stroke-miterlimit:4;stroke-dasharray:none;stroke-opacity:1;paint-order:markers fill stroke;stop-color:#000000"
       d="m 60.223346,29.351582 c 0,0 -0.144571,-1.72819 -0.155863,-2.119901 -0.05221,-1.811123 3.688414,-1.830156 3.688414,-1.830156 l 2.322109,1.288638 0.202099,1.838909 c 0,0 -0.05612,0.869602 -1.486468,2.580749 -2.822284,1.91584 -4.250041,-0.665017 -4.570291,-1.758239 z"
       id="path7427"
       sodipodi:nodetypes="csccccc" />
  </g>
  <g
     inkscape:groupmode="layer"
     id="g2961"
     inkscape:label="left.eye"
     style="display:inline;opacity:1"
     sodipodi:insensitive="true">
    <path
       style="display:inline;opacity:1;fill:#000000;fill-opacity:1;stroke:none;stroke-width:0.1;stroke-miterlimit:4;stroke-dasharray:none;stroke-opacity:1;paint-order:markers fill stroke;stop-color:#000000"
       d="m 76.334525,29.361289 c -1.621542,0.496789 -3.323818,1.104085 -5.027954,0.403739 -2.067873,-0.849832 -2.666779,-3.294241 -2.666779,-3.294241 l 1.142653,-1.821847 c 0,0 1.363934,-1.085283 2.742922,-1.429314 4.725481,-0.791346 4.476259,0.271317 5.976083,2.02997 0.269315,2.36578 -0.404337,3.169572 -2.166925,4.111693 z"
       id="path7427-6"
       sodipodi:nodetypes="csccccc" />
  </g>
  <g
     inkscape:groupmode="layer"
     id="g2965"
     inkscape:label="face"
     style="display:inline"
     sodipodi:insensitive="true">
    <path
       id="path16884"
       style="display:inline;fill:#000000;fill-opacity:1;stroke:none"
       d="m 74.601562,11.833984 c -4.501243,0.06942 -7.488213,3.092891 -10.595703,3.558594 -2.155097,0.322973 -2.660462,-1.613639 -4.49414,0.791016 -0.150753,0.197696 -0.50902,0.534806 -0.724227,1.390298 -0.335454,1.562102 -0.09419,1.855998 -0.160539,3.510092 -0.0854,2.2599 0.399363,4.225366 0.851563,6.259766 0.49,2.1355 0.442512,4.495128 0.695312,6.673828 0.2541,2.2128 0.491125,3.981891 1.453125,5.962891 1.1465,2.3501 2.423478,4.55834 3.705078,6.86914 1.164556,2.099158 2.641046,3.769265 4.806641,4.716797 1.009127,0.261546 3.242815,0.620151 4.518817,0.115523 6.050595,-1.667058 7.381385,-2.418438 13.498313,-9.568308 -0.173531,-8.974188 -1.2023,-18.180841 -5.976114,-27.314793 -0.453441,-0.364082 -1.94795,-1.757993 -2.511719,-1.845703 -1.897543,-0.837588 -3.56599,-1.142281 -5.066407,-1.119141 z m 0.38086,11.121094 c 2.242805,-0.02784 2.347794,0.920974 3.519531,2.294922 0.269315,2.36578 -0.405381,3.169207 -2.167969,4.111328 -1.621542,0.496789 -3.323207,1.104643 -5.027343,0.404297 -2.067873,-0.849832 -2.666016,-3.294922 -2.666016,-3.294922 l 1.142578,-1.822265 c 0,0 1.3632,-1.085657 2.742188,-1.429688 1.033699,-0.173107 1.829045,-0.255878 2.457031,-0.263672 z m -11.226563,2.447266 2.322266,1.287109 0.201172,1.839844 c 0,0 -0.05598,0.868931 -1.486328,2.580078 -2.822284,1.91584 -4.250063,-0.66459 -4.570313,-1.757813 0,0 -0.143005,-1.727429 -0.154297,-2.11914 -0.05221,-1.811123 3.6875,-1.830078 3.6875,-1.830078 z"
       sodipodi:nodetypes="ssscccccccccccssccscccscccccsc" />
    <path
       style="display:inline;fill:#000000;fill-opacity:0.583023;stroke:none"
       d="m 95.673828,22.509766 c 0.0018,0.0015 0.0041,0.0024 0.0059,0.0039 -0.002,-0.0017 -0.0038,-0.0022 -0.0059,-0.0039 z"
       id="path16878" />
  </g>
  <g
     inkscape:groupmode="layer"
     id="g2969"
     inkscape:label="neck"
     style="display:inline;opacity:1"
     sodipodi:insensitive="true">
    <path
       style="display:inline;fill:#000000;fill-opacity:0.99995;stroke:none"
       d="m 87.993384,42.29597 c -0.623618,0.221772 -1.988489,3.188577 -7.247009,7.117472 -0.951984,0.711274 -3.262703,1.560533 -6.542647,2.469934 -0.864021,0.23956 -2.807272,0.09669 -3.656119,-0.311693 0.3209,2.1761 0.999594,4.413363 0.673094,6.613863 -0.3277,2.1664 -0.698269,4.094375 -1.855469,5.984375 -0.373808,0.607298 -0.852295,1.140531 -1.371093,1.640625 4.804477,2.185769 6.554294,3.691041 11.490957,3.447334 5.757287,-0.284219 14.01949,-3.906707 17.329355,-6.556709 0.329297,-0.290247 0.64229,-0.598176 0.949219,-0.91211 -1.209211,-1.039408 -2.27399,-2.223461 -2.931641,-3.673828 -0.9279,-1.9822 -1.58236,-4.852081 -1.970262,-6.991481 -0.38877,-0.516098 -3.76076,-0.670762 -4.046804,-1.8033 -1.250978,-0.999747 -0.602654,-3.389371 -0.821581,-7.024482 z"
       id="path17978"
       sodipodi:nodetypes="cssccccscccccc" />
  </g>
  <g
     inkscape:groupmode="layer"
     id="g2973"
     inkscape:label="right.chest"
     style="display:inline"
     sodipodi:insensitive="true">
    <path
       style="display:inline;fill:#000000;fill-opacity:0.99995;stroke:none"
       d="m 67.894215,65.752924 c -3.446153,3.644672 -8.803912,4.217397 -12.173048,4.884866 -4.7421,10.110071 -0.131371,20.49432 -5.01189,29.6961 -6.062801,8.57972 -0.795643,15.11007 2.837928,20.67268 1.008362,1.77145 0.906019,2.18492 1.648064,4.58523 1.794737,5.40389 1.921353,7.98844 3.196106,13.99776 1.505118,1.31115 1.056489,-4.31492 1.592497,-5.42971 3.141897,-7.35058 6.555828,-7.37209 13.641033,-7.52614 2.066736,-0.19937 5.849917,0.0984 6.38481,-0.85249 C 78.045682,107.77193 76.452978,82.10595 78.477494,69.330232 73.863806,68.886674 70.516192,67.380616 67.894215,65.752924 Z"
       id="path20137"
       sodipodi:nodetypes="ccccccccccc" />
  </g>
  <g
     inkscape:groupmode="layer"
     id="g2977"
     inkscape:label="left.chest"
     style="display:inline"
     sodipodi:insensitive="true">
    <path
       style="display:inline;fill:#000000;fill-opacity:0.99995;stroke:none"
       d="m 98.220703,62.208984 c 0,0 0.0234,-0.03443 -0.459314,-0.368541 -2.863102,2.62901 -5.680983,3.847933 -8.986171,5.159768 -3.07969,1.392767 -6.727095,2.309507 -10.333194,2.232363 0.07052,2.226599 -0.334175,2.117632 -0.37647,4.2039 -0.706288,15.0143 -0.595148,37.860446 2.119095,52.493116 17.769982,-1.00852 20.700791,5.83279 28.672201,14.08694 1.42201,1.63979 2.14417,1.63272 3.47521,2.05965 -0.27031,-4.42427 0.12469,-8.87022 1.02539,-12.62109 0.504,-2.002 1.95541,-7.86894 2.19141,-8.83594 0.12997,-0.55735 0.75336,-2.34794 1.16797,-3.55859 3.01568,-8.41613 3.40643,-12.72871 1.55675,-19.534673 -1.70725,-6.281847 -5.05023,-5.002017 -5.77126,-17.25806 -0.50736,-8.624231 0.2867,-14.658443 0.2867,-14.658443 -1.052,0.1423 -2.1245,0.626894 -3.1875,0.496094 -1.028,-0.1322 -5.04145,-0.631453 -5.93945,-0.939453 -1.99702,-0.85651 -3.908062,-1.547247 -5.441367,-2.957041 z"
       id="path22753"
       sodipodi:nodetypes="cccccccccccsscccc" />
  </g>
  <g
     inkscape:groupmode="layer"
     id="g2981"
     inkscape:label="right.stomach"
     style="display:inline"
     sodipodi:insensitive="true">
    <path
       style="display:inline;fill:#000000;fill-opacity:0.99995;stroke:none"
       d="m 79.457031,126.10352 c -2.439697,0.27714 -4.178557,0.62572 -7.158203,0.5996 -8.998597,-0.31112 -11.468182,3.94004 -12.832031,10.21876 0.09964,3.68515 -1.244189,2.4212 -1.128906,2.8496 0.5228,2.1 0.495262,5.21205 0.539062,6.37305 0.0451,1.195 -0.23375,1.95866 -0.84375,2.97266 -2.313,3.815 -5.818581,6.78387 -7.675781,10.92187 6.503798,5.91998 4.704274,10.24199 9.09375,18.12305 7.21061,11.86995 7.963492,12.82593 18.951172,13.25781 0.636582,-12.19804 -0.262368,-24.63149 1.808548,-36.63476 1.018312,-9.01829 0.776513,-18.30899 -0.646479,-27.14649 -0.04738,-0.51138 -0.08508,-1.02311 -0.107422,-1.53515 z"
       id="path28983"
       sodipodi:nodetypes="ccccscccccccc" />
  </g>
  <g
     inkscape:groupmode="layer"
     id="g2985"
     inkscape:label="left.stomach"
     style="display:inline"
     sodipodi:insensitive="true">
    <path
       style="display:inline;fill:#000000;fill-opacity:0.99995;stroke:none"
       d="m 85.443359,125.77539 c -2.513552,0.005 -4.302943,0.14182 -5.8125,0.30859 1.152409,9.99363 1.434811,20.61356 0.610413,28.80066 -0.208575,1.18471 -0.648414,2.94227 -0.729954,4.14158 -0.646809,10.31112 -0.969601,20.0892 -0.886375,30.33706 0.03018,0.68984 -0.0016,1.37634 -0.04883,2.0625 0.767373,0.0295 1.443323,0.0634 2.316406,0.0918 18.891535,0.61439 23.808901,-18.5618 31.238281,-25.47656 3.23806,-3.01377 6.10514,-0.82894 6.91797,-1.73243 -0.33412,-1.71432 -0.64165,-3.3534 -1.42578,-4.99414 -0.926,-1.914 -1.73686,-3.52381 -2.63086,-5.50781 -2.80202,-6.20855 -1.95826,-5.1664 -2.57227,-11.86523 -5.78266,-0.084 -8.46981,-15.17733 -26.97656,-16.16602 z"
       id="path25816"
       sodipodi:nodetypes="cccccccscccccc" />
  </g>
  <g
     inkscape:groupmode="layer"
     id="g2989"
     inkscape:label="right.shoulder"
     style="display:inline"
     sodipodi:insensitive="true">
    <path
       style="display:inline;fill:#000000;fill-opacity:0.99995;stroke:none"
       d="m 55.78125,70.460938 c -1.1547,0.146197 -2.106331,0.216384 -3.207031,-0.01563 -2.2709,-0.495497 -4.030044,-0.08712 -6.152344,0.642579 -4.0073,1.4163 -6.213138,5.396328 -7.710937,9.111328 -0.5605,1.423 -0.939294,3.1138 -1.121094,4.625 -0.2108,1.6491 -0.559841,3.233309 -0.494141,4.974609 0.1288,3.4142 0.121306,6.834294 1.191406,9.871094 l 0.002,0.07031 c 3.441755,2.185512 8.129367,2.123892 11.91211,1.197262 1.271618,-1.21548 2.766115,-5.740908 3.089844,-11.552732 -0.305935,-7.698267 0.354374,-15.07478 2.490187,-18.92382 z"
       id="path30256"
       sodipodi:nodetypes="cccccsccccc" />
  </g>
  <g
     inkscape:groupmode="layer"
     id="g2993"
     inkscape:label="left.shoulder"
     style="display:inline"
     sodipodi:insensitive="true">
    <path
       style="display:inline;fill:#000000;fill-opacity:0.99995;stroke:none"
       d="m 115.94531,65.113281 c -1.26749,0.07776 -2.02213,0.283096 -3.17127,0.529028 -0.55149,6.411229 -0.70921,15.454201 0.55358,21.143694 1.57885,6.372792 4.88736,6.481358 5.9067,15.518567 1.78671,0.70198 4.45386,1.22445 6.07618,1.16405 3.02418,-0.1187 4.47781,-0.94339 6.04693,-1.90026 -0.25245,-2.337982 -0.48122,-4.689775 -0.55664,-5.388676 -0.318,-2.996803 0.57447,-10.07361 0.10547,-15.28711 -0.47,-5.2135 -2.14016,-6.963456 -4.41016,-10.160156 -1.155,-1.666 -3.04912,-3.064797 -4.82812,-4.091797 -1.674,-0.9626 -3.91166,-1.458844 -5.72266,-1.527344 z"
       id="path29950"
       sodipodi:nodetypes="ccccccccccsc" />
  </g>
  <g
     inkscape:groupmode="layer"
     id="g2997"
     inkscape:label="right.hipBone"
     style="display:inline"
     sodipodi:insensitive="true">
    <path
       style="display:inline;fill:#000000;fill-opacity:0.99995;stroke:none"
       d="m 50.365234,160.00391 c -0.0028,0.0124 4.93e-4,0.0166 -0.0078,0.0352 -1.7652,3.862 -3.980953,7.53755 -5.189453,11.68555 -0.331,1.175 -4.539733,10.83873 -5.207031,13.05273 -0.606702,2.006 -0.835829,4.03166 -0.923829,6.22266 -0.0086,0.33787 -0.06675,0.85519 -0.140625,1.45703 0.109182,0.013 0.219237,0.0228 0.328125,0.0371 4.133991,0.61769 9.203111,0.96654 13.511719,0.33794 5.290284,-1.02523 9.726721,-2.2878 14.239221,-4.19667 -3.622941,-3.41346 -6.218794,-8.29255 -8.520471,-12.27208 -1.656697,-2.86437 -2.699829,-10.65636 -6.253906,-14.54492 -1.245982,-1.36325 -1.105424,-0.73165 -1.785156,-1.7793 -0.03052,-0.0104 -0.03908,-0.0234 -0.05078,-0.0352 z"
       id="path34404"
       sodipodi:nodetypes="cccccccccsscsc" />
    <path
       style="display:inline;fill:#000000;fill-opacity:0.99995;stroke:none"
       d="m 50.349609,159.95117 c -0.01145,0.009 -0.0067,0.0304 0.01563,0.0527 0.01018,-0.0453 -0.0019,-0.0637 -0.01563,-0.0527 z"
       id="path32441" />
  </g>
  <g
     inkscape:groupmode="layer"
     id="g3001"
     inkscape:label="left.hipBone"
     style="display:inline"
     sodipodi:insensitive="true">
    <path
       style="display:inline;fill:#000000;fill-opacity:0.99995;stroke:none"
       d="m 112.50714,165.66149 c -6.89281,7.02182 -11.34578,19.57697 -21.97027,24.1943 5.656552,1.0198 11.23291,2.02349 16.58618,2.31804 5.52598,0.67503 10.73197,0.95753 15.37859,0.1455 0.17766,-0.10403 0.59185,-0.1084 0.7718,-0.208 -0.0337,-0.16226 -0.0719,-0.31914 -0.0977,-0.49024 -0.049,-0.409 -1.61051,-10.12853 -2.10351,-14.14453 -0.46,-4.052 -1.17033,-9.22803 -1.96533,-13.09603 -0.7394,0.63517 -3.5417,-0.98836 -6.59976,1.28096 z"
       id="path34406"
       sodipodi:nodetypes="ccccccccc" />
  </g>
  <g
     inkscape:groupmode="layer"
     id="g3005"
     inkscape:label="right.upperArm"
     style="display:inline"
     sodipodi:insensitive="true">
    <path
       style="display:inline;fill:#000000;fill-opacity:0.99995;stroke:none"
       d="m 38.300781,100.02539 0.05664,1.52344 c -0.0707,-0.066 -0.771928,14.80003 -3.111328,26.95703 -0.379349,2.07809 -0.984657,4.10279 -1.619141,6.11914 1.700656,1.73745 2.477579,2.30176 6.009565,3.19813 1.866589,0.47372 7.240914,1.68027 10.142779,0.75499 0.34279,-1.44182 0.739412,-2.88383 1.072265,-4.33593 0.2339,-1.035 1.648807,-5.12277 1.878907,-6.25977 0.4062,-1.896 0.844219,-3.89587 1.386719,-5.79687 -0.452518,-1.72118 -5.488077,-7.87852 -5.974049,-11.7225 -0.452955,-3.58281 0.388267,-6.673 2.107648,-9.49333 -2.07675,0.34713 -2.974152,0.8781 -7.092584,0.335 -1.659779,-0.21887 -3.230893,-0.88396 -4.857422,-1.2793 z"
       id="path43251"
       sodipodi:nodetypes="ccccsccccscscc" />
  </g>
  <g
     inkscape:groupmode="layer"
     id="g3009"
     inkscape:label="right.elbow"
     style="display:inline"
     sodipodi:insensitive="true">
    <path
       style="display:inline;fill:#000000;fill-opacity:0.99995;stroke:none"
       d="m 33.65802,134.61402 c -0.673874,1.61717 -1.266028,3.86123 -1.72052,5.70825 -0.316536,1.29358 -0.949687,2.67307 -1.629269,3.7867 2.895165,0.24952 5.653733,0.90078 8.032972,2.18324 2.99028,1.84995 5.782012,3.93885 7.946531,6.3265 1.022118,-1.85917 1.547968,-3.72017 1.972032,-5.66363 0.4339,-2.068 0.7702,-4.02852 1.0625,-6.22852 0.117707,-0.86767 0.09234,-0.74692 0.467882,-2.25 -1.381949,0.95754 -7.273295,0.1741 -9.728861,-0.54093 -2.638798,-0.58552 -4.406252,-1.09577 -6.403267,-3.32161 z"
       id="path44412"
       sodipodi:nodetypes="cccccccccc" />
  </g>
  <g
     inkscape:groupmode="layer"
     id="g3013"
     inkscape:label="right.forearm"
     style="display:inline"
     sodipodi:insensitive="true">
    <path
       style="display:inline;fill:#000000;fill-opacity:0.99995;stroke:none"
       d="m 30.224609,144.12891 c -0.294334,0.46869 -0.60259,0.93093 -0.923828,1.38867 -1.2291,1.79 -2.14725,3.66998 -2.71875,5.70898 -0.5753,1.937 -4.351162,13.12435 -4.726562,14.02735 -0.4069,0.973 -6.722006,18.95473 -7.128907,19.92773 -0.81,2.048 -1.660331,3.96011 -2.644531,5.91211 -0.619911,1.25256 -1.19347,2.6141 -1.660156,3.98437 0.558539,0.13971 1.115675,0.28506 1.671875,0.42774 0.432812,0.12331 0.865486,0.24966 1.298828,0.37109 1.530946,0.429 2.603566,0.83185 3.984375,1.60157 0.620074,0.40975 1.164703,0.91746 1.734375,1.39062 0.111301,0.0925 0.223802,0.18058 0.335938,0.26953 0.962372,-2.0317 4.341844,-8.57077 4.757812,-9.5957 0.9057,-2.222 8.453303,-13.85964 10.970703,-17.68164 2.6448,-4.066 5.075531,-8.36319 7.269531,-12.61719 1.16307,-2.23998 2.529784,-4.35311 3.798829,-6.52734 -0.38669,-0.4958 -0.838389,-0.9457 -1.3125,-1.38282 -1.708346,-1.66513 -3.607036,-3.10933 -5.59961,-4.41992 -0.304568,-0.18315 -0.600367,-0.37818 -0.912109,-0.54883 -1.313684,-0.71914 -2.749076,-1.22941 -4.1875,-1.6289 -1.324208,-0.27255 -2.658169,-0.51903 -4.007813,-0.60742 z"
       id="path44522" />
  </g>
  <g
     inkscape:groupmode="layer"
     id="g3017"
     inkscape:label="right.hand"
     style="display:inline"
     sodipodi:insensitive="true">
    <path
       style="display:inline;fill:#000000;fill-opacity:0.99995;stroke:none"
       d="m 10.330078,195.34766 c -0.263449,0.70269 -0.4469904,1.42579 -0.5996092,2.12695 -0.4653402,2.137 -0.4185463,4.32303 -0.5039063,6.58203 -0.12072,2.227 -0.3447869,4.39099 -0.4667969,6.58398 -0.06229,1.06201 -0.2964162,2.09666 -0.2539062,3.22266 0.0438,1.161 0.2627518,6.99938 0.2011718,8.98438 -0.08922,2.157 -0.1356326,4.51826 0.1171876,6.69726 0.20071,1.702 0.076472,3.82778 0.8828124,5.30078 0.6660198,-0.435 1.0823658,-1.13437 1.2597658,-1.85937 0.2706,-0.968 0.326634,-3.12524 0.677734,-2.86524 1.7186,1.235 2.190156,2.00408 2.660157,2.70508 0.3968,0.566 0.875653,1.47106 1.501953,1.78906 0.8762,-1.195 0.223112,-3.11992 -0.367188,-4.29492 -0.5916,-1.208 -1.533725,-2.64289 -1.890625,-3.96289 -0.4341,-1.557 -0.02697,-3.41778 0.05273,-4.92578 0.0372,-0.822 -0.236409,-1.76955 -0.0957,-2.56055 0.1447,-0.69 0.590444,-1.52539 0.839844,-2.15039 0.3956,2.344 -0.122975,4.85888 0.203125,7.17188 1.2589,0.807 3.2337,-2.92642 3.4375,-3.85742 0.4062,-1.896 -0.02306,-4.20511 -0.101562,-6.28711 -0.0451,-1.195 0.139071,-1.74722 0.576172,-2.82422 0.405698,-1.006 0.949056,-1.98444 1.285156,-3.02344 0.6409,-2.007 0.941497,-3.96819 0.216797,-5.99219 -0.0392,-0.136 -0.07709,-0.27029 -0.150391,-0.40429 l -0.617188,-1.85743 c 0.01711,-0.0378 0.218646,-0.45989 0.239152,-0.50401 -0.695312,-0.56344 -1.195195,-1.07832 -2.059052,-1.66534 -2.738871,-1.53703 -5.818893,-2.07183 -6.951962,-2.37852 z"
       id="path46557"
       sodipodi:nodetypes="scccsccccccccccccccsccccccccs" />
  </g>
  <g
     inkscape:groupmode="layer"
     id="g3021"
     inkscape:label="left.upperArm"
     style="display:inline"
     sodipodi:insensitive="true">
    <path
       style="display:inline;fill:#000000;fill-opacity:0.99995;stroke:none"
       d="m 131.28906,101.65039 c -1.19785,0.66546 -1.71292,1.36491 -4.45508,1.62891 -4.54998,0.43806 -6.49111,-0.59792 -7.56836,-0.90625 0.18235,2.00427 0.0893,4.20655 -0.16015,6 -0.33036,3.28228 -1.09391,4.97934 -2.12305,7.44922 -0.0344,0.18986 -0.0439,0.38181 -0.0469,0.57421 0.0412,-0.11944 0.20507,-0.62304 0.20507,-0.62304 0.65801,2.061 1.62155,5.00003 1.93555,6.08203 0.3603,1.27843 2.08698,6.59831 3.39076,11.55733 1.51866,-0.77318 6.16069,-1.33204 7.86953,-1.56936 3.83256,-0.53224 5.3413,-1.14911 8.2651,-1.4218 0.19402,-0.006 -1.16237,-3.44686 -1.63478,-4.69527 -0.378,-0.977 -4.46732,-17.09745 -4.82032,-18.31445 -0.23464,-0.82812 -0.55759,-2.90785 -0.85742,-5.76172 z"
       id="path47364"
       sodipodi:nodetypes="cscccccccsccccc" />
  </g>
  <g
     inkscape:groupmode="layer"
     id="g3025"
     inkscape:label="left.elbow"
     style="display:inline"
     sodipodi:insensitive="true">
    <path
       style="display:inline;fill:#000000;fill-opacity:0.99995;stroke:none"
       d="m 135.00771,130.99976 c -2.34902,0.56835 -4.35821,0.87203 -7.07116,1.14572 -2.00818,0.32817 -3.7581,0.5087 -5.47757,1.31179 0.82016,3.13176 1.48296,6.13659 1.55079,7.93945 0.0796,2.09645 0.41346,4.21652 1.06994,6.10517 3.30207,0.51987 6.8408,0.39272 9.73742,0.056 3.62799,-0.42178 6.39484,-0.70399 9.41262,-1.61104 -0.59304,-2.86765 -1.45402,-5.8164 -2.49147,-8.60296 -0.757,-1.989 -1.78258,-3.83141 -2.64258,-5.81641 -0.14283,-0.32185 -0.35272,-0.79911 -0.48166,-1.12728 -1.17704,0.14449 -2.51505,0.38156 -3.60633,0.59953 z"
       id="path49064"
       sodipodi:nodetypes="cccccscccccc" />
  </g>
  <g
     inkscape:groupmode="layer"
     id="g3029"
     inkscape:label="left.forearm"
     style="display:inline"
     sodipodi:insensitive="true">
    <path
       style="display:inline;fill:#000000;fill-opacity:0.99995;stroke:none"
       d="m 144.22266,145.93555 c -0.084,0.0336 -0.16802,0.071 -0.25196,0.10351 -3.23702,0.95882 -7.18424,1.21387 -8.47656,1.41016 -3.61488,0.54906 -6.69694,0.59847 -10.46484,0.086 0.0134,0.0372 0.0214,0.0762 0.0351,0.11328 0.721,1.922 6.24678,15.42345 7.17578,17.43945 1.747,3.798 3.29238,7.67295 5.10938,11.50195 1.888,3.929 5.37727,18.60168 6.07227,20.76368 0.32263,0.97264 0.45975,2.15754 0.53594,3.23064 0.63417,-0.46888 3.06528,-2.18371 3.66478,-2.46857 2.13718,-1.04596 3.28953,-1.29905 4.80476,-1.3556 -0.0432,-0.0964 -0.14446,-0.3092 -0.16955,-0.39087 -0.308,-0.946 -2.24408,-14.27417 -2.45508,-15.32617 -0.35,-2.039 -0.56406,-4.08114 -0.91406,-6.11914 -0.666,-4.078 -3.76558,-22.93703 -4.01758,-25.08203 -0.15453,-1.31769 -0.38495,-2.61555 -0.64843,-3.90625 z"
       id="path49102"
       sodipodi:nodetypes="ccscccccccccccccc" />
  </g>
  <g
     inkscape:groupmode="layer"
     id="g3033"
     inkscape:label="left.hand"
     style="display:inline"
     sodipodi:insensitive="true">
    <path
       style="display:inline;fill:#000000;fill-opacity:0.99995;stroke:none"
       d="m 152.42383,196.76562 c -2.04227,0.0432 -3.61112,0.76158 -4.79971,1.3487 -0.78444,0.38795 -3.00821,2.03077 -3.67685,2.48719 0.0627,0.92832 0.10158,1.86681 0.21289,2.77539 0.202,1.736 0.62457,3.84022 1.76757,5.19922 1.216,1.458 2.91883,2.28361 4.29883,3.59961 1.593,1.512 1.79394,3.248 2.21094,5.25 0.21,1.052 2.57667,4.10663 3.51367,4.51563 1.663,0.656 2.62813,2.70634 2.07813,4.40234 -0.613,1.835 -1.53022,3.74908 -0.19922,5.58008 1.136,-0.659 2.18923,-2.57906 2.86523,-3.66406 0.455,0.29 0.53813,2.50842 2.20313,3.23242 0.858,-0.785 0.73392,-2.24871 0.79492,-3.34571 0.357,0.431 0.78945,1.03072 1.31445,1.38672 0.424,-0.529 0.0963,-1.98692 0.0703,-2.66992 -0.034,-0.922 -0.16932,-1.7712 -0.23632,-2.6582 -0.101,-1.774 0.15873,-3.93749 -0.44727,-5.52149 -0.567,-1.483 -1.55423,-2.29965 -2.49023,-3.59765 -0.395,-0.532 -1.21519,-3.27161 -1.61719,-3.97461 -1.023,-1.773 -4.63227,-8.81825 -5.44727,-10.53125 -0.39414,-0.83345 -1.86681,-2.69449 -2.41601,-3.81446 z"
       id="path49140"
       sodipodi:nodetypes="cccccccccccccccccccccc" />
  </g>
  <g
     inkscape:groupmode="layer"
     id="g3037"
     inkscape:label="right.groin"
     style="display:inline">
    <path
       style="display:inline;fill:#000000;fill-opacity:0.99995;stroke:none"
       d="m 66.898438,188.70312 c -3.380142,1.37387 -7.88493,2.82062 -11.416016,3.63672 -1.93299,8.96417 -2.795764,14.18669 -0.409651,19.57985 2.876206,6.50087 5.546359,16.45013 5.546359,16.45013 0,0 8.905407,3.83643 13.912482,5.10909 0.495593,-5.62989 1.7501,-9.44217 2.044533,-12.46668 0.277419,-2.84973 -0.410577,-5.05579 0.199246,-5.65676 0.3844,-0.664 0.770709,-1.29378 1.224609,-1.92578 0.672691,-0.98197 0.890816,-0.87924 1.259766,-0.96289 -0.477716,-1.35747 -0.627349,-6.37915 -0.931641,-9.14649 -0.333556,-3.03348 -0.319137,-7.59781 -0.04297,-11.87304 -2.526229,-0.17441 -7.326815,-0.63703 -8.248047,-0.98047 -0.94282,-0.42214 -2.711438,-1.44088 -3.13867,-1.76368 z"
       id="path34444"
       sodipodi:nodetypes="ccsccscccsccc" />
  </g>
  <g
     inkscape:groupmode="layer"
     id="g3041"
     inkscape:label="right.hipJoint"
     style="display:inline">
    <path
       style="display:inline;fill:#000000;fill-opacity:0.99995;stroke:none"
       d="m 55.359375,192.36719 c -0.941815,0.21503 -1.827529,0.39451 -2.582031,0.50195 -4.730283,0.67357 -10.641236,0.151 -13.832032,-0.4082 -0.277042,2.15188 -0.912632,6.05663 -1.367187,11.12695 -0.469957,5.67739 -0.998993,13.16604 0.02734,15.4707 2.242731,5.03611 11.858184,6.85744 11.858184,6.85744 l 11.368386,2.70656 c -3.142258,-10.04786 -4.942144,-13.21608 -6.526307,-19.03342 -1.458301,-5.35515 -0.435605,-10.41805 1.053643,-17.22198 z"
       id="path41585"
       sodipodi:nodetypes="ssccsccscs" />
  </g>
  <g
     inkscape:groupmode="layer"
     id="g3045"
     inkscape:label="right.thigh"
     style="display:inline">
    <path
       style="display:inline;fill:#000000;fill-opacity:0.99995;stroke:none"
       d="m 37.1875,216.70703 c 0.230125,2.80911 0.585027,6.41683 0.736328,7.19336 0.2129,1.12 8.059494,40.89553 8.558594,43.26953 0.537,2.476 0.739422,5.10119 1.107422,7.61719 0.6471,4.489 0.886647,9.02672 1.060547,13.63672 0.0837,2.219 0.23829,4.50431 0.15039,6.69531 -0.03339,1.16365 0.03918,0.21146 -0.128415,3.96982 4.143173,0.95344 3.703076,-3.38949 8.166639,-3.46516 4.503788,-0.0763 5.042525,7.20734 16.388652,3.50957 0.299935,-2.74681 0.811403,-7.45924 0.862187,-8.42048 0.0411,-0.72 0.1637,-6.50334 0.125,-7.52734 -0.0425,-1.127 0.0015,-8.10313 -0.257813,-10.45313 -0.2605,-2.383 -0.541056,-11.67278 -0.660156,-13.92578 -0.2839,-4.81 0.177017,-20.68808 1.132717,-25.20308 -6.774731,-2.3666 -11.161754,-4.6102 -20.156154,-6.66801 -5.901877,-1.35028 -12.039995,-1.59702 -16.515626,-7.00391 z"
       id="path53327"
       sodipodi:nodetypes="ccccsccsccccccscc" />
  </g>
  <g
     inkscape:groupmode="layer"
     id="g3049"
     inkscape:label="right.knee"
     style="display:inline">
    <path
       style="display:inline;fill:#000000;fill-opacity:0.99995;stroke:none"
       d="m 56.822717,295.62837 c -4.898977,0.26958 -3.943329,4.37832 -8.163302,3.48464 -0.161203,3.61551 -0.5769,12.29456 -0.591056,12.78738 -0.05861,2.42171 -0.05766,3.26375 0.157004,6.12635 3.278486,-0.51153 2.897889,4.86869 8.49055,4.80739 5.457832,-0.0598 6.490482,-9.38738 17.464991,-9.30919 -0.783922,-4.83943 -1.435462,-9.95577 -1.055904,-13.13427 0.03237,-0.27546 0.07844,-0.82543 0.121094,-1.21289 -11.094832,3.71411 -12.028874,-3.79123 -16.423377,-3.54941 z"
       id="path54362"
       sodipodi:nodetypes="scccscccs" />
  </g>
  <g
     inkscape:groupmode="layer"
     id="g3053"
     inkscape:label="right.shin"
     style="display:inline">
    <path
       style="display:inline;fill:#000000;fill-opacity:0.99995;stroke:none"
       d="m 74.203125,313.45703 c -11.401108,0.44102 -11.855991,9.0541 -17.369776,9.34074 -5.864002,0.30485 -5.184211,-5.26993 -8.626416,-4.75677 0.774361,10.11474 2.992037,23.71249 3.691505,27.52917 1.154499,6.179 8.195,26.39514 7.25,36.61914 l 0.03516,0.92188 c 0.01194,0.31769 0.121065,0.96034 0.214053,1.45319 0.67726,0.71069 2.881919,2.00499 5.649126,1.76791 3.343732,-0.28648 5.723401,-0.67362 7.569064,-1.9225 0.2069,-1.752 -1.361122,-6.98424 -0.854122,-10.73024 0.1632,-1.101 -0.01682,-2.25642 0.146484,-3.35742 0.1619,-1.134 2.759491,-24.51694 3.337891,-29.08594 0.5744,-4.672 0.97719,-9.3711 0.90039,-14.1211 -0.04244,-3.0108 -1.073369,-8.31501 -1.943359,-13.6582 z"
       id="path54628"
       sodipodi:nodetypes="cscccccsccccccc" />
  </g>
  <g
     inkscape:groupmode="layer"
     id="g3057"
     inkscape:label="right.foot"
     style="display:inline">
    <path
       style="display:inline;fill:#000000;fill-opacity:0.99995;stroke:none"
       d="m 59.466797,384.53125 c -0.02342,0.0123 -0.04693,0.0247 -0.07031,0.0371 0.09085,0.45682 0.196047,0.93153 0.302735,1.32617 0.3151,1.117 0.232667,1.66778 -0.207031,2.67578 -0.7534,1.738 -2.063654,3.1891 -2.814454,4.9961 -0.6878,1.667 -1.620481,3.17209 -2.550781,4.74609 -0.5445,0.944 -0.898367,1.50355 -1.759765,2.18555 -0.727801,0.609 -1.591291,1.25784 -2.212891,1.96484 -0.6873,0.778 -1.051056,1.98781 -0.910156,3.00781 0.1421,1.055 1.111821,2.318 1.919921,1.125 0.646901,0.865 1.196182,0.94644 1.988282,0.23242 0.1189,0.44001 0.371862,0.84063 0.851562,0.89063 0.549,0.082 0.734835,-0.40292 1.177735,-0.41992 0.0624,0.75 1.322003,1.52125 1.970703,1.53125 0.5124,0.015 0.904756,-0.40878 1.347656,-0.42578 0.4089,-0.015 0.728978,0.31422 1.080078,0.57422 1.7527,1.233 3.432875,1.44343 5.484375,0.64843 1.9165,-0.756 2.380094,-2.92864 2.621094,-4.68164 0.1356,-0.928 -0.08049,-2.11583 0.191406,-3.04883 0.3336,-1.107 0.979906,-1.16459 2.066406,-1.30859 3.6358,-0.411 2.434376,-6.04164 2.330079,-8.80664 -0.0322,-0.854 -0.0644,-1.7092 0.04102,-2.5332 0.09847,-0.6435 0.707627,-1.78263 0.378842,-4.88729 -2.269786,1.45398 -5.15012,1.93665 -7.810758,2.01305 -2.360888,0.0678 -4.746594,-1.0376 -5.415748,-1.84255 z"
       id="path54590"
       sodipodi:nodetypes="ccccccccccccccccccccsccsc" />
  </g>
  <g
     inkscape:groupmode="layer"
     id="g3061"
     inkscape:label="left.groin"
     style="display:inline">
    <path
       style="display:inline;fill:#000000;fill-opacity:0.99995;stroke:none"
       d="m 90.449219,189.88867 c -2.231231,0.89394 -5.426767,1.93788 -12.103516,1.55078 -0.440614,4.15975 -0.2805,5.91469 -0.01953,11.82813 0.372485,1.22758 0.424866,7.90455 0.861328,8.98242 0.02278,0.0702 0.0502,0.13544 0.07813,0.20117 0.216577,-0.0299 0.468609,-0.0397 0.810547,-0.0234 0.8443,1.575 0.844462,1.57513 1.414062,2.20313 0.571,0.662 1.176394,1.28997 1.746094,1.91797 0.7831,0.86 1.436357,1.00594 1.81836,2.08594 0.341397,0.91 3.170244,8.30952 5.181592,12.35575 0.144217,0.38444 5.616872,-4.92709 7.572758,-5.97755 0.673422,-3.09098 -0.0246,-8.71059 1.321144,-13.97794 1.785102,-6.98703 3.025242,-12.69126 5.113962,-18.47448 0.074,-0.19291 0.14632,-0.38717 0.2207,-0.58008 -4.887101,-0.54802 -9.868671,-1.30963 -14.015625,-2.0918 z"
       id="path34518"
       sodipodi:nodetypes="cccccccccccsccsc" />
  </g>
  <g
     inkscape:groupmode="layer"
     id="g3065"
     inkscape:label="left.hipJoint"
     style="display:inline">
    <path
       style="display:inline;fill:#000000;fill-opacity:0.99995;stroke:none"
       d="m 104.58984,191.99414 c -0.0781,0.20257 -0.15279,0.40679 -0.23046,0.60938 -1.91801,4.97865 -2.94735,9.7248 -4.32834,14.90869 -1.468429,5.51208 -1.611943,8.16029 -2.23721,17.50753 2.8971,-1.45878 3.97604,-2.22162 4.08481,-1.96641 5.41206,-2.76758 3.43621,-0.8557 10.55105,-4.53185 5.1289,-2.65004 11.20365,-5.97508 14.6582,-11.8789 -0.49149,-1.79664 -1.07065,-3.94052 -1.18555,-4.25196 -0.721,-1.92196 -2.10951,-7.99001 -2.35351,-9.04101 -0.0645,-0.2996 -0.18534,-0.90768 -0.25391,-1.20313 -3.51258,1.02479 -10.97864,0.70848 -18.70508,-0.15234 z"
       id="path41433"
       sodipodi:nodetypes="ccsccsccccc" />
  </g>
  <g
     inkscape:groupmode="layer"
     id="g3069"
     inkscape:label="left.thigh"
     style="display:inline">
    <path
       style="display:inline;fill:#000000;fill-opacity:0.99995;stroke:none"
       d="m 127.07422,206.61719 c -3.61275,6.32089 -10.45181,9.80559 -16.58984,12.80859 -8.17463,3.21305 -13.773031,5.19463 -20.134224,11.66861 1.132716,2.58874 1.200571,3.18516 2.093134,4.96489 2.1779,4.362 2.760879,6.46792 5.037179,10.72392 2.0184,3.753 3.911891,7.81971 5.628911,11.72071 0.932,2.085 9.81365,23.15304 10.47265,25.24804 0.17305,0.48438 1.30402,5.08184 2.06783,8.11398 5.66382,-0.48497 6.34297,-0.0576 11.51646,-1.62747 6.45586,-1.95896 3.03763,-8.78232 7.43133,-10.26055 5.04213,-1.69639 4.40273,3.11945 5.74983,2.98434 -1.52441,-3.65994 -2.68078,-10.18772 -2.89826,-13.27475 -2.01863,-30.70442 -8.20167,-55.36879 -10.375,-63.07031 z"
       id="path53365"
       sodipodi:nodetypes="ccccccccssccc" />
  </g>
  <g
     inkscape:groupmode="layer"
     id="g3073"
     inkscape:label="left.knee"
     style="display:inline">
    <path
       style="display:inline;fill:#000000;fill-opacity:0.99995;stroke:none"
       d="m 137.07006,279.72412 c -2.65779,-0.23232 -4.82061,0.63448 -5.48124,5.66055 -0.84434,6.42381 -10.74256,5.97552 -15.96187,6.4376 0.2115,0.83399 0.43524,1.7862 0.5625,2.22461 0.55,1.92799 1.57414,3.76987 2.49414,5.54687 0.27516,0.55718 0.92105,2.14635 1.56462,3.5226 15.18454,-2.87418 16.70364,2.63672 21.43408,1.75273 3.86315,-0.72191 1.58897,-2.11814 3.53974,-4.84391 -0.97668,-2.89608 -1.64314,-4.60799 -2.07359,-5.90215 -0.342,-0.945 -0.55667,-2.09803 -0.76367,-3.08203 -0.123,-0.542 -0.11058,-1.12307 -0.26758,-1.66407 -0.123,-0.542 -1.26614,-5.52581 -1.49414,-6.13281 -1.77734,-0.38483 -0.72506,-3.27279 -3.55299,-3.51999 z"
       id="path58128"
       sodipodi:nodetypes="ssccccscccccs" />
  </g>
  <g
     inkscape:groupmode="layer"
     id="g3077"
     inkscape:label="left.shin"
     style="display:inline">
    <path
       style="display:inline;fill:#000000;fill-opacity:0.99995;stroke:none"
       d="m 145.13481,299.86776 c -1.26992,2.48409 0.0265,4.40478 -3.81743,5.12833 -4.74866,0.89384 -5.59367,-5.11313 -20.91308,-1.77731 0.41454,0.89357 0.8615,1.85111 0.99218,2.22266 1.652,4.896 1.81468,11.04426 2.13868,13.32226 0.318,2.074 0.6377,4.18181 0.88672,6.25781 1.16697,9.222 12.26464,36.59913 14.43164,41.57813 1.38221,3.16405 4.75889,12.25943 6.16171,16.44789 3.51764,1.13988 5.89339,1.40344 8.99582,1.10692 2.69693,-0.25776 4.30265,-2.11428 5.07829,-1.98161 -0.63741,-2.2117 -2.36745,-6.84622 -2.88622,-12.50093 -3.42196,-40.04501 -1.87484,-42.42819 -6.71484,-56.74219 -2.58283,-7.65505 -3.77665,-11.64278 -4.35347,-13.06196 z"
       id="path58166"
       sodipodi:nodetypes="csccccccscccc" />
  </g>
  <g
     inkscape:groupmode="layer"
     id="g3081"
     inkscape:label="left.foot"
     style="display:inline">
    <path
       style="display:inline;fill:#000000;fill-opacity:0.99995;stroke:none"
       d="m 145.00586,383.08008 c 0.2966,0.89404 0.52858,1.6254 0.58203,1.90039 0.382,2.003 0.92972,3.86072 1.01172,6.01172 0.081,2.151 -0.0352,4.51673 0.38281,6.55273 0.414,1.933 0.66008,3.9053 2.58008,5.0293 0.803,0.483 2.06028,0.36711 2.98828,0.53711 1.065,0.199 2.25375,0.051 3.34375,0.01 2.079,-0.078 4.3233,-1.22115 6.15235,0.21485 1.336,1.044 2.62267,2.60062 3.76367,3.89062 1.498,1.722 3.1844,2.13749 5.3164,1.64649 0.406,-0.084 0.73964,-0.26736 1.18164,-0.31836 l 0.56055,0.38867 c 0.515,0.083 0.93933,0.47819 1.48633,0.49219 0.546,0.014 1.0517,-0.14227 1.5957,-0.19727 1.088,-0.109 2.13277,-0.49217 3.13477,-1.07617 0.233,-0.146 0.22429,-0.35047 0.52929,-0.39649 0.406,-0.083 0.62485,0.25129 0.96485,0.23829 0.682,-0.025 0.83525,-0.47696 1.15625,-1.00196 0.161,-0.245 0.15651,-0.38075 0.35351,-0.59375 0.164,-0.177 0.37216,-0.0839 0.53516,-0.29492 0.325,-0.422 0.14616,-0.65497 0.16016,-1.16797 0.768,0.449 0.96331,-0.71909 0.69531,-1.49609 -0.193,-0.574 -0.86191,-1.09558 -1.25391,-1.5586 -0.93,-1.12799 -2.22072,-1.90037 -3.63672,-2.35937 -1.485,-0.457 -2.91575,-0.37022 -4.21875,-1.44922 -1.127,-0.915 -6.20326,-6.12319 -7.69726,-7.74219 -0.605,-0.661 -1.30906,-1.25111 -1.91406,-1.91211 -0.65376,-0.70307 -4.87608,-4.08033 -5.68946,-6.23046 -0.81979,-0.1423 -3.26988,2.17483 -6.59489,2.12304 -3.22929,-0.0503 -4.64319,-0.42388 -7.46956,-1.24047 z"
       id="path58353"
       sodipodi:nodetypes="ccccccccccccscccccccccccccccsc" />
  </g>
</svg>
